<?xml version="1.0" encoding="utf-8" standalone="no"?>
<!DOCTYPE svg PUBLIC "-//W3C//DTD SVG 1.1//EN"
  "http://www.w3.org/Graphics/SVG/1.1/DTD/svg11.dtd">
<!-- Created with matplotlib (http://matplotlib.org/) -->
<svg height="360pt" version="1.1" viewBox="0 0 720 360" width="720pt" xmlns="http://www.w3.org/2000/svg" xmlns:xlink="http://www.w3.org/1999/xlink">
 <defs>
  <style type="text/css">
*{stroke-linecap:butt;stroke-linejoin:round;}
  </style>
 </defs>
 <g id="figure_1">
  <g id="patch_1">
   <path d="M 0 360 
L 720 360 
L 720 0 
L 0 0 
z
" style="fill:#ffffff;"/>
  </g>
  <g id="axes_1">
   <g id="patch_2">
    <path d="M 90 315 
L 648 315 
L 648 43.2 
L 90 43.2 
z
" style="fill:#ffffff;"/>
   </g>
   <g id="matplotlib.axis_1">
    <g id="xtick_1">
     <g id="line2d_1">
      <path clip-path="url(#pcdfbd2ddba)" d="M 115.363636 315 
L 115.363636 43.2 
" style="fill:none;stroke:#000000;stroke-dasharray:0.8,1.32;stroke-dashoffset:0;stroke-width:0.8;"/>
     </g>
     <g id="line2d_2">
      <defs>
       <path d="M 0 0 
L 0 3.5 
" id="m7af4d609ef" style="stroke:#000000;stroke-width:0.8;"/>
      </defs>
      <g>
       <use style="stroke:#000000;stroke-width:0.8;" x="115.363636" xlink:href="#m7af4d609ef" y="315"/>
      </g>
     </g>
     <g id="text_1">
      <!-- 0 -->
      <defs>
       <path d="M 31.78125 66.40625 
Q 24.171875 66.40625 20.328125 58.90625 
Q 16.5 51.421875 16.5 36.375 
Q 16.5 21.390625 20.328125 13.890625 
Q 24.171875 6.390625 31.78125 6.390625 
Q 39.453125 6.390625 43.28125 13.890625 
Q 47.125 21.390625 47.125 36.375 
Q 47.125 51.421875 43.28125 58.90625 
Q 39.453125 66.40625 31.78125 66.40625 
z
M 31.78125 74.21875 
Q 44.046875 74.21875 50.515625 64.515625 
Q 56.984375 54.828125 56.984375 36.375 
Q 56.984375 17.96875 50.515625 8.265625 
Q 44.046875 -1.421875 31.78125 -1.421875 
Q 19.53125 -1.421875 13.0625 8.265625 
Q 6.59375 17.96875 6.59375 36.375 
Q 6.59375 54.828125 13.0625 64.515625 
Q 19.53125 74.21875 31.78125 74.21875 
z
" id="DejaVuSans-30"/>
      </defs>
      <g transform="translate(112.182386 329.598437)scale(0.1 -0.1)">
       <use xlink:href="#DejaVuSans-30"/>
      </g>
     </g>
    </g>
    <g id="xtick_2">
     <g id="line2d_3">
      <path clip-path="url(#pcdfbd2ddba)" d="M 178.804448 315 
L 178.804448 43.2 
" style="fill:none;stroke:#000000;stroke-dasharray:0.8,1.32;stroke-dashoffset:0;stroke-width:0.8;"/>
     </g>
     <g id="line2d_4">
      <g>
       <use style="stroke:#000000;stroke-width:0.8;" x="178.804448" xlink:href="#m7af4d609ef" y="315"/>
      </g>
     </g>
     <g id="text_2">
      <!-- 250 -->
      <defs>
       <path d="M 19.1875 8.296875 
L 53.609375 8.296875 
L 53.609375 0 
L 7.328125 0 
L 7.328125 8.296875 
Q 12.9375 14.109375 22.625 23.890625 
Q 32.328125 33.6875 34.8125 36.53125 
Q 39.546875 41.84375 41.421875 45.53125 
Q 43.3125 49.21875 43.3125 52.78125 
Q 43.3125 58.59375 39.234375 62.25 
Q 35.15625 65.921875 28.609375 65.921875 
Q 23.96875 65.921875 18.8125 64.3125 
Q 13.671875 62.703125 7.8125 59.421875 
L 7.8125 69.390625 
Q 13.765625 71.78125 18.9375 73 
Q 24.125 74.21875 28.421875 74.21875 
Q 39.75 74.21875 46.484375 68.546875 
Q 53.21875 62.890625 53.21875 53.421875 
Q 53.21875 48.921875 51.53125 44.890625 
Q 49.859375 40.875 45.40625 35.40625 
Q 44.1875 33.984375 37.640625 27.21875 
Q 31.109375 20.453125 19.1875 8.296875 
z
" id="DejaVuSans-32"/>
       <path d="M 10.796875 72.90625 
L 49.515625 72.90625 
L 49.515625 64.59375 
L 19.828125 64.59375 
L 19.828125 46.734375 
Q 21.96875 47.46875 24.109375 47.828125 
Q 26.265625 48.1875 28.421875 48.1875 
Q 40.625 48.1875 47.75 41.5 
Q 54.890625 34.8125 54.890625 23.390625 
Q 54.890625 11.625 47.5625 5.09375 
Q 40.234375 -1.421875 26.90625 -1.421875 
Q 22.3125 -1.421875 17.546875 -0.640625 
Q 12.796875 0.140625 7.71875 1.703125 
L 7.71875 11.625 
Q 12.109375 9.234375 16.796875 8.0625 
Q 21.484375 6.890625 26.703125 6.890625 
Q 35.15625 6.890625 40.078125 11.328125 
Q 45.015625 15.765625 45.015625 23.390625 
Q 45.015625 31 40.078125 35.4375 
Q 35.15625 39.890625 26.703125 39.890625 
Q 22.75 39.890625 18.8125 39.015625 
Q 14.890625 38.140625 10.796875 36.28125 
z
" id="DejaVuSans-35"/>
      </defs>
      <g transform="translate(169.260698 329.598437)scale(0.1 -0.1)">
       <use xlink:href="#DejaVuSans-32"/>
       <use x="63.623047" xlink:href="#DejaVuSans-35"/>
       <use x="127.246094" xlink:href="#DejaVuSans-30"/>
      </g>
     </g>
    </g>
    <g id="xtick_3">
     <g id="line2d_5">
      <path clip-path="url(#pcdfbd2ddba)" d="M 242.245259 315 
L 242.245259 43.2 
" style="fill:none;stroke:#000000;stroke-dasharray:0.8,1.32;stroke-dashoffset:0;stroke-width:0.8;"/>
     </g>
     <g id="line2d_6">
      <g>
       <use style="stroke:#000000;stroke-width:0.8;" x="242.245259" xlink:href="#m7af4d609ef" y="315"/>
      </g>
     </g>
     <g id="text_3">
      <!-- 500 -->
      <g transform="translate(232.701509 329.598437)scale(0.1 -0.1)">
       <use xlink:href="#DejaVuSans-35"/>
       <use x="63.623047" xlink:href="#DejaVuSans-30"/>
       <use x="127.246094" xlink:href="#DejaVuSans-30"/>
      </g>
     </g>
    </g>
    <g id="xtick_4">
     <g id="line2d_7">
      <path clip-path="url(#pcdfbd2ddba)" d="M 305.68607 315 
L 305.68607 43.2 
" style="fill:none;stroke:#000000;stroke-dasharray:0.8,1.32;stroke-dashoffset:0;stroke-width:0.8;"/>
     </g>
     <g id="line2d_8">
      <g>
       <use style="stroke:#000000;stroke-width:0.8;" x="305.68607" xlink:href="#m7af4d609ef" y="315"/>
      </g>
     </g>
     <g id="text_4">
      <!-- 750 -->
      <defs>
       <path d="M 8.203125 72.90625 
L 55.078125 72.90625 
L 55.078125 68.703125 
L 28.609375 0 
L 18.3125 0 
L 43.21875 64.59375 
L 8.203125 64.59375 
z
" id="DejaVuSans-37"/>
      </defs>
      <g transform="translate(296.14232 329.598437)scale(0.1 -0.1)">
       <use xlink:href="#DejaVuSans-37"/>
       <use x="63.623047" xlink:href="#DejaVuSans-35"/>
       <use x="127.246094" xlink:href="#DejaVuSans-30"/>
      </g>
     </g>
    </g>
    <g id="xtick_5">
     <g id="line2d_9">
      <path clip-path="url(#pcdfbd2ddba)" d="M 369.126882 315 
L 369.126882 43.2 
" style="fill:none;stroke:#000000;stroke-dasharray:0.8,1.32;stroke-dashoffset:0;stroke-width:0.8;"/>
     </g>
     <g id="line2d_10">
      <g>
       <use style="stroke:#000000;stroke-width:0.8;" x="369.126882" xlink:href="#m7af4d609ef" y="315"/>
      </g>
     </g>
     <g id="text_5">
      <!-- 1000 -->
      <defs>
       <path d="M 12.40625 8.296875 
L 28.515625 8.296875 
L 28.515625 63.921875 
L 10.984375 60.40625 
L 10.984375 69.390625 
L 28.421875 72.90625 
L 38.28125 72.90625 
L 38.28125 8.296875 
L 54.390625 8.296875 
L 54.390625 0 
L 12.40625 0 
z
" id="DejaVuSans-31"/>
      </defs>
      <g transform="translate(356.401882 329.598437)scale(0.1 -0.1)">
       <use xlink:href="#DejaVuSans-31"/>
       <use x="63.623047" xlink:href="#DejaVuSans-30"/>
       <use x="127.246094" xlink:href="#DejaVuSans-30"/>
       <use x="190.869141" xlink:href="#DejaVuSans-30"/>
      </g>
     </g>
    </g>
    <g id="xtick_6">
     <g id="line2d_11">
      <path clip-path="url(#pcdfbd2ddba)" d="M 432.567693 315 
L 432.567693 43.2 
" style="fill:none;stroke:#000000;stroke-dasharray:0.8,1.32;stroke-dashoffset:0;stroke-width:0.8;"/>
     </g>
     <g id="line2d_12">
      <g>
       <use style="stroke:#000000;stroke-width:0.8;" x="432.567693" xlink:href="#m7af4d609ef" y="315"/>
      </g>
     </g>
     <g id="text_6">
      <!-- 1250 -->
      <g transform="translate(419.842693 329.598437)scale(0.1 -0.1)">
       <use xlink:href="#DejaVuSans-31"/>
       <use x="63.623047" xlink:href="#DejaVuSans-32"/>
       <use x="127.246094" xlink:href="#DejaVuSans-35"/>
       <use x="190.869141" xlink:href="#DejaVuSans-30"/>
      </g>
     </g>
    </g>
    <g id="xtick_7">
     <g id="line2d_13">
      <path clip-path="url(#pcdfbd2ddba)" d="M 496.008504 315 
L 496.008504 43.2 
" style="fill:none;stroke:#000000;stroke-dasharray:0.8,1.32;stroke-dashoffset:0;stroke-width:0.8;"/>
     </g>
     <g id="line2d_14">
      <g>
       <use style="stroke:#000000;stroke-width:0.8;" x="496.008504" xlink:href="#m7af4d609ef" y="315"/>
      </g>
     </g>
     <g id="text_7">
      <!-- 1500 -->
      <g transform="translate(483.283504 329.598437)scale(0.1 -0.1)">
       <use xlink:href="#DejaVuSans-31"/>
       <use x="63.623047" xlink:href="#DejaVuSans-35"/>
       <use x="127.246094" xlink:href="#DejaVuSans-30"/>
       <use x="190.869141" xlink:href="#DejaVuSans-30"/>
      </g>
     </g>
    </g>
    <g id="xtick_8">
     <g id="line2d_15">
      <path clip-path="url(#pcdfbd2ddba)" d="M 559.449316 315 
L 559.449316 43.2 
" style="fill:none;stroke:#000000;stroke-dasharray:0.8,1.32;stroke-dashoffset:0;stroke-width:0.8;"/>
     </g>
     <g id="line2d_16">
      <g>
       <use style="stroke:#000000;stroke-width:0.8;" x="559.449316" xlink:href="#m7af4d609ef" y="315"/>
      </g>
     </g>
     <g id="text_8">
      <!-- 1750 -->
      <g transform="translate(546.724316 329.598437)scale(0.1 -0.1)">
       <use xlink:href="#DejaVuSans-31"/>
       <use x="63.623047" xlink:href="#DejaVuSans-37"/>
       <use x="127.246094" xlink:href="#DejaVuSans-35"/>
       <use x="190.869141" xlink:href="#DejaVuSans-30"/>
      </g>
     </g>
    </g>
    <g id="xtick_9">
     <g id="line2d_17">
      <path clip-path="url(#pcdfbd2ddba)" d="M 622.890127 315 
L 622.890127 43.2 
" style="fill:none;stroke:#000000;stroke-dasharray:0.8,1.32;stroke-dashoffset:0;stroke-width:0.8;"/>
     </g>
     <g id="line2d_18">
      <g>
       <use style="stroke:#000000;stroke-width:0.8;" x="622.890127" xlink:href="#m7af4d609ef" y="315"/>
      </g>
     </g>
     <g id="text_9">
      <!-- 2000 -->
      <g transform="translate(610.165127 329.598437)scale(0.1 -0.1)">
       <use xlink:href="#DejaVuSans-32"/>
       <use x="63.623047" xlink:href="#DejaVuSans-30"/>
       <use x="127.246094" xlink:href="#DejaVuSans-30"/>
       <use x="190.869141" xlink:href="#DejaVuSans-30"/>
      </g>
     </g>
    </g>
    <g id="text_10">
     <!-- epoch -->
     <defs>
      <path d="M 56.203125 29.59375 
L 56.203125 25.203125 
L 14.890625 25.203125 
Q 15.484375 15.921875 20.484375 11.0625 
Q 25.484375 6.203125 34.421875 6.203125 
Q 39.59375 6.203125 44.453125 7.46875 
Q 49.3125 8.734375 54.109375 11.28125 
L 54.109375 2.78125 
Q 49.265625 0.734375 44.1875 -0.34375 
Q 39.109375 -1.421875 33.890625 -1.421875 
Q 20.796875 -1.421875 13.15625 6.1875 
Q 5.515625 13.8125 5.515625 26.8125 
Q 5.515625 40.234375 12.765625 48.109375 
Q 20.015625 56 32.328125 56 
Q 43.359375 56 49.78125 48.890625 
Q 56.203125 41.796875 56.203125 29.59375 
z
M 47.21875 32.234375 
Q 47.125 39.59375 43.09375 43.984375 
Q 39.0625 48.390625 32.421875 48.390625 
Q 24.90625 48.390625 20.390625 44.140625 
Q 15.875 39.890625 15.1875 32.171875 
z
" id="DejaVuSans-65"/>
      <path d="M 18.109375 8.203125 
L 18.109375 -20.796875 
L 9.078125 -20.796875 
L 9.078125 54.6875 
L 18.109375 54.6875 
L 18.109375 46.390625 
Q 20.953125 51.265625 25.265625 53.625 
Q 29.59375 56 35.59375 56 
Q 45.5625 56 51.78125 48.09375 
Q 58.015625 40.1875 58.015625 27.296875 
Q 58.015625 14.40625 51.78125 6.484375 
Q 45.5625 -1.421875 35.59375 -1.421875 
Q 29.59375 -1.421875 25.265625 0.953125 
Q 20.953125 3.328125 18.109375 8.203125 
z
M 48.6875 27.296875 
Q 48.6875 37.203125 44.609375 42.84375 
Q 40.53125 48.484375 33.40625 48.484375 
Q 26.265625 48.484375 22.1875 42.84375 
Q 18.109375 37.203125 18.109375 27.296875 
Q 18.109375 17.390625 22.1875 11.75 
Q 26.265625 6.109375 33.40625 6.109375 
Q 40.53125 6.109375 44.609375 11.75 
Q 48.6875 17.390625 48.6875 27.296875 
z
" id="DejaVuSans-70"/>
      <path d="M 30.609375 48.390625 
Q 23.390625 48.390625 19.1875 42.75 
Q 14.984375 37.109375 14.984375 27.296875 
Q 14.984375 17.484375 19.15625 11.84375 
Q 23.34375 6.203125 30.609375 6.203125 
Q 37.796875 6.203125 41.984375 11.859375 
Q 46.1875 17.53125 46.1875 27.296875 
Q 46.1875 37.015625 41.984375 42.703125 
Q 37.796875 48.390625 30.609375 48.390625 
z
M 30.609375 56 
Q 42.328125 56 49.015625 48.375 
Q 55.71875 40.765625 55.71875 27.296875 
Q 55.71875 13.875 49.015625 6.21875 
Q 42.328125 -1.421875 30.609375 -1.421875 
Q 18.84375 -1.421875 12.171875 6.21875 
Q 5.515625 13.875 5.515625 27.296875 
Q 5.515625 40.765625 12.171875 48.375 
Q 18.84375 56 30.609375 56 
z
" id="DejaVuSans-6f"/>
      <path d="M 48.78125 52.59375 
L 48.78125 44.1875 
Q 44.96875 46.296875 41.140625 47.34375 
Q 37.3125 48.390625 33.40625 48.390625 
Q 24.65625 48.390625 19.8125 42.84375 
Q 14.984375 37.3125 14.984375 27.296875 
Q 14.984375 17.28125 19.8125 11.734375 
Q 24.65625 6.203125 33.40625 6.203125 
Q 37.3125 6.203125 41.140625 7.25 
Q 44.96875 8.296875 48.78125 10.40625 
L 48.78125 2.09375 
Q 45.015625 0.34375 40.984375 -0.53125 
Q 36.96875 -1.421875 32.421875 -1.421875 
Q 20.0625 -1.421875 12.78125 6.34375 
Q 5.515625 14.109375 5.515625 27.296875 
Q 5.515625 40.671875 12.859375 48.328125 
Q 20.21875 56 33.015625 56 
Q 37.15625 56 41.109375 55.140625 
Q 45.0625 54.296875 48.78125 52.59375 
z
" id="DejaVuSans-63"/>
      <path d="M 54.890625 33.015625 
L 54.890625 0 
L 45.90625 0 
L 45.90625 32.71875 
Q 45.90625 40.484375 42.875 44.328125 
Q 39.84375 48.1875 33.796875 48.1875 
Q 26.515625 48.1875 22.3125 43.546875 
Q 18.109375 38.921875 18.109375 30.90625 
L 18.109375 0 
L 9.078125 0 
L 9.078125 75.984375 
L 18.109375 75.984375 
L 18.109375 46.1875 
Q 21.34375 51.125 25.703125 53.5625 
Q 30.078125 56 35.796875 56 
Q 45.21875 56 50.046875 50.171875 
Q 54.890625 44.34375 54.890625 33.015625 
z
" id="DejaVuSans-68"/>
     </defs>
     <g transform="translate(353.771875 343.276563)scale(0.1 -0.1)">
      <use xlink:href="#DejaVuSans-65"/>
      <use x="61.523438" xlink:href="#DejaVuSans-70"/>
      <use x="125" xlink:href="#DejaVuSans-6f"/>
      <use x="186.181641" xlink:href="#DejaVuSans-63"/>
      <use x="241.162109" xlink:href="#DejaVuSans-68"/>
     </g>
    </g>
   </g>
   <g id="matplotlib.axis_2">
    <g id="ytick_1">
     <g id="line2d_19">
      <path clip-path="url(#pcdfbd2ddba)" d="M 90 315 
L 648 315 
" style="fill:none;stroke:#000000;stroke-dasharray:0.8,1.32;stroke-dashoffset:0;stroke-width:0.8;"/>
     </g>
     <g id="line2d_20">
      <defs>
       <path d="M 0 0 
L -3.5 0 
" id="m9b8e40f23a" style="stroke:#000000;stroke-width:0.8;"/>
      </defs>
      <g>
       <use style="stroke:#000000;stroke-width:0.8;" x="90" xlink:href="#m9b8e40f23a" y="315"/>
      </g>
     </g>
     <g id="text_11">
      <!-- 0.0 -->
      <defs>
       <path d="M 10.6875 12.40625 
L 21 12.40625 
L 21 0 
L 10.6875 0 
z
" id="DejaVuSans-2e"/>
      </defs>
      <g transform="translate(67.096875 318.799219)scale(0.1 -0.1)">
       <use xlink:href="#DejaVuSans-30"/>
       <use x="63.623047" xlink:href="#DejaVuSans-2e"/>
       <use x="95.410156" xlink:href="#DejaVuSans-30"/>
      </g>
     </g>
    </g>
    <g id="ytick_2">
     <g id="line2d_21">
      <path clip-path="url(#pcdfbd2ddba)" d="M 90 287.82 
L 648 287.82 
" style="fill:none;stroke:#000000;stroke-dasharray:0.8,1.32;stroke-dashoffset:0;stroke-width:0.8;"/>
     </g>
     <g id="line2d_22">
      <g>
       <use style="stroke:#000000;stroke-width:0.8;" x="90" xlink:href="#m9b8e40f23a" y="287.82"/>
      </g>
     </g>
     <g id="text_12">
      <!-- 0.1 -->
      <g transform="translate(67.096875 291.619219)scale(0.1 -0.1)">
       <use xlink:href="#DejaVuSans-30"/>
       <use x="63.623047" xlink:href="#DejaVuSans-2e"/>
       <use x="95.410156" xlink:href="#DejaVuSans-31"/>
      </g>
     </g>
    </g>
    <g id="ytick_3">
     <g id="line2d_23">
      <path clip-path="url(#pcdfbd2ddba)" d="M 90 260.64 
L 648 260.64 
" style="fill:none;stroke:#000000;stroke-dasharray:0.8,1.32;stroke-dashoffset:0;stroke-width:0.8;"/>
     </g>
     <g id="line2d_24">
      <g>
       <use style="stroke:#000000;stroke-width:0.8;" x="90" xlink:href="#m9b8e40f23a" y="260.64"/>
      </g>
     </g>
     <g id="text_13">
      <!-- 0.2 -->
      <g transform="translate(67.096875 264.439219)scale(0.1 -0.1)">
       <use xlink:href="#DejaVuSans-30"/>
       <use x="63.623047" xlink:href="#DejaVuSans-2e"/>
       <use x="95.410156" xlink:href="#DejaVuSans-32"/>
      </g>
     </g>
    </g>
    <g id="ytick_4">
     <g id="line2d_25">
      <path clip-path="url(#pcdfbd2ddba)" d="M 90 233.46 
L 648 233.46 
" style="fill:none;stroke:#000000;stroke-dasharray:0.8,1.32;stroke-dashoffset:0;stroke-width:0.8;"/>
     </g>
     <g id="line2d_26">
      <g>
       <use style="stroke:#000000;stroke-width:0.8;" x="90" xlink:href="#m9b8e40f23a" y="233.46"/>
      </g>
     </g>
     <g id="text_14">
      <!-- 0.3 -->
      <defs>
       <path d="M 40.578125 39.3125 
Q 47.65625 37.796875 51.625 33 
Q 55.609375 28.21875 55.609375 21.1875 
Q 55.609375 10.40625 48.1875 4.484375 
Q 40.765625 -1.421875 27.09375 -1.421875 
Q 22.515625 -1.421875 17.65625 -0.515625 
Q 12.796875 0.390625 7.625 2.203125 
L 7.625 11.71875 
Q 11.71875 9.328125 16.59375 8.109375 
Q 21.484375 6.890625 26.8125 6.890625 
Q 36.078125 6.890625 40.9375 10.546875 
Q 45.796875 14.203125 45.796875 21.1875 
Q 45.796875 27.640625 41.28125 31.265625 
Q 36.765625 34.90625 28.71875 34.90625 
L 20.21875 34.90625 
L 20.21875 43.015625 
L 29.109375 43.015625 
Q 36.375 43.015625 40.234375 45.921875 
Q 44.09375 48.828125 44.09375 54.296875 
Q 44.09375 59.90625 40.109375 62.90625 
Q 36.140625 65.921875 28.71875 65.921875 
Q 24.65625 65.921875 20.015625 65.03125 
Q 15.375 64.15625 9.8125 62.3125 
L 9.8125 71.09375 
Q 15.4375 72.65625 20.34375 73.4375 
Q 25.25 74.21875 29.59375 74.21875 
Q 40.828125 74.21875 47.359375 69.109375 
Q 53.90625 64.015625 53.90625 55.328125 
Q 53.90625 49.265625 50.4375 45.09375 
Q 46.96875 40.921875 40.578125 39.3125 
z
" id="DejaVuSans-33"/>
      </defs>
      <g transform="translate(67.096875 237.259219)scale(0.1 -0.1)">
       <use xlink:href="#DejaVuSans-30"/>
       <use x="63.623047" xlink:href="#DejaVuSans-2e"/>
       <use x="95.410156" xlink:href="#DejaVuSans-33"/>
      </g>
     </g>
    </g>
    <g id="ytick_5">
     <g id="line2d_27">
      <path clip-path="url(#pcdfbd2ddba)" d="M 90 206.28 
L 648 206.28 
" style="fill:none;stroke:#000000;stroke-dasharray:0.8,1.32;stroke-dashoffset:0;stroke-width:0.8;"/>
     </g>
     <g id="line2d_28">
      <g>
       <use style="stroke:#000000;stroke-width:0.8;" x="90" xlink:href="#m9b8e40f23a" y="206.28"/>
      </g>
     </g>
     <g id="text_15">
      <!-- 0.4 -->
      <defs>
       <path d="M 37.796875 64.3125 
L 12.890625 25.390625 
L 37.796875 25.390625 
z
M 35.203125 72.90625 
L 47.609375 72.90625 
L 47.609375 25.390625 
L 58.015625 25.390625 
L 58.015625 17.1875 
L 47.609375 17.1875 
L 47.609375 0 
L 37.796875 0 
L 37.796875 17.1875 
L 4.890625 17.1875 
L 4.890625 26.703125 
z
" id="DejaVuSans-34"/>
      </defs>
      <g transform="translate(67.096875 210.079219)scale(0.1 -0.1)">
       <use xlink:href="#DejaVuSans-30"/>
       <use x="63.623047" xlink:href="#DejaVuSans-2e"/>
       <use x="95.410156" xlink:href="#DejaVuSans-34"/>
      </g>
     </g>
    </g>
    <g id="ytick_6">
     <g id="line2d_29">
      <path clip-path="url(#pcdfbd2ddba)" d="M 90 179.1 
L 648 179.1 
" style="fill:none;stroke:#000000;stroke-dasharray:0.8,1.32;stroke-dashoffset:0;stroke-width:0.8;"/>
     </g>
     <g id="line2d_30">
      <g>
       <use style="stroke:#000000;stroke-width:0.8;" x="90" xlink:href="#m9b8e40f23a" y="179.1"/>
      </g>
     </g>
     <g id="text_16">
      <!-- 0.5 -->
      <g transform="translate(67.096875 182.899219)scale(0.1 -0.1)">
       <use xlink:href="#DejaVuSans-30"/>
       <use x="63.623047" xlink:href="#DejaVuSans-2e"/>
       <use x="95.410156" xlink:href="#DejaVuSans-35"/>
      </g>
     </g>
    </g>
    <g id="ytick_7">
     <g id="line2d_31">
      <path clip-path="url(#pcdfbd2ddba)" d="M 90 151.92 
L 648 151.92 
" style="fill:none;stroke:#000000;stroke-dasharray:0.8,1.32;stroke-dashoffset:0;stroke-width:0.8;"/>
     </g>
     <g id="line2d_32">
      <g>
       <use style="stroke:#000000;stroke-width:0.8;" x="90" xlink:href="#m9b8e40f23a" y="151.92"/>
      </g>
     </g>
     <g id="text_17">
      <!-- 0.6 -->
      <defs>
       <path d="M 33.015625 40.375 
Q 26.375 40.375 22.484375 35.828125 
Q 18.609375 31.296875 18.609375 23.390625 
Q 18.609375 15.53125 22.484375 10.953125 
Q 26.375 6.390625 33.015625 6.390625 
Q 39.65625 6.390625 43.53125 10.953125 
Q 47.40625 15.53125 47.40625 23.390625 
Q 47.40625 31.296875 43.53125 35.828125 
Q 39.65625 40.375 33.015625 40.375 
z
M 52.59375 71.296875 
L 52.59375 62.3125 
Q 48.875 64.0625 45.09375 64.984375 
Q 41.3125 65.921875 37.59375 65.921875 
Q 27.828125 65.921875 22.671875 59.328125 
Q 17.53125 52.734375 16.796875 39.40625 
Q 19.671875 43.65625 24.015625 45.921875 
Q 28.375 48.1875 33.59375 48.1875 
Q 44.578125 48.1875 50.953125 41.515625 
Q 57.328125 34.859375 57.328125 23.390625 
Q 57.328125 12.15625 50.6875 5.359375 
Q 44.046875 -1.421875 33.015625 -1.421875 
Q 20.359375 -1.421875 13.671875 8.265625 
Q 6.984375 17.96875 6.984375 36.375 
Q 6.984375 53.65625 15.1875 63.9375 
Q 23.390625 74.21875 37.203125 74.21875 
Q 40.921875 74.21875 44.703125 73.484375 
Q 48.484375 72.75 52.59375 71.296875 
z
" id="DejaVuSans-36"/>
      </defs>
      <g transform="translate(67.096875 155.719219)scale(0.1 -0.1)">
       <use xlink:href="#DejaVuSans-30"/>
       <use x="63.623047" xlink:href="#DejaVuSans-2e"/>
       <use x="95.410156" xlink:href="#DejaVuSans-36"/>
      </g>
     </g>
    </g>
    <g id="ytick_8">
     <g id="line2d_33">
      <path clip-path="url(#pcdfbd2ddba)" d="M 90 124.74 
L 648 124.74 
" style="fill:none;stroke:#000000;stroke-dasharray:0.8,1.32;stroke-dashoffset:0;stroke-width:0.8;"/>
     </g>
     <g id="line2d_34">
      <g>
       <use style="stroke:#000000;stroke-width:0.8;" x="90" xlink:href="#m9b8e40f23a" y="124.74"/>
      </g>
     </g>
     <g id="text_18">
      <!-- 0.7 -->
      <g transform="translate(67.096875 128.539219)scale(0.1 -0.1)">
       <use xlink:href="#DejaVuSans-30"/>
       <use x="63.623047" xlink:href="#DejaVuSans-2e"/>
       <use x="95.410156" xlink:href="#DejaVuSans-37"/>
      </g>
     </g>
    </g>
    <g id="ytick_9">
     <g id="line2d_35">
      <path clip-path="url(#pcdfbd2ddba)" d="M 90 97.56 
L 648 97.56 
" style="fill:none;stroke:#000000;stroke-dasharray:0.8,1.32;stroke-dashoffset:0;stroke-width:0.8;"/>
     </g>
     <g id="line2d_36">
      <g>
       <use style="stroke:#000000;stroke-width:0.8;" x="90" xlink:href="#m9b8e40f23a" y="97.56"/>
      </g>
     </g>
     <g id="text_19">
      <!-- 0.8 -->
      <defs>
       <path d="M 31.78125 34.625 
Q 24.75 34.625 20.71875 30.859375 
Q 16.703125 27.09375 16.703125 20.515625 
Q 16.703125 13.921875 20.71875 10.15625 
Q 24.75 6.390625 31.78125 6.390625 
Q 38.8125 6.390625 42.859375 10.171875 
Q 46.921875 13.96875 46.921875 20.515625 
Q 46.921875 27.09375 42.890625 30.859375 
Q 38.875 34.625 31.78125 34.625 
z
M 21.921875 38.8125 
Q 15.578125 40.375 12.03125 44.71875 
Q 8.5 49.078125 8.5 55.328125 
Q 8.5 64.0625 14.71875 69.140625 
Q 20.953125 74.21875 31.78125 74.21875 
Q 42.671875 74.21875 48.875 69.140625 
Q 55.078125 64.0625 55.078125 55.328125 
Q 55.078125 49.078125 51.53125 44.71875 
Q 48 40.375 41.703125 38.8125 
Q 48.828125 37.15625 52.796875 32.3125 
Q 56.78125 27.484375 56.78125 20.515625 
Q 56.78125 9.90625 50.3125 4.234375 
Q 43.84375 -1.421875 31.78125 -1.421875 
Q 19.734375 -1.421875 13.25 4.234375 
Q 6.78125 9.90625 6.78125 20.515625 
Q 6.78125 27.484375 10.78125 32.3125 
Q 14.796875 37.15625 21.921875 38.8125 
z
M 18.3125 54.390625 
Q 18.3125 48.734375 21.84375 45.5625 
Q 25.390625 42.390625 31.78125 42.390625 
Q 38.140625 42.390625 41.71875 45.5625 
Q 45.3125 48.734375 45.3125 54.390625 
Q 45.3125 60.0625 41.71875 63.234375 
Q 38.140625 66.40625 31.78125 66.40625 
Q 25.390625 66.40625 21.84375 63.234375 
Q 18.3125 60.0625 18.3125 54.390625 
z
" id="DejaVuSans-38"/>
      </defs>
      <g transform="translate(67.096875 101.359219)scale(0.1 -0.1)">
       <use xlink:href="#DejaVuSans-30"/>
       <use x="63.623047" xlink:href="#DejaVuSans-2e"/>
       <use x="95.410156" xlink:href="#DejaVuSans-38"/>
      </g>
     </g>
    </g>
    <g id="ytick_10">
     <g id="line2d_37">
      <path clip-path="url(#pcdfbd2ddba)" d="M 90 70.38 
L 648 70.38 
" style="fill:none;stroke:#000000;stroke-dasharray:0.8,1.32;stroke-dashoffset:0;stroke-width:0.8;"/>
     </g>
     <g id="line2d_38">
      <g>
       <use style="stroke:#000000;stroke-width:0.8;" x="90" xlink:href="#m9b8e40f23a" y="70.38"/>
      </g>
     </g>
     <g id="text_20">
      <!-- 0.9 -->
      <defs>
       <path d="M 10.984375 1.515625 
L 10.984375 10.5 
Q 14.703125 8.734375 18.5 7.8125 
Q 22.3125 6.890625 25.984375 6.890625 
Q 35.75 6.890625 40.890625 13.453125 
Q 46.046875 20.015625 46.78125 33.40625 
Q 43.953125 29.203125 39.59375 26.953125 
Q 35.25 24.703125 29.984375 24.703125 
Q 19.046875 24.703125 12.671875 31.3125 
Q 6.296875 37.9375 6.296875 49.421875 
Q 6.296875 60.640625 12.9375 67.421875 
Q 19.578125 74.21875 30.609375 74.21875 
Q 43.265625 74.21875 49.921875 64.515625 
Q 56.59375 54.828125 56.59375 36.375 
Q 56.59375 19.140625 48.40625 8.859375 
Q 40.234375 -1.421875 26.421875 -1.421875 
Q 22.703125 -1.421875 18.890625 -0.6875 
Q 15.09375 0.046875 10.984375 1.515625 
z
M 30.609375 32.421875 
Q 37.25 32.421875 41.125 36.953125 
Q 45.015625 41.5 45.015625 49.421875 
Q 45.015625 57.28125 41.125 61.84375 
Q 37.25 66.40625 30.609375 66.40625 
Q 23.96875 66.40625 20.09375 61.84375 
Q 16.21875 57.28125 16.21875 49.421875 
Q 16.21875 41.5 20.09375 36.953125 
Q 23.96875 32.421875 30.609375 32.421875 
z
" id="DejaVuSans-39"/>
      </defs>
      <g transform="translate(67.096875 74.179219)scale(0.1 -0.1)">
       <use xlink:href="#DejaVuSans-30"/>
       <use x="63.623047" xlink:href="#DejaVuSans-2e"/>
       <use x="95.410156" xlink:href="#DejaVuSans-39"/>
      </g>
     </g>
    </g>
    <g id="text_21">
     <!-- accuracy -->
     <defs>
      <path d="M 34.28125 27.484375 
Q 23.390625 27.484375 19.1875 25 
Q 14.984375 22.515625 14.984375 16.5 
Q 14.984375 11.71875 18.140625 8.90625 
Q 21.296875 6.109375 26.703125 6.109375 
Q 34.1875 6.109375 38.703125 11.40625 
Q 43.21875 16.703125 43.21875 25.484375 
L 43.21875 27.484375 
z
M 52.203125 31.203125 
L 52.203125 0 
L 43.21875 0 
L 43.21875 8.296875 
Q 40.140625 3.328125 35.546875 0.953125 
Q 30.953125 -1.421875 24.3125 -1.421875 
Q 15.921875 -1.421875 10.953125 3.296875 
Q 6 8.015625 6 15.921875 
Q 6 25.140625 12.171875 29.828125 
Q 18.359375 34.515625 30.609375 34.515625 
L 43.21875 34.515625 
L 43.21875 35.40625 
Q 43.21875 41.609375 39.140625 45 
Q 35.0625 48.390625 27.6875 48.390625 
Q 23 48.390625 18.546875 47.265625 
Q 14.109375 46.140625 10.015625 43.890625 
L 10.015625 52.203125 
Q 14.9375 54.109375 19.578125 55.046875 
Q 24.21875 56 28.609375 56 
Q 40.484375 56 46.34375 49.84375 
Q 52.203125 43.703125 52.203125 31.203125 
z
" id="DejaVuSans-61"/>
      <path d="M 8.5 21.578125 
L 8.5 54.6875 
L 17.484375 54.6875 
L 17.484375 21.921875 
Q 17.484375 14.15625 20.5 10.265625 
Q 23.53125 6.390625 29.59375 6.390625 
Q 36.859375 6.390625 41.078125 11.03125 
Q 45.3125 15.671875 45.3125 23.6875 
L 45.3125 54.6875 
L 54.296875 54.6875 
L 54.296875 0 
L 45.3125 0 
L 45.3125 8.40625 
Q 42.046875 3.421875 37.71875 1 
Q 33.40625 -1.421875 27.6875 -1.421875 
Q 18.265625 -1.421875 13.375 4.4375 
Q 8.5 10.296875 8.5 21.578125 
z
M 31.109375 56 
z
" id="DejaVuSans-75"/>
      <path d="M 41.109375 46.296875 
Q 39.59375 47.171875 37.8125 47.578125 
Q 36.03125 48 33.890625 48 
Q 26.265625 48 22.1875 43.046875 
Q 18.109375 38.09375 18.109375 28.8125 
L 18.109375 0 
L 9.078125 0 
L 9.078125 54.6875 
L 18.109375 54.6875 
L 18.109375 46.1875 
Q 20.953125 51.171875 25.484375 53.578125 
Q 30.03125 56 36.53125 56 
Q 37.453125 56 38.578125 55.875 
Q 39.703125 55.765625 41.0625 55.515625 
z
" id="DejaVuSans-72"/>
      <path d="M 32.171875 -5.078125 
Q 28.375 -14.84375 24.75 -17.8125 
Q 21.140625 -20.796875 15.09375 -20.796875 
L 7.90625 -20.796875 
L 7.90625 -13.28125 
L 13.1875 -13.28125 
Q 16.890625 -13.28125 18.9375 -11.515625 
Q 21 -9.765625 23.484375 -3.21875 
L 25.09375 0.875 
L 2.984375 54.6875 
L 12.5 54.6875 
L 29.59375 11.921875 
L 46.6875 54.6875 
L 56.203125 54.6875 
z
" id="DejaVuSans-79"/>
     </defs>
     <g transform="translate(61.017187 201.659375)rotate(-90)scale(0.1 -0.1)">
      <use xlink:href="#DejaVuSans-61"/>
      <use x="61.279297" xlink:href="#DejaVuSans-63"/>
      <use x="116.259766" xlink:href="#DejaVuSans-63"/>
      <use x="171.240234" xlink:href="#DejaVuSans-75"/>
      <use x="234.619141" xlink:href="#DejaVuSans-72"/>
      <use x="275.732422" xlink:href="#DejaVuSans-61"/>
      <use x="337.011719" xlink:href="#DejaVuSans-63"/>
      <use x="391.992188" xlink:href="#DejaVuSans-79"/>
     </g>
    </g>
   </g>
   <g id="line2d_39">
    <path clip-path="url(#pcdfbd2ddba)" d="M 115.363636 203.15885 
L 115.6174 138.134936 
L 115.871163 199.25742 
L 116.124926 138.134936 
L 116.378689 197.956937 
L 116.632453 138.134936 
L 116.886216 196.656463 
L 117.139979 138.134936 
L 117.393742 188.853585 
L 117.647506 138.134936 
L 117.901269 187.553111 
L 118.155032 138.134936 
L 118.408795 187.553111 
L 118.662559 138.134936 
L 118.916322 184.952154 
L 119.170085 138.134936 
L 119.423848 184.952154 
L 119.677612 138.134936 
L 119.931375 183.651672 
L 120.185138 138.134936 
L 120.438901 179.750241 
L 120.692665 138.134936 
L 120.946428 178.449759 
L 121.200191 138.134936 
L 121.453954 177.149276 
L 121.707717 138.134936 
L 121.961481 175.84881 
L 122.215244 138.134936 
L 122.469007 173.247846 
L 122.72277 138.134936 
L 122.976534 168.045932 
L 123.230297 138.134936 
L 123.48406 166.74545 
L 123.737823 138.134936 
L 123.991587 164.144502 
L 124.24535 138.134936 
L 124.499113 164.144502 
L 124.752876 138.134936 
L 125.00664 160.243055 
L 125.260403 138.134936 
L 125.514166 160.243055 
L 125.767929 138.134936 
L 126.021693 158.942588 
L 126.275456 138.134936 
L 126.529219 155.041141 
L 126.782982 138.134936 
L 127.036746 152.440193 
L 127.290509 138.134936 
L 127.544272 151.139711 
L 127.798035 138.134936 
L 128.051799 151.139711 
L 128.305562 138.134936 
L 128.559325 148.538762 
L 128.813088 136.834453 
L 129.066852 144.637315 
L 129.320615 136.834453 
L 129.574378 145.937797 
L 129.828141 135.533971 
L 130.081905 144.637315 
L 130.335668 135.533971 
L 130.589431 142.036367 
L 130.843194 135.533971 
L 131.096958 142.036367 
L 131.350721 135.533971 
L 131.604484 142.036367 
L 131.858247 134.233489 
L 132.112011 140.735884 
L 132.365774 134.233489 
L 132.619537 138.134936 
L 132.8733 134.233489 
L 133.127064 138.134936 
L 133.380827 134.233489 
L 133.63459 136.834453 
L 133.888353 134.233489 
L 134.142117 132.933006 
L 134.39588 134.233489 
L 134.649643 130.332058 
L 134.903406 134.233489 
L 135.157169 130.332058 
L 135.410933 134.233489 
L 135.664696 130.332058 
L 135.918459 134.233489 
L 136.172222 130.332058 
L 136.425986 134.233489 
L 136.679749 130.332058 
L 136.933512 134.233489 
L 137.187275 130.332058 
L 137.441039 134.233489 
L 137.694802 130.332058 
L 137.948565 134.233489 
L 138.202328 130.332058 
L 138.456092 134.233489 
L 138.709855 129.031576 
L 138.963618 134.233489 
L 139.217381 129.031576 
L 139.471145 134.233489 
L 139.724908 127.731093 
L 139.978671 134.233489 
L 140.232434 126.430627 
L 140.486198 134.233489 
L 140.739961 125.130145 
L 140.993724 134.233489 
L 141.247487 125.130145 
L 141.501251 132.933006 
L 141.755014 123.829662 
L 142.008777 132.933006 
L 142.26254 123.829662 
L 142.516304 130.332058 
L 142.770067 123.829662 
L 143.02383 129.031576 
L 143.277593 123.829662 
L 143.531357 127.731093 
L 143.78512 123.829662 
L 144.038883 127.731093 
L 144.292646 123.829662 
L 144.54641 126.430627 
L 144.800173 123.829662 
L 145.053936 125.130145 
L 146.576516 125.130145 
L 146.830279 123.829662 
L 147.084042 125.130145 
L 147.337805 123.829662 
L 147.591569 125.130145 
L 147.845332 123.829662 
L 148.099095 125.130145 
L 148.352858 122.52918 
L 148.606621 125.130145 
L 148.860385 122.52918 
L 149.114148 125.130145 
L 149.367911 121.228714 
L 149.621674 123.829662 
L 149.875438 119.928232 
L 150.129201 123.829662 
L 150.382964 118.627749 
L 150.636727 123.829662 
L 150.890491 117.327267 
L 151.144254 123.829662 
L 151.398017 116.026801 
L 151.65178 123.829662 
L 151.905544 114.726318 
L 152.159307 123.829662 
L 152.41307 113.425836 
L 152.666833 123.829662 
L 152.920597 113.425836 
L 153.17436 123.829662 
L 153.428123 112.125354 
L 153.681886 123.829662 
L 153.93565 110.824888 
L 154.189413 123.829662 
L 154.443176 110.824888 
L 154.696939 123.829662 
L 154.950703 110.824888 
L 155.204466 123.829662 
L 155.458229 109.524405 
L 155.711992 122.52918 
L 155.965756 108.223923 
L 156.219519 121.228714 
L 156.473282 108.223923 
L 156.727045 121.228714 
L 156.980809 108.223923 
L 157.234572 121.228714 
L 157.488335 108.223923 
L 157.742098 118.627749 
L 157.995862 108.223923 
L 158.249625 117.327267 
L 158.503388 108.223923 
L 158.757151 117.327267 
L 159.010915 106.92344 
L 159.264678 117.327267 
L 159.518441 105.622974 
L 159.772204 117.327267 
L 160.025968 104.322492 
L 160.279731 117.327267 
L 160.533494 104.322492 
L 160.787257 116.026801 
L 161.041021 101.721527 
L 161.294784 116.026801 
L 161.548547 101.721527 
L 161.80231 114.726318 
L 162.056073 101.721527 
L 162.309837 114.726318 
L 162.5636 101.721527 
L 162.817363 114.726318 
L 163.071126 101.721527 
L 163.32489 114.726318 
L 163.578653 101.721527 
L 163.832416 113.425836 
L 164.086179 101.721527 
L 164.339943 113.425836 
L 164.593706 101.721527 
L 164.847469 113.425836 
L 165.101232 101.721527 
L 165.354996 113.425836 
L 165.608759 101.721527 
L 165.862522 113.425836 
L 166.116285 100.421045 
L 166.370049 113.425836 
L 166.623812 100.421045 
L 166.877575 113.425836 
L 167.131338 100.421045 
L 167.385102 113.425836 
L 167.638865 99.120579 
L 167.892628 113.425836 
L 168.146391 99.120579 
L 168.400155 113.425836 
L 168.653918 96.519614 
L 168.907681 113.425836 
L 169.161444 95.219132 
L 169.415208 113.425836 
L 169.668971 95.219132 
L 169.922734 110.824888 
L 170.176497 95.219132 
L 170.430261 110.824888 
L 170.684024 91.317701 
L 170.937787 110.824888 
L 171.19155 91.317701 
L 171.445314 110.824888 
L 171.699077 90.017219 
L 171.95284 110.824888 
L 172.206603 88.716752 
L 172.460367 110.824888 
L 172.71413 88.716752 
L 172.967893 110.824888 
L 173.221656 87.41627 
L 173.47542 110.824888 
L 173.729183 87.41627 
L 173.982946 110.824888 
L 174.236709 86.115788 
L 174.490473 109.524405 
L 174.744236 84.815305 
L 174.997999 109.524405 
L 175.251762 84.815305 
L 175.505525 109.524405 
L 175.759289 82.214357 
L 176.013052 108.223923 
L 176.266815 82.214357 
L 176.520578 106.92344 
L 176.774342 82.214357 
L 177.028105 105.622974 
L 177.281868 82.214357 
L 177.535631 104.322492 
L 177.789395 82.214357 
L 178.043158 104.322492 
L 178.296921 82.214357 
L 178.550684 104.322492 
L 178.804448 82.214357 
L 179.058211 104.322492 
L 179.311974 80.913875 
L 179.565737 104.322492 
L 179.819501 79.613392 
L 180.073264 104.322492 
L 180.327027 79.613392 
L 180.58079 103.02201 
L 180.834554 78.312926 
L 181.088317 101.721527 
L 181.34208 78.312926 
L 181.595843 101.721527 
L 181.849607 78.312926 
L 182.10337 101.721527 
L 182.357133 77.012444 
L 182.610896 101.721527 
L 182.86466 75.711961 
L 183.118423 100.421045 
L 183.372186 74.411479 
L 183.625949 99.120579 
L 183.879713 74.411479 
L 184.133476 97.820096 
L 184.387239 73.110997 
L 184.641002 97.820096 
L 184.894766 73.110997 
L 185.148529 97.820096 
L 185.402292 73.110997 
L 185.656055 97.820096 
L 185.909819 71.810531 
L 186.163582 93.918666 
L 186.417345 71.810531 
L 186.671108 90.017219 
L 186.924872 70.510048 
L 187.178635 88.716752 
L 187.432398 70.510048 
L 187.686161 88.716752 
L 187.939925 70.510048 
L 188.193688 90.017219 
L 188.447451 67.909084 
L 188.701214 90.017219 
L 188.954977 67.909084 
L 189.208741 87.41627 
L 189.462504 67.909084 
L 189.716267 86.115788 
L 189.97003 69.209566 
L 190.223794 83.514839 
L 190.477557 69.209566 
L 190.73132 83.514839 
L 190.985083 67.909084 
L 191.238847 82.214357 
L 191.49261 67.909084 
L 191.746373 80.913875 
L 192.000136 67.909084 
L 192.2539 79.613392 
L 192.507663 67.909084 
L 192.761426 79.613392 
L 193.015189 69.209566 
L 193.268953 78.312926 
L 193.522716 70.510048 
L 193.776479 78.312926 
L 194.030242 70.510048 
L 194.284006 79.613392 
L 194.537769 70.510048 
L 194.791532 79.613392 
L 195.045295 69.209566 
L 195.299059 77.012444 
L 195.552822 69.209566 
L 195.806585 77.012444 
L 196.060348 69.209566 
L 196.314112 75.711961 
L 196.567875 70.510048 
L 196.821638 75.711961 
L 197.075401 67.909084 
L 197.329165 75.711961 
L 197.582928 67.909084 
L 197.836691 75.711961 
L 198.090454 67.909084 
L 198.344218 77.012444 
L 198.597981 67.909084 
L 198.851744 77.012444 
L 199.105507 67.909084 
L 199.359271 75.711961 
L 199.613034 69.209566 
L 199.866797 74.411479 
L 200.12056 67.909084 
L 200.374324 74.411479 
L 200.628087 67.909084 
L 200.88185 74.411479 
L 201.135613 67.909084 
L 201.389377 74.411479 
L 201.64314 67.909084 
L 201.896903 73.110997 
L 202.150666 67.909084 
L 202.404429 73.110997 
L 202.658193 69.209566 
L 202.911956 73.110997 
L 203.165719 70.510048 
L 203.419482 71.810531 
L 203.673246 70.510048 
L 203.927009 71.810531 
L 204.180772 70.510048 
L 204.434535 71.810531 
L 204.688299 70.510048 
L 204.942062 71.810531 
L 205.195825 70.510048 
L 205.449588 73.110997 
L 205.703352 70.510048 
L 205.957115 73.110997 
L 206.210878 70.510048 
L 206.464641 73.110997 
L 206.718405 70.510048 
L 206.972168 71.810531 
L 207.225931 70.510048 
L 210.017327 70.510048 
L 210.27109 69.209566 
L 210.524853 70.510048 
L 210.778617 69.209566 
L 211.03238 70.510048 
L 211.286143 69.209566 
L 211.539906 70.510048 
L 211.79367 69.209566 
L 212.047433 70.510048 
L 212.301196 69.209566 
L 212.554959 70.510048 
L 212.808723 69.209566 
L 213.062486 70.510048 
L 213.316249 69.209566 
L 215.346355 69.209566 
L 215.853881 66.608617 
L 216.107645 66.608617 
L 216.361408 65.308135 
L 216.615171 66.608617 
L 216.868934 65.308135 
L 218.137751 65.308135 
L 218.391514 64.007653 
L 219.66033 64.007653 
L 219.914093 62.70717 
L 225.243122 62.70717 
L 225.496885 61.406704 
L 252.649552 61.406704 
L 252.903315 60.106222 
L 262.800082 60.106222 
L 263.053845 58.80574 
L 283.101141 58.80574 
L 283.354905 57.505257 
L 300.357042 57.505257 
L 300.610805 56.204791 
L 312.283915 56.204791 
L 312.537678 54.904309 
L 382.576334 54.904309 
L 382.830097 53.603826 
L 396.025786 53.603826 
L 396.279549 52.303344 
L 434.344036 52.303344 
L 434.597799 51.002878 
L 460.735413 51.002878 
L 460.989176 49.702396 
L 483.320342 49.702396 
L 483.574105 48.401913 
L 526.20633 48.401913 
L 526.460094 47.101431 
L 622.636364 47.101431 
L 622.636364 47.101431 
" style="fill:none;opacity:0.7;stroke:#1976d2;stroke-linecap:square;"/>
   </g>
   <g id="line2d_40">
    <path clip-path="url(#pcdfbd2ddba)" d="M 115.363636 222.587999 
L 115.6174 130.175998 
L 115.871163 222.587999 
L 116.124926 130.175998 
L 116.378689 222.587999 
L 116.632453 130.175998 
L 116.886216 222.587999 
L 117.139979 124.740003 
L 117.393742 222.587999 
L 117.647506 119.303992 
L 117.901269 222.587999 
L 118.155032 119.303992 
L 118.408795 222.587999 
L 118.662559 119.303992 
L 118.916322 222.587999 
L 119.170085 119.303992 
L 119.423848 222.587999 
L 119.677612 119.303992 
L 119.931375 222.587999 
L 120.185138 119.303992 
L 120.438901 222.587999 
L 120.692665 113.867997 
L 120.946428 222.587999 
L 121.200191 113.867997 
L 121.453954 222.587999 
L 121.707717 113.867997 
L 121.961481 222.587999 
L 122.215244 113.867997 
L 122.469007 222.587999 
L 122.72277 108.432003 
L 122.976534 222.587999 
L 123.230297 108.432003 
L 123.48406 222.587999 
L 123.737823 108.432003 
L 123.991587 222.587999 
L 124.24535 108.432003 
L 124.499113 222.587999 
L 124.752876 108.432003 
L 125.00664 222.587999 
L 125.260403 108.432003 
L 125.514166 222.587999 
L 125.767929 108.432003 
L 126.021693 222.587999 
L 126.275456 108.432003 
L 126.529219 222.587999 
L 126.782982 108.432003 
L 127.036746 222.587999 
L 127.290509 108.432003 
L 127.544272 217.151996 
L 127.798035 108.432003 
L 128.051799 217.151996 
L 128.305562 97.559997 
L 128.559325 217.151996 
L 128.813088 97.559997 
L 129.066852 217.151996 
L 129.320615 97.559997 
L 129.574378 217.151996 
L 129.828141 97.559997 
L 130.081905 217.151996 
L 130.335668 97.559997 
L 130.589431 217.151996 
L 130.843194 97.559997 
L 131.096958 217.151996 
L 131.350721 97.559997 
L 131.604484 217.151996 
L 131.858247 97.559997 
L 132.112011 217.151996 
L 132.365774 97.559997 
L 132.619537 217.151996 
L 132.8733 97.559997 
L 133.127064 217.151996 
L 133.380827 97.559997 
L 133.63459 217.151996 
L 133.888353 97.559997 
L 134.142117 217.151996 
L 134.39588 97.559997 
L 134.649643 217.151996 
L 134.903406 97.559997 
L 135.157169 217.151996 
L 135.410933 97.559997 
L 135.664696 217.151996 
L 135.918459 92.124002 
L 136.172222 217.151996 
L 136.425986 92.124002 
L 136.679749 217.151996 
L 136.933512 92.124002 
L 137.187275 217.151996 
L 137.441039 92.124002 
L 137.694802 217.151996 
L 137.948565 92.124002 
L 138.202328 217.151996 
L 138.456092 92.124002 
L 138.709855 217.151996 
L 138.963618 92.124002 
L 139.217381 217.151996 
L 139.471145 92.124002 
L 139.724908 217.151996 
L 139.978671 97.559997 
L 140.232434 217.151996 
L 140.486198 97.559997 
L 140.739961 217.151996 
L 140.993724 97.559997 
L 141.247487 217.151996 
L 141.501251 102.996008 
L 141.755014 211.716001 
L 142.008777 102.996008 
L 142.26254 211.716001 
L 142.516304 102.996008 
L 142.770067 211.716001 
L 143.02383 102.996008 
L 143.277593 211.716001 
L 143.531357 102.996008 
L 143.78512 211.716001 
L 144.038883 102.996008 
L 144.292646 211.716001 
L 144.54641 102.996008 
L 144.800173 217.151996 
L 145.053936 102.996008 
L 145.307699 217.151996 
L 145.561463 108.432003 
L 145.815226 217.151996 
L 146.068989 108.432003 
L 146.322752 217.151996 
L 146.576516 108.432003 
L 146.830279 217.151996 
L 147.084042 108.432003 
L 147.337805 217.151996 
L 147.591569 108.432003 
L 147.845332 217.151996 
L 148.099095 108.432003 
L 148.352858 217.151996 
L 148.606621 108.432003 
L 148.860385 217.151996 
L 149.114148 108.432003 
L 149.367911 222.587999 
L 149.621674 108.432003 
L 149.875438 222.587999 
L 150.129201 108.432003 
L 150.382964 222.587999 
L 150.636727 108.432003 
L 150.890491 222.587999 
L 151.144254 102.996008 
L 151.398017 222.587999 
L 151.65178 102.996008 
L 151.905544 217.151996 
L 152.159307 102.996008 
L 152.41307 217.151996 
L 152.666833 102.996008 
L 152.920597 217.151996 
L 153.17436 102.996008 
L 153.428123 217.151996 
L 153.681886 102.996008 
L 153.93565 217.151996 
L 154.189413 102.996008 
L 154.443176 217.151996 
L 154.696939 102.996008 
L 154.950703 211.716001 
L 155.204466 102.996008 
L 155.458229 211.716001 
L 155.711992 102.996008 
L 155.965756 211.716001 
L 156.219519 102.996008 
L 156.473282 211.716001 
L 156.727045 102.996008 
L 156.980809 211.716001 
L 157.234572 102.996008 
L 157.488335 211.716001 
L 157.742098 102.996008 
L 157.995862 211.716001 
L 158.249625 102.996008 
L 158.503388 211.716001 
L 158.757151 102.996008 
L 159.010915 211.716001 
L 159.264678 102.996008 
L 159.518441 211.716001 
L 159.772204 102.996008 
L 160.025968 211.716001 
L 160.279731 102.996008 
L 160.533494 211.716001 
L 160.787257 102.996008 
L 161.041021 211.716001 
L 161.294784 102.996008 
L 161.548547 211.716001 
L 161.80231 102.996008 
L 162.056073 211.716001 
L 162.309837 102.996008 
L 162.5636 211.716001 
L 162.817363 102.996008 
L 163.071126 211.716001 
L 163.32489 102.996008 
L 163.578653 206.279998 
L 163.832416 102.996008 
L 164.086179 195.408001 
L 164.339943 102.996008 
L 164.593706 195.408001 
L 164.847469 102.996008 
L 165.101232 195.408001 
L 165.354996 102.996008 
L 165.608759 195.408001 
L 165.862522 102.996008 
L 166.116285 195.408001 
L 166.370049 102.996008 
L 166.623812 195.408001 
L 166.877575 102.996008 
L 167.131338 195.408001 
L 167.385102 102.996008 
L 167.638865 189.971998 
L 167.892628 102.996008 
L 168.146391 189.971998 
L 168.400155 108.432003 
L 168.653918 189.971998 
L 168.907681 108.432003 
L 169.161444 189.971998 
L 169.415208 108.432003 
L 169.668971 184.536003 
L 169.922734 108.432003 
L 170.176497 184.536003 
L 170.430261 108.432003 
L 170.684024 184.536003 
L 170.937787 108.432003 
L 171.19155 184.536003 
L 171.445314 108.432003 
L 171.699077 184.536003 
L 171.95284 108.432003 
L 172.206603 184.536003 
L 172.460367 108.432003 
L 172.71413 184.536003 
L 172.967893 108.432003 
L 173.221656 184.536003 
L 173.47542 108.432003 
L 173.729183 184.536003 
L 173.982946 108.432003 
L 174.236709 184.536003 
L 174.490473 108.432003 
L 174.744236 179.1 
L 174.997999 108.432003 
L 175.251762 179.1 
L 175.505525 108.432003 
L 175.759289 179.1 
L 176.013052 108.432003 
L 176.266815 179.1 
L 176.520578 108.432003 
L 176.774342 179.1 
L 177.028105 108.432003 
L 177.281868 179.1 
L 177.535631 108.432003 
L 177.789395 173.664005 
L 178.043158 113.867997 
L 178.296921 173.664005 
L 178.550684 113.867997 
L 178.804448 173.664005 
L 179.058211 113.867997 
L 179.311974 173.664005 
L 179.565737 113.867997 
L 179.819501 173.664005 
L 180.073264 113.867997 
L 180.327027 173.664005 
L 180.58079 113.867997 
L 180.834554 179.1 
L 181.088317 113.867997 
L 181.34208 179.1 
L 181.595843 113.867997 
L 181.849607 179.1 
L 182.10337 113.867997 
L 182.357133 179.1 
L 182.610896 113.867997 
L 182.86466 179.1 
L 183.118423 119.303992 
L 183.372186 179.1 
L 183.625949 119.303992 
L 183.879713 173.664005 
L 184.133476 119.303992 
L 184.387239 173.664005 
L 184.641002 119.303992 
L 184.894766 173.664005 
L 185.148529 119.303992 
L 185.402292 168.227994 
L 185.656055 119.303992 
L 185.909819 168.227994 
L 186.163582 119.303992 
L 186.417345 168.227994 
L 186.671108 119.303992 
L 186.924872 162.791999 
L 187.178635 119.303992 
L 187.432398 162.791999 
L 187.686161 119.303992 
L 187.939925 157.356005 
L 188.193688 119.303992 
L 188.447451 151.919994 
L 188.701214 119.303992 
L 188.954977 151.919994 
L 189.208741 119.303992 
L 189.462504 151.919994 
L 189.716267 119.303992 
L 189.97003 146.483999 
L 190.223794 119.303992 
L 190.477557 146.483999 
L 190.73132 119.303992 
L 190.985083 146.483999 
L 191.238847 124.740003 
L 191.49261 146.483999 
L 191.746373 124.740003 
L 192.000136 146.483999 
L 192.2539 124.740003 
L 192.507663 146.483999 
L 192.761426 130.175998 
L 193.015189 141.048004 
L 193.268953 130.175998 
L 193.522716 141.048004 
L 193.776479 130.175998 
L 194.030242 135.611993 
L 194.284006 130.175998 
L 194.537769 135.611993 
L 194.791532 130.175998 
L 195.045295 135.611993 
L 195.299059 130.175998 
L 195.552822 135.611993 
L 195.806585 130.175998 
L 196.060348 135.611993 
L 196.314112 130.175998 
L 196.567875 135.611993 
L 199.359271 135.611993 
L 199.613034 141.048004 
L 199.866797 135.611993 
L 200.12056 141.048004 
L 200.374324 135.611993 
L 200.628087 141.048004 
L 200.88185 135.611993 
L 201.135613 141.048004 
L 201.389377 135.611993 
L 201.64314 141.048004 
L 201.896903 135.611993 
L 202.150666 141.048004 
L 202.404429 135.611993 
L 202.658193 141.048004 
L 202.911956 135.611993 
L 203.165719 141.048004 
L 203.419482 141.048004 
L 203.673246 135.611993 
L 203.927009 141.048004 
L 204.180772 135.611993 
L 204.434535 141.048004 
L 239.2001 141.048004 
L 239.453863 135.611993 
L 272.189322 135.611993 
L 272.443085 141.048004 
L 274.726954 141.048004 
L 274.980718 135.611993 
L 276.249534 135.611993 
L 276.503297 130.175998 
L 292.490382 130.175998 
L 292.744145 124.740003 
L 622.636364 124.740003 
L 622.636364 124.740003 
" style="fill:none;opacity:0.7;stroke:#ff9800;stroke-linecap:square;"/>
   </g>
   <g id="patch_3">
    <path d="M 90 315 
L 90 43.2 
" style="fill:none;stroke:#000000;stroke-linecap:square;stroke-linejoin:miter;stroke-width:0.8;"/>
   </g>
   <g id="patch_4">
    <path d="M 648 315 
L 648 43.2 
" style="fill:none;stroke:#000000;stroke-linecap:square;stroke-linejoin:miter;stroke-width:0.8;"/>
   </g>
   <g id="patch_5">
    <path d="M 90 315 
L 648 315 
" style="fill:none;stroke:#000000;stroke-linecap:square;stroke-linejoin:miter;stroke-width:0.8;"/>
   </g>
   <g id="patch_6">
    <path d="M 90 43.2 
L 648 43.2 
" style="fill:none;stroke:#000000;stroke-linecap:square;stroke-linejoin:miter;stroke-width:0.8;"/>
   </g>
   <g id="text_22">
    <!-- Model accuracy -->
    <defs>
     <path d="M 9.8125 72.90625 
L 24.515625 72.90625 
L 43.109375 23.296875 
L 61.8125 72.90625 
L 76.515625 72.90625 
L 76.515625 0 
L 66.890625 0 
L 66.890625 64.015625 
L 48.09375 14.015625 
L 38.1875 14.015625 
L 19.390625 64.015625 
L 19.390625 0 
L 9.8125 0 
z
" id="DejaVuSans-4d"/>
     <path d="M 45.40625 46.390625 
L 45.40625 75.984375 
L 54.390625 75.984375 
L 54.390625 0 
L 45.40625 0 
L 45.40625 8.203125 
Q 42.578125 3.328125 38.25 0.953125 
Q 33.9375 -1.421875 27.875 -1.421875 
Q 17.96875 -1.421875 11.734375 6.484375 
Q 5.515625 14.40625 5.515625 27.296875 
Q 5.515625 40.1875 11.734375 48.09375 
Q 17.96875 56 27.875 56 
Q 33.9375 56 38.25 53.625 
Q 42.578125 51.265625 45.40625 46.390625 
z
M 14.796875 27.296875 
Q 14.796875 17.390625 18.875 11.75 
Q 22.953125 6.109375 30.078125 6.109375 
Q 37.203125 6.109375 41.296875 11.75 
Q 45.40625 17.390625 45.40625 27.296875 
Q 45.40625 37.203125 41.296875 42.84375 
Q 37.203125 48.484375 30.078125 48.484375 
Q 22.953125 48.484375 18.875 42.84375 
Q 14.796875 37.203125 14.796875 27.296875 
z
" id="DejaVuSans-64"/>
     <path d="M 9.421875 75.984375 
L 18.40625 75.984375 
L 18.40625 0 
L 9.421875 0 
z
" id="DejaVuSans-6c"/>
     <path id="DejaVuSans-20"/>
    </defs>
    <g transform="translate(322.005938 23.762625)scale(0.12 -0.12)">
     <use xlink:href="#DejaVuSans-4d"/>
     <use x="86.279297" xlink:href="#DejaVuSans-6f"/>
     <use x="147.460938" xlink:href="#DejaVuSans-64"/>
     <use x="210.9375" xlink:href="#DejaVuSans-65"/>
     <use x="272.460938" xlink:href="#DejaVuSans-6c"/>
     <use x="300.244141" xlink:href="#DejaVuSans-20"/>
     <use x="332.03125" xlink:href="#DejaVuSans-61"/>
     <use x="393.310547" xlink:href="#DejaVuSans-63"/>
     <use x="448.291016" xlink:href="#DejaVuSans-63"/>
     <use x="503.271484" xlink:href="#DejaVuSans-75"/>
     <use x="566.650391" xlink:href="#DejaVuSans-72"/>
     <use x="607.763672" xlink:href="#DejaVuSans-61"/>
     <use x="669.042969" xlink:href="#DejaVuSans-63"/>
     <use x="724.023438" xlink:href="#DejaVuSans-79"/>
    </g>
    <!-- Modified course assignment results -->
    <defs>
     <path d="M 9.421875 54.6875 
L 18.40625 54.6875 
L 18.40625 0 
L 9.421875 0 
z
M 9.421875 75.984375 
L 18.40625 75.984375 
L 18.40625 64.59375 
L 9.421875 64.59375 
z
" id="DejaVuSans-69"/>
     <path d="M 37.109375 75.984375 
L 37.109375 68.5 
L 28.515625 68.5 
Q 23.6875 68.5 21.796875 66.546875 
Q 19.921875 64.59375 19.921875 59.515625 
L 19.921875 54.6875 
L 34.71875 54.6875 
L 34.71875 47.703125 
L 19.921875 47.703125 
L 19.921875 0 
L 10.890625 0 
L 10.890625 47.703125 
L 2.296875 47.703125 
L 2.296875 54.6875 
L 10.890625 54.6875 
L 10.890625 58.5 
Q 10.890625 67.625 15.140625 71.796875 
Q 19.390625 75.984375 28.609375 75.984375 
z
" id="DejaVuSans-66"/>
     <path d="M 44.28125 53.078125 
L 44.28125 44.578125 
Q 40.484375 46.53125 36.375 47.5 
Q 32.28125 48.484375 27.875 48.484375 
Q 21.1875 48.484375 17.84375 46.4375 
Q 14.5 44.390625 14.5 40.28125 
Q 14.5 37.15625 16.890625 35.375 
Q 19.28125 33.59375 26.515625 31.984375 
L 29.59375 31.296875 
Q 39.15625 29.25 43.1875 25.515625 
Q 47.21875 21.78125 47.21875 15.09375 
Q 47.21875 7.46875 41.1875 3.015625 
Q 35.15625 -1.421875 24.609375 -1.421875 
Q 20.21875 -1.421875 15.453125 -0.5625 
Q 10.6875 0.296875 5.421875 2 
L 5.421875 11.28125 
Q 10.40625 8.6875 15.234375 7.390625 
Q 20.0625 6.109375 24.8125 6.109375 
Q 31.15625 6.109375 34.5625 8.28125 
Q 37.984375 10.453125 37.984375 14.40625 
Q 37.984375 18.0625 35.515625 20.015625 
Q 33.0625 21.96875 24.703125 23.78125 
L 21.578125 24.515625 
Q 13.234375 26.265625 9.515625 29.90625 
Q 5.8125 33.546875 5.8125 39.890625 
Q 5.8125 47.609375 11.28125 51.796875 
Q 16.75 56 26.8125 56 
Q 31.78125 56 36.171875 55.265625 
Q 40.578125 54.546875 44.28125 53.078125 
z
" id="DejaVuSans-73"/>
     <path d="M 45.40625 27.984375 
Q 45.40625 37.75 41.375 43.109375 
Q 37.359375 48.484375 30.078125 48.484375 
Q 22.859375 48.484375 18.828125 43.109375 
Q 14.796875 37.75 14.796875 27.984375 
Q 14.796875 18.265625 18.828125 12.890625 
Q 22.859375 7.515625 30.078125 7.515625 
Q 37.359375 7.515625 41.375 12.890625 
Q 45.40625 18.265625 45.40625 27.984375 
z
M 54.390625 6.78125 
Q 54.390625 -7.171875 48.1875 -13.984375 
Q 42 -20.796875 29.203125 -20.796875 
Q 24.46875 -20.796875 20.265625 -20.09375 
Q 16.0625 -19.390625 12.109375 -17.921875 
L 12.109375 -9.1875 
Q 16.0625 -11.328125 19.921875 -12.34375 
Q 23.78125 -13.375 27.78125 -13.375 
Q 36.625 -13.375 41.015625 -8.765625 
Q 45.40625 -4.15625 45.40625 5.171875 
L 45.40625 9.625 
Q 42.625 4.78125 38.28125 2.390625 
Q 33.9375 0 27.875 0 
Q 17.828125 0 11.671875 7.65625 
Q 5.515625 15.328125 5.515625 27.984375 
Q 5.515625 40.671875 11.671875 48.328125 
Q 17.828125 56 27.875 56 
Q 33.9375 56 38.28125 53.609375 
Q 42.625 51.21875 45.40625 46.390625 
L 45.40625 54.6875 
L 54.390625 54.6875 
z
" id="DejaVuSans-67"/>
     <path d="M 54.890625 33.015625 
L 54.890625 0 
L 45.90625 0 
L 45.90625 32.71875 
Q 45.90625 40.484375 42.875 44.328125 
Q 39.84375 48.1875 33.796875 48.1875 
Q 26.515625 48.1875 22.3125 43.546875 
Q 18.109375 38.921875 18.109375 30.90625 
L 18.109375 0 
L 9.078125 0 
L 9.078125 54.6875 
L 18.109375 54.6875 
L 18.109375 46.1875 
Q 21.34375 51.125 25.703125 53.5625 
Q 30.078125 56 35.796875 56 
Q 45.21875 56 50.046875 50.171875 
Q 54.890625 44.34375 54.890625 33.015625 
z
" id="DejaVuSans-6e"/>
     <path d="M 52 44.1875 
Q 55.375 50.25 60.0625 53.125 
Q 64.75 56 71.09375 56 
Q 79.640625 56 84.28125 50.015625 
Q 88.921875 44.046875 88.921875 33.015625 
L 88.921875 0 
L 79.890625 0 
L 79.890625 32.71875 
Q 79.890625 40.578125 77.09375 44.375 
Q 74.3125 48.1875 68.609375 48.1875 
Q 61.625 48.1875 57.5625 43.546875 
Q 53.515625 38.921875 53.515625 30.90625 
L 53.515625 0 
L 44.484375 0 
L 44.484375 32.71875 
Q 44.484375 40.625 41.703125 44.40625 
Q 38.921875 48.1875 33.109375 48.1875 
Q 26.21875 48.1875 22.15625 43.53125 
Q 18.109375 38.875 18.109375 30.90625 
L 18.109375 0 
L 9.078125 0 
L 9.078125 54.6875 
L 18.109375 54.6875 
L 18.109375 46.1875 
Q 21.1875 51.21875 25.484375 53.609375 
Q 29.78125 56 35.6875 56 
Q 41.65625 56 45.828125 52.96875 
Q 50 49.953125 52 44.1875 
z
" id="DejaVuSans-6d"/>
     <path d="M 18.3125 70.21875 
L 18.3125 54.6875 
L 36.8125 54.6875 
L 36.8125 47.703125 
L 18.3125 47.703125 
L 18.3125 18.015625 
Q 18.3125 11.328125 20.140625 9.421875 
Q 21.96875 7.515625 27.59375 7.515625 
L 36.8125 7.515625 
L 36.8125 0 
L 27.59375 0 
Q 17.1875 0 13.234375 3.875 
Q 9.28125 7.765625 9.28125 18.015625 
L 9.28125 47.703125 
L 2.6875 47.703125 
L 2.6875 54.6875 
L 9.28125 54.6875 
L 9.28125 70.21875 
z
" id="DejaVuSans-74"/>
    </defs>
    <g transform="translate(262.491562 37.2)scale(0.12 -0.12)">
     <use xlink:href="#DejaVuSans-4d"/>
     <use x="86.279297" xlink:href="#DejaVuSans-6f"/>
     <use x="147.460938" xlink:href="#DejaVuSans-64"/>
     <use x="210.9375" xlink:href="#DejaVuSans-69"/>
     <use x="238.720703" xlink:href="#DejaVuSans-66"/>
     <use x="273.925781" xlink:href="#DejaVuSans-69"/>
     <use x="301.708984" xlink:href="#DejaVuSans-65"/>
     <use x="363.232422" xlink:href="#DejaVuSans-64"/>
     <use x="426.708984" xlink:href="#DejaVuSans-20"/>
     <use x="458.496094" xlink:href="#DejaVuSans-63"/>
     <use x="513.476562" xlink:href="#DejaVuSans-6f"/>
     <use x="574.658203" xlink:href="#DejaVuSans-75"/>
     <use x="638.037109" xlink:href="#DejaVuSans-72"/>
     <use x="679.150391" xlink:href="#DejaVuSans-73"/>
     <use x="731.25" xlink:href="#DejaVuSans-65"/>
     <use x="792.773438" xlink:href="#DejaVuSans-20"/>
     <use x="824.560547" xlink:href="#DejaVuSans-61"/>
     <use x="885.839844" xlink:href="#DejaVuSans-73"/>
     <use x="937.939453" xlink:href="#DejaVuSans-73"/>
     <use x="990.039062" xlink:href="#DejaVuSans-69"/>
     <use x="1017.822266" xlink:href="#DejaVuSans-67"/>
     <use x="1081.298828" xlink:href="#DejaVuSans-6e"/>
     <use x="1144.677734" xlink:href="#DejaVuSans-6d"/>
     <use x="1242.089844" xlink:href="#DejaVuSans-65"/>
     <use x="1303.613281" xlink:href="#DejaVuSans-6e"/>
     <use x="1366.992188" xlink:href="#DejaVuSans-74"/>
     <use x="1406.201172" xlink:href="#DejaVuSans-20"/>
     <use x="1437.988281" xlink:href="#DejaVuSans-72"/>
     <use x="1479.070312" xlink:href="#DejaVuSans-65"/>
     <use x="1540.59375" xlink:href="#DejaVuSans-73"/>
     <use x="1592.693359" xlink:href="#DejaVuSans-75"/>
     <use x="1656.072266" xlink:href="#DejaVuSans-6c"/>
     <use x="1683.855469" xlink:href="#DejaVuSans-74"/>
     <use x="1723.064453" xlink:href="#DejaVuSans-73"/>
    </g>
   </g>
  </g>
 </g>
 <defs>
  <clipPath id="pcdfbd2ddba">
   <rect height="271.8" width="558" x="90" y="43.2"/>
  </clipPath>
 </defs>
</svg>
