<?xml version="1.0" encoding="utf-8" standalone="no"?>
<!DOCTYPE svg PUBLIC "-//W3C//DTD SVG 1.1//EN"
  "http://www.w3.org/Graphics/SVG/1.1/DTD/svg11.dtd">
<!-- Created with matplotlib (http://matplotlib.org/) -->
<svg height="360pt" version="1.1" viewBox="0 0 720 360" width="720pt" xmlns="http://www.w3.org/2000/svg" xmlns:xlink="http://www.w3.org/1999/xlink">
 <defs>
  <style type="text/css">
*{stroke-linecap:butt;stroke-linejoin:round;}
  </style>
 </defs>
 <g id="figure_1">
  <g id="patch_1">
   <path d="M 0 360 
L 720 360 
L 720 0 
L 0 0 
z
" style="fill:#ffffff;"/>
  </g>
  <g id="axes_1">
   <g id="patch_2">
    <path d="M 90 315 
L 648 315 
L 648 43.2 
L 90 43.2 
z
" style="fill:#ffffff;"/>
   </g>
   <g id="matplotlib.axis_1">
    <g id="xtick_1">
     <g id="line2d_1">
      <path clip-path="url(#pa74bcb3110)" d="M 115.363636 315 
L 115.363636 43.2 
" style="fill:none;stroke:#000000;stroke-dasharray:0.8,1.32;stroke-dashoffset:0;stroke-width:0.8;"/>
     </g>
     <g id="line2d_2">
      <defs>
       <path d="M 0 0 
L 0 3.5 
" id="m0a80176f55" style="stroke:#000000;stroke-width:0.8;"/>
      </defs>
      <g>
       <use style="stroke:#000000;stroke-width:0.8;" x="115.363636" xlink:href="#m0a80176f55" y="315"/>
      </g>
     </g>
     <g id="text_1">
      <!-- 0 -->
      <defs>
       <path d="M 31.78125 66.40625 
Q 24.171875 66.40625 20.328125 58.90625 
Q 16.5 51.421875 16.5 36.375 
Q 16.5 21.390625 20.328125 13.890625 
Q 24.171875 6.390625 31.78125 6.390625 
Q 39.453125 6.390625 43.28125 13.890625 
Q 47.125 21.390625 47.125 36.375 
Q 47.125 51.421875 43.28125 58.90625 
Q 39.453125 66.40625 31.78125 66.40625 
z
M 31.78125 74.21875 
Q 44.046875 74.21875 50.515625 64.515625 
Q 56.984375 54.828125 56.984375 36.375 
Q 56.984375 17.96875 50.515625 8.265625 
Q 44.046875 -1.421875 31.78125 -1.421875 
Q 19.53125 -1.421875 13.0625 8.265625 
Q 6.59375 17.96875 6.59375 36.375 
Q 6.59375 54.828125 13.0625 64.515625 
Q 19.53125 74.21875 31.78125 74.21875 
z
" id="DejaVuSans-30"/>
      </defs>
      <g transform="translate(112.182386 329.598437)scale(0.1 -0.1)">
       <use xlink:href="#DejaVuSans-30"/>
      </g>
     </g>
    </g>
    <g id="xtick_2">
     <g id="line2d_3">
      <path clip-path="url(#pa74bcb3110)" d="M 178.804448 315 
L 178.804448 43.2 
" style="fill:none;stroke:#000000;stroke-dasharray:0.8,1.32;stroke-dashoffset:0;stroke-width:0.8;"/>
     </g>
     <g id="line2d_4">
      <g>
       <use style="stroke:#000000;stroke-width:0.8;" x="178.804448" xlink:href="#m0a80176f55" y="315"/>
      </g>
     </g>
     <g id="text_2">
      <!-- 250 -->
      <defs>
       <path d="M 19.1875 8.296875 
L 53.609375 8.296875 
L 53.609375 0 
L 7.328125 0 
L 7.328125 8.296875 
Q 12.9375 14.109375 22.625 23.890625 
Q 32.328125 33.6875 34.8125 36.53125 
Q 39.546875 41.84375 41.421875 45.53125 
Q 43.3125 49.21875 43.3125 52.78125 
Q 43.3125 58.59375 39.234375 62.25 
Q 35.15625 65.921875 28.609375 65.921875 
Q 23.96875 65.921875 18.8125 64.3125 
Q 13.671875 62.703125 7.8125 59.421875 
L 7.8125 69.390625 
Q 13.765625 71.78125 18.9375 73 
Q 24.125 74.21875 28.421875 74.21875 
Q 39.75 74.21875 46.484375 68.546875 
Q 53.21875 62.890625 53.21875 53.421875 
Q 53.21875 48.921875 51.53125 44.890625 
Q 49.859375 40.875 45.40625 35.40625 
Q 44.1875 33.984375 37.640625 27.21875 
Q 31.109375 20.453125 19.1875 8.296875 
z
" id="DejaVuSans-32"/>
       <path d="M 10.796875 72.90625 
L 49.515625 72.90625 
L 49.515625 64.59375 
L 19.828125 64.59375 
L 19.828125 46.734375 
Q 21.96875 47.46875 24.109375 47.828125 
Q 26.265625 48.1875 28.421875 48.1875 
Q 40.625 48.1875 47.75 41.5 
Q 54.890625 34.8125 54.890625 23.390625 
Q 54.890625 11.625 47.5625 5.09375 
Q 40.234375 -1.421875 26.90625 -1.421875 
Q 22.3125 -1.421875 17.546875 -0.640625 
Q 12.796875 0.140625 7.71875 1.703125 
L 7.71875 11.625 
Q 12.109375 9.234375 16.796875 8.0625 
Q 21.484375 6.890625 26.703125 6.890625 
Q 35.15625 6.890625 40.078125 11.328125 
Q 45.015625 15.765625 45.015625 23.390625 
Q 45.015625 31 40.078125 35.4375 
Q 35.15625 39.890625 26.703125 39.890625 
Q 22.75 39.890625 18.8125 39.015625 
Q 14.890625 38.140625 10.796875 36.28125 
z
" id="DejaVuSans-35"/>
      </defs>
      <g transform="translate(169.260698 329.598437)scale(0.1 -0.1)">
       <use xlink:href="#DejaVuSans-32"/>
       <use x="63.623047" xlink:href="#DejaVuSans-35"/>
       <use x="127.246094" xlink:href="#DejaVuSans-30"/>
      </g>
     </g>
    </g>
    <g id="xtick_3">
     <g id="line2d_5">
      <path clip-path="url(#pa74bcb3110)" d="M 242.245259 315 
L 242.245259 43.2 
" style="fill:none;stroke:#000000;stroke-dasharray:0.8,1.32;stroke-dashoffset:0;stroke-width:0.8;"/>
     </g>
     <g id="line2d_6">
      <g>
       <use style="stroke:#000000;stroke-width:0.8;" x="242.245259" xlink:href="#m0a80176f55" y="315"/>
      </g>
     </g>
     <g id="text_3">
      <!-- 500 -->
      <g transform="translate(232.701509 329.598437)scale(0.1 -0.1)">
       <use xlink:href="#DejaVuSans-35"/>
       <use x="63.623047" xlink:href="#DejaVuSans-30"/>
       <use x="127.246094" xlink:href="#DejaVuSans-30"/>
      </g>
     </g>
    </g>
    <g id="xtick_4">
     <g id="line2d_7">
      <path clip-path="url(#pa74bcb3110)" d="M 305.68607 315 
L 305.68607 43.2 
" style="fill:none;stroke:#000000;stroke-dasharray:0.8,1.32;stroke-dashoffset:0;stroke-width:0.8;"/>
     </g>
     <g id="line2d_8">
      <g>
       <use style="stroke:#000000;stroke-width:0.8;" x="305.68607" xlink:href="#m0a80176f55" y="315"/>
      </g>
     </g>
     <g id="text_4">
      <!-- 750 -->
      <defs>
       <path d="M 8.203125 72.90625 
L 55.078125 72.90625 
L 55.078125 68.703125 
L 28.609375 0 
L 18.3125 0 
L 43.21875 64.59375 
L 8.203125 64.59375 
z
" id="DejaVuSans-37"/>
      </defs>
      <g transform="translate(296.14232 329.598437)scale(0.1 -0.1)">
       <use xlink:href="#DejaVuSans-37"/>
       <use x="63.623047" xlink:href="#DejaVuSans-35"/>
       <use x="127.246094" xlink:href="#DejaVuSans-30"/>
      </g>
     </g>
    </g>
    <g id="xtick_5">
     <g id="line2d_9">
      <path clip-path="url(#pa74bcb3110)" d="M 369.126882 315 
L 369.126882 43.2 
" style="fill:none;stroke:#000000;stroke-dasharray:0.8,1.32;stroke-dashoffset:0;stroke-width:0.8;"/>
     </g>
     <g id="line2d_10">
      <g>
       <use style="stroke:#000000;stroke-width:0.8;" x="369.126882" xlink:href="#m0a80176f55" y="315"/>
      </g>
     </g>
     <g id="text_5">
      <!-- 1000 -->
      <defs>
       <path d="M 12.40625 8.296875 
L 28.515625 8.296875 
L 28.515625 63.921875 
L 10.984375 60.40625 
L 10.984375 69.390625 
L 28.421875 72.90625 
L 38.28125 72.90625 
L 38.28125 8.296875 
L 54.390625 8.296875 
L 54.390625 0 
L 12.40625 0 
z
" id="DejaVuSans-31"/>
      </defs>
      <g transform="translate(356.401882 329.598437)scale(0.1 -0.1)">
       <use xlink:href="#DejaVuSans-31"/>
       <use x="63.623047" xlink:href="#DejaVuSans-30"/>
       <use x="127.246094" xlink:href="#DejaVuSans-30"/>
       <use x="190.869141" xlink:href="#DejaVuSans-30"/>
      </g>
     </g>
    </g>
    <g id="xtick_6">
     <g id="line2d_11">
      <path clip-path="url(#pa74bcb3110)" d="M 432.567693 315 
L 432.567693 43.2 
" style="fill:none;stroke:#000000;stroke-dasharray:0.8,1.32;stroke-dashoffset:0;stroke-width:0.8;"/>
     </g>
     <g id="line2d_12">
      <g>
       <use style="stroke:#000000;stroke-width:0.8;" x="432.567693" xlink:href="#m0a80176f55" y="315"/>
      </g>
     </g>
     <g id="text_6">
      <!-- 1250 -->
      <g transform="translate(419.842693 329.598437)scale(0.1 -0.1)">
       <use xlink:href="#DejaVuSans-31"/>
       <use x="63.623047" xlink:href="#DejaVuSans-32"/>
       <use x="127.246094" xlink:href="#DejaVuSans-35"/>
       <use x="190.869141" xlink:href="#DejaVuSans-30"/>
      </g>
     </g>
    </g>
    <g id="xtick_7">
     <g id="line2d_13">
      <path clip-path="url(#pa74bcb3110)" d="M 496.008504 315 
L 496.008504 43.2 
" style="fill:none;stroke:#000000;stroke-dasharray:0.8,1.32;stroke-dashoffset:0;stroke-width:0.8;"/>
     </g>
     <g id="line2d_14">
      <g>
       <use style="stroke:#000000;stroke-width:0.8;" x="496.008504" xlink:href="#m0a80176f55" y="315"/>
      </g>
     </g>
     <g id="text_7">
      <!-- 1500 -->
      <g transform="translate(483.283504 329.598437)scale(0.1 -0.1)">
       <use xlink:href="#DejaVuSans-31"/>
       <use x="63.623047" xlink:href="#DejaVuSans-35"/>
       <use x="127.246094" xlink:href="#DejaVuSans-30"/>
       <use x="190.869141" xlink:href="#DejaVuSans-30"/>
      </g>
     </g>
    </g>
    <g id="xtick_8">
     <g id="line2d_15">
      <path clip-path="url(#pa74bcb3110)" d="M 559.449316 315 
L 559.449316 43.2 
" style="fill:none;stroke:#000000;stroke-dasharray:0.8,1.32;stroke-dashoffset:0;stroke-width:0.8;"/>
     </g>
     <g id="line2d_16">
      <g>
       <use style="stroke:#000000;stroke-width:0.8;" x="559.449316" xlink:href="#m0a80176f55" y="315"/>
      </g>
     </g>
     <g id="text_8">
      <!-- 1750 -->
      <g transform="translate(546.724316 329.598437)scale(0.1 -0.1)">
       <use xlink:href="#DejaVuSans-31"/>
       <use x="63.623047" xlink:href="#DejaVuSans-37"/>
       <use x="127.246094" xlink:href="#DejaVuSans-35"/>
       <use x="190.869141" xlink:href="#DejaVuSans-30"/>
      </g>
     </g>
    </g>
    <g id="xtick_9">
     <g id="line2d_17">
      <path clip-path="url(#pa74bcb3110)" d="M 622.890127 315 
L 622.890127 43.2 
" style="fill:none;stroke:#000000;stroke-dasharray:0.8,1.32;stroke-dashoffset:0;stroke-width:0.8;"/>
     </g>
     <g id="line2d_18">
      <g>
       <use style="stroke:#000000;stroke-width:0.8;" x="622.890127" xlink:href="#m0a80176f55" y="315"/>
      </g>
     </g>
     <g id="text_9">
      <!-- 2000 -->
      <g transform="translate(610.165127 329.598437)scale(0.1 -0.1)">
       <use xlink:href="#DejaVuSans-32"/>
       <use x="63.623047" xlink:href="#DejaVuSans-30"/>
       <use x="127.246094" xlink:href="#DejaVuSans-30"/>
       <use x="190.869141" xlink:href="#DejaVuSans-30"/>
      </g>
     </g>
    </g>
    <g id="text_10">
     <!-- epoch -->
     <defs>
      <path d="M 56.203125 29.59375 
L 56.203125 25.203125 
L 14.890625 25.203125 
Q 15.484375 15.921875 20.484375 11.0625 
Q 25.484375 6.203125 34.421875 6.203125 
Q 39.59375 6.203125 44.453125 7.46875 
Q 49.3125 8.734375 54.109375 11.28125 
L 54.109375 2.78125 
Q 49.265625 0.734375 44.1875 -0.34375 
Q 39.109375 -1.421875 33.890625 -1.421875 
Q 20.796875 -1.421875 13.15625 6.1875 
Q 5.515625 13.8125 5.515625 26.8125 
Q 5.515625 40.234375 12.765625 48.109375 
Q 20.015625 56 32.328125 56 
Q 43.359375 56 49.78125 48.890625 
Q 56.203125 41.796875 56.203125 29.59375 
z
M 47.21875 32.234375 
Q 47.125 39.59375 43.09375 43.984375 
Q 39.0625 48.390625 32.421875 48.390625 
Q 24.90625 48.390625 20.390625 44.140625 
Q 15.875 39.890625 15.1875 32.171875 
z
" id="DejaVuSans-65"/>
      <path d="M 18.109375 8.203125 
L 18.109375 -20.796875 
L 9.078125 -20.796875 
L 9.078125 54.6875 
L 18.109375 54.6875 
L 18.109375 46.390625 
Q 20.953125 51.265625 25.265625 53.625 
Q 29.59375 56 35.59375 56 
Q 45.5625 56 51.78125 48.09375 
Q 58.015625 40.1875 58.015625 27.296875 
Q 58.015625 14.40625 51.78125 6.484375 
Q 45.5625 -1.421875 35.59375 -1.421875 
Q 29.59375 -1.421875 25.265625 0.953125 
Q 20.953125 3.328125 18.109375 8.203125 
z
M 48.6875 27.296875 
Q 48.6875 37.203125 44.609375 42.84375 
Q 40.53125 48.484375 33.40625 48.484375 
Q 26.265625 48.484375 22.1875 42.84375 
Q 18.109375 37.203125 18.109375 27.296875 
Q 18.109375 17.390625 22.1875 11.75 
Q 26.265625 6.109375 33.40625 6.109375 
Q 40.53125 6.109375 44.609375 11.75 
Q 48.6875 17.390625 48.6875 27.296875 
z
" id="DejaVuSans-70"/>
      <path d="M 30.609375 48.390625 
Q 23.390625 48.390625 19.1875 42.75 
Q 14.984375 37.109375 14.984375 27.296875 
Q 14.984375 17.484375 19.15625 11.84375 
Q 23.34375 6.203125 30.609375 6.203125 
Q 37.796875 6.203125 41.984375 11.859375 
Q 46.1875 17.53125 46.1875 27.296875 
Q 46.1875 37.015625 41.984375 42.703125 
Q 37.796875 48.390625 30.609375 48.390625 
z
M 30.609375 56 
Q 42.328125 56 49.015625 48.375 
Q 55.71875 40.765625 55.71875 27.296875 
Q 55.71875 13.875 49.015625 6.21875 
Q 42.328125 -1.421875 30.609375 -1.421875 
Q 18.84375 -1.421875 12.171875 6.21875 
Q 5.515625 13.875 5.515625 27.296875 
Q 5.515625 40.765625 12.171875 48.375 
Q 18.84375 56 30.609375 56 
z
" id="DejaVuSans-6f"/>
      <path d="M 48.78125 52.59375 
L 48.78125 44.1875 
Q 44.96875 46.296875 41.140625 47.34375 
Q 37.3125 48.390625 33.40625 48.390625 
Q 24.65625 48.390625 19.8125 42.84375 
Q 14.984375 37.3125 14.984375 27.296875 
Q 14.984375 17.28125 19.8125 11.734375 
Q 24.65625 6.203125 33.40625 6.203125 
Q 37.3125 6.203125 41.140625 7.25 
Q 44.96875 8.296875 48.78125 10.40625 
L 48.78125 2.09375 
Q 45.015625 0.34375 40.984375 -0.53125 
Q 36.96875 -1.421875 32.421875 -1.421875 
Q 20.0625 -1.421875 12.78125 6.34375 
Q 5.515625 14.109375 5.515625 27.296875 
Q 5.515625 40.671875 12.859375 48.328125 
Q 20.21875 56 33.015625 56 
Q 37.15625 56 41.109375 55.140625 
Q 45.0625 54.296875 48.78125 52.59375 
z
" id="DejaVuSans-63"/>
      <path d="M 54.890625 33.015625 
L 54.890625 0 
L 45.90625 0 
L 45.90625 32.71875 
Q 45.90625 40.484375 42.875 44.328125 
Q 39.84375 48.1875 33.796875 48.1875 
Q 26.515625 48.1875 22.3125 43.546875 
Q 18.109375 38.921875 18.109375 30.90625 
L 18.109375 0 
L 9.078125 0 
L 9.078125 75.984375 
L 18.109375 75.984375 
L 18.109375 46.1875 
Q 21.34375 51.125 25.703125 53.5625 
Q 30.078125 56 35.796875 56 
Q 45.21875 56 50.046875 50.171875 
Q 54.890625 44.34375 54.890625 33.015625 
z
" id="DejaVuSans-68"/>
     </defs>
     <g transform="translate(353.771875 343.276563)scale(0.1 -0.1)">
      <use xlink:href="#DejaVuSans-65"/>
      <use x="61.523438" xlink:href="#DejaVuSans-70"/>
      <use x="125" xlink:href="#DejaVuSans-6f"/>
      <use x="186.181641" xlink:href="#DejaVuSans-63"/>
      <use x="241.162109" xlink:href="#DejaVuSans-68"/>
     </g>
    </g>
   </g>
   <g id="matplotlib.axis_2">
    <g id="ytick_1">
     <g id="line2d_19">
      <path clip-path="url(#pa74bcb3110)" d="M 90 315 
L 648 315 
" style="fill:none;stroke:#000000;stroke-dasharray:0.8,1.32;stroke-dashoffset:0;stroke-width:0.8;"/>
     </g>
     <g id="line2d_20">
      <defs>
       <path d="M 0 0 
L -3.5 0 
" id="m8b0b92c717" style="stroke:#000000;stroke-width:0.8;"/>
      </defs>
      <g>
       <use style="stroke:#000000;stroke-width:0.8;" x="90" xlink:href="#m8b0b92c717" y="315"/>
      </g>
     </g>
     <g id="text_11">
      <!-- 0.0 -->
      <defs>
       <path d="M 10.6875 12.40625 
L 21 12.40625 
L 21 0 
L 10.6875 0 
z
" id="DejaVuSans-2e"/>
      </defs>
      <g transform="translate(67.096875 318.799219)scale(0.1 -0.1)">
       <use xlink:href="#DejaVuSans-30"/>
       <use x="63.623047" xlink:href="#DejaVuSans-2e"/>
       <use x="95.410156" xlink:href="#DejaVuSans-30"/>
      </g>
     </g>
    </g>
    <g id="ytick_2">
     <g id="line2d_21">
      <path clip-path="url(#pa74bcb3110)" d="M 90 287.82 
L 648 287.82 
" style="fill:none;stroke:#000000;stroke-dasharray:0.8,1.32;stroke-dashoffset:0;stroke-width:0.8;"/>
     </g>
     <g id="line2d_22">
      <g>
       <use style="stroke:#000000;stroke-width:0.8;" x="90" xlink:href="#m8b0b92c717" y="287.82"/>
      </g>
     </g>
     <g id="text_12">
      <!-- 0.1 -->
      <g transform="translate(67.096875 291.619219)scale(0.1 -0.1)">
       <use xlink:href="#DejaVuSans-30"/>
       <use x="63.623047" xlink:href="#DejaVuSans-2e"/>
       <use x="95.410156" xlink:href="#DejaVuSans-31"/>
      </g>
     </g>
    </g>
    <g id="ytick_3">
     <g id="line2d_23">
      <path clip-path="url(#pa74bcb3110)" d="M 90 260.64 
L 648 260.64 
" style="fill:none;stroke:#000000;stroke-dasharray:0.8,1.32;stroke-dashoffset:0;stroke-width:0.8;"/>
     </g>
     <g id="line2d_24">
      <g>
       <use style="stroke:#000000;stroke-width:0.8;" x="90" xlink:href="#m8b0b92c717" y="260.64"/>
      </g>
     </g>
     <g id="text_13">
      <!-- 0.2 -->
      <g transform="translate(67.096875 264.439219)scale(0.1 -0.1)">
       <use xlink:href="#DejaVuSans-30"/>
       <use x="63.623047" xlink:href="#DejaVuSans-2e"/>
       <use x="95.410156" xlink:href="#DejaVuSans-32"/>
      </g>
     </g>
    </g>
    <g id="ytick_4">
     <g id="line2d_25">
      <path clip-path="url(#pa74bcb3110)" d="M 90 233.46 
L 648 233.46 
" style="fill:none;stroke:#000000;stroke-dasharray:0.8,1.32;stroke-dashoffset:0;stroke-width:0.8;"/>
     </g>
     <g id="line2d_26">
      <g>
       <use style="stroke:#000000;stroke-width:0.8;" x="90" xlink:href="#m8b0b92c717" y="233.46"/>
      </g>
     </g>
     <g id="text_14">
      <!-- 0.3 -->
      <defs>
       <path d="M 40.578125 39.3125 
Q 47.65625 37.796875 51.625 33 
Q 55.609375 28.21875 55.609375 21.1875 
Q 55.609375 10.40625 48.1875 4.484375 
Q 40.765625 -1.421875 27.09375 -1.421875 
Q 22.515625 -1.421875 17.65625 -0.515625 
Q 12.796875 0.390625 7.625 2.203125 
L 7.625 11.71875 
Q 11.71875 9.328125 16.59375 8.109375 
Q 21.484375 6.890625 26.8125 6.890625 
Q 36.078125 6.890625 40.9375 10.546875 
Q 45.796875 14.203125 45.796875 21.1875 
Q 45.796875 27.640625 41.28125 31.265625 
Q 36.765625 34.90625 28.71875 34.90625 
L 20.21875 34.90625 
L 20.21875 43.015625 
L 29.109375 43.015625 
Q 36.375 43.015625 40.234375 45.921875 
Q 44.09375 48.828125 44.09375 54.296875 
Q 44.09375 59.90625 40.109375 62.90625 
Q 36.140625 65.921875 28.71875 65.921875 
Q 24.65625 65.921875 20.015625 65.03125 
Q 15.375 64.15625 9.8125 62.3125 
L 9.8125 71.09375 
Q 15.4375 72.65625 20.34375 73.4375 
Q 25.25 74.21875 29.59375 74.21875 
Q 40.828125 74.21875 47.359375 69.109375 
Q 53.90625 64.015625 53.90625 55.328125 
Q 53.90625 49.265625 50.4375 45.09375 
Q 46.96875 40.921875 40.578125 39.3125 
z
" id="DejaVuSans-33"/>
      </defs>
      <g transform="translate(67.096875 237.259219)scale(0.1 -0.1)">
       <use xlink:href="#DejaVuSans-30"/>
       <use x="63.623047" xlink:href="#DejaVuSans-2e"/>
       <use x="95.410156" xlink:href="#DejaVuSans-33"/>
      </g>
     </g>
    </g>
    <g id="ytick_5">
     <g id="line2d_27">
      <path clip-path="url(#pa74bcb3110)" d="M 90 206.28 
L 648 206.28 
" style="fill:none;stroke:#000000;stroke-dasharray:0.8,1.32;stroke-dashoffset:0;stroke-width:0.8;"/>
     </g>
     <g id="line2d_28">
      <g>
       <use style="stroke:#000000;stroke-width:0.8;" x="90" xlink:href="#m8b0b92c717" y="206.28"/>
      </g>
     </g>
     <g id="text_15">
      <!-- 0.4 -->
      <defs>
       <path d="M 37.796875 64.3125 
L 12.890625 25.390625 
L 37.796875 25.390625 
z
M 35.203125 72.90625 
L 47.609375 72.90625 
L 47.609375 25.390625 
L 58.015625 25.390625 
L 58.015625 17.1875 
L 47.609375 17.1875 
L 47.609375 0 
L 37.796875 0 
L 37.796875 17.1875 
L 4.890625 17.1875 
L 4.890625 26.703125 
z
" id="DejaVuSans-34"/>
      </defs>
      <g transform="translate(67.096875 210.079219)scale(0.1 -0.1)">
       <use xlink:href="#DejaVuSans-30"/>
       <use x="63.623047" xlink:href="#DejaVuSans-2e"/>
       <use x="95.410156" xlink:href="#DejaVuSans-34"/>
      </g>
     </g>
    </g>
    <g id="ytick_6">
     <g id="line2d_29">
      <path clip-path="url(#pa74bcb3110)" d="M 90 179.1 
L 648 179.1 
" style="fill:none;stroke:#000000;stroke-dasharray:0.8,1.32;stroke-dashoffset:0;stroke-width:0.8;"/>
     </g>
     <g id="line2d_30">
      <g>
       <use style="stroke:#000000;stroke-width:0.8;" x="90" xlink:href="#m8b0b92c717" y="179.1"/>
      </g>
     </g>
     <g id="text_16">
      <!-- 0.5 -->
      <g transform="translate(67.096875 182.899219)scale(0.1 -0.1)">
       <use xlink:href="#DejaVuSans-30"/>
       <use x="63.623047" xlink:href="#DejaVuSans-2e"/>
       <use x="95.410156" xlink:href="#DejaVuSans-35"/>
      </g>
     </g>
    </g>
    <g id="ytick_7">
     <g id="line2d_31">
      <path clip-path="url(#pa74bcb3110)" d="M 90 151.92 
L 648 151.92 
" style="fill:none;stroke:#000000;stroke-dasharray:0.8,1.32;stroke-dashoffset:0;stroke-width:0.8;"/>
     </g>
     <g id="line2d_32">
      <g>
       <use style="stroke:#000000;stroke-width:0.8;" x="90" xlink:href="#m8b0b92c717" y="151.92"/>
      </g>
     </g>
     <g id="text_17">
      <!-- 0.6 -->
      <defs>
       <path d="M 33.015625 40.375 
Q 26.375 40.375 22.484375 35.828125 
Q 18.609375 31.296875 18.609375 23.390625 
Q 18.609375 15.53125 22.484375 10.953125 
Q 26.375 6.390625 33.015625 6.390625 
Q 39.65625 6.390625 43.53125 10.953125 
Q 47.40625 15.53125 47.40625 23.390625 
Q 47.40625 31.296875 43.53125 35.828125 
Q 39.65625 40.375 33.015625 40.375 
z
M 52.59375 71.296875 
L 52.59375 62.3125 
Q 48.875 64.0625 45.09375 64.984375 
Q 41.3125 65.921875 37.59375 65.921875 
Q 27.828125 65.921875 22.671875 59.328125 
Q 17.53125 52.734375 16.796875 39.40625 
Q 19.671875 43.65625 24.015625 45.921875 
Q 28.375 48.1875 33.59375 48.1875 
Q 44.578125 48.1875 50.953125 41.515625 
Q 57.328125 34.859375 57.328125 23.390625 
Q 57.328125 12.15625 50.6875 5.359375 
Q 44.046875 -1.421875 33.015625 -1.421875 
Q 20.359375 -1.421875 13.671875 8.265625 
Q 6.984375 17.96875 6.984375 36.375 
Q 6.984375 53.65625 15.1875 63.9375 
Q 23.390625 74.21875 37.203125 74.21875 
Q 40.921875 74.21875 44.703125 73.484375 
Q 48.484375 72.75 52.59375 71.296875 
z
" id="DejaVuSans-36"/>
      </defs>
      <g transform="translate(67.096875 155.719219)scale(0.1 -0.1)">
       <use xlink:href="#DejaVuSans-30"/>
       <use x="63.623047" xlink:href="#DejaVuSans-2e"/>
       <use x="95.410156" xlink:href="#DejaVuSans-36"/>
      </g>
     </g>
    </g>
    <g id="ytick_8">
     <g id="line2d_33">
      <path clip-path="url(#pa74bcb3110)" d="M 90 124.74 
L 648 124.74 
" style="fill:none;stroke:#000000;stroke-dasharray:0.8,1.32;stroke-dashoffset:0;stroke-width:0.8;"/>
     </g>
     <g id="line2d_34">
      <g>
       <use style="stroke:#000000;stroke-width:0.8;" x="90" xlink:href="#m8b0b92c717" y="124.74"/>
      </g>
     </g>
     <g id="text_18">
      <!-- 0.7 -->
      <g transform="translate(67.096875 128.539219)scale(0.1 -0.1)">
       <use xlink:href="#DejaVuSans-30"/>
       <use x="63.623047" xlink:href="#DejaVuSans-2e"/>
       <use x="95.410156" xlink:href="#DejaVuSans-37"/>
      </g>
     </g>
    </g>
    <g id="ytick_9">
     <g id="line2d_35">
      <path clip-path="url(#pa74bcb3110)" d="M 90 97.56 
L 648 97.56 
" style="fill:none;stroke:#000000;stroke-dasharray:0.8,1.32;stroke-dashoffset:0;stroke-width:0.8;"/>
     </g>
     <g id="line2d_36">
      <g>
       <use style="stroke:#000000;stroke-width:0.8;" x="90" xlink:href="#m8b0b92c717" y="97.56"/>
      </g>
     </g>
     <g id="text_19">
      <!-- 0.8 -->
      <defs>
       <path d="M 31.78125 34.625 
Q 24.75 34.625 20.71875 30.859375 
Q 16.703125 27.09375 16.703125 20.515625 
Q 16.703125 13.921875 20.71875 10.15625 
Q 24.75 6.390625 31.78125 6.390625 
Q 38.8125 6.390625 42.859375 10.171875 
Q 46.921875 13.96875 46.921875 20.515625 
Q 46.921875 27.09375 42.890625 30.859375 
Q 38.875 34.625 31.78125 34.625 
z
M 21.921875 38.8125 
Q 15.578125 40.375 12.03125 44.71875 
Q 8.5 49.078125 8.5 55.328125 
Q 8.5 64.0625 14.71875 69.140625 
Q 20.953125 74.21875 31.78125 74.21875 
Q 42.671875 74.21875 48.875 69.140625 
Q 55.078125 64.0625 55.078125 55.328125 
Q 55.078125 49.078125 51.53125 44.71875 
Q 48 40.375 41.703125 38.8125 
Q 48.828125 37.15625 52.796875 32.3125 
Q 56.78125 27.484375 56.78125 20.515625 
Q 56.78125 9.90625 50.3125 4.234375 
Q 43.84375 -1.421875 31.78125 -1.421875 
Q 19.734375 -1.421875 13.25 4.234375 
Q 6.78125 9.90625 6.78125 20.515625 
Q 6.78125 27.484375 10.78125 32.3125 
Q 14.796875 37.15625 21.921875 38.8125 
z
M 18.3125 54.390625 
Q 18.3125 48.734375 21.84375 45.5625 
Q 25.390625 42.390625 31.78125 42.390625 
Q 38.140625 42.390625 41.71875 45.5625 
Q 45.3125 48.734375 45.3125 54.390625 
Q 45.3125 60.0625 41.71875 63.234375 
Q 38.140625 66.40625 31.78125 66.40625 
Q 25.390625 66.40625 21.84375 63.234375 
Q 18.3125 60.0625 18.3125 54.390625 
z
" id="DejaVuSans-38"/>
      </defs>
      <g transform="translate(67.096875 101.359219)scale(0.1 -0.1)">
       <use xlink:href="#DejaVuSans-30"/>
       <use x="63.623047" xlink:href="#DejaVuSans-2e"/>
       <use x="95.410156" xlink:href="#DejaVuSans-38"/>
      </g>
     </g>
    </g>
    <g id="ytick_10">
     <g id="line2d_37">
      <path clip-path="url(#pa74bcb3110)" d="M 90 70.38 
L 648 70.38 
" style="fill:none;stroke:#000000;stroke-dasharray:0.8,1.32;stroke-dashoffset:0;stroke-width:0.8;"/>
     </g>
     <g id="line2d_38">
      <g>
       <use style="stroke:#000000;stroke-width:0.8;" x="90" xlink:href="#m8b0b92c717" y="70.38"/>
      </g>
     </g>
     <g id="text_20">
      <!-- 0.9 -->
      <defs>
       <path d="M 10.984375 1.515625 
L 10.984375 10.5 
Q 14.703125 8.734375 18.5 7.8125 
Q 22.3125 6.890625 25.984375 6.890625 
Q 35.75 6.890625 40.890625 13.453125 
Q 46.046875 20.015625 46.78125 33.40625 
Q 43.953125 29.203125 39.59375 26.953125 
Q 35.25 24.703125 29.984375 24.703125 
Q 19.046875 24.703125 12.671875 31.3125 
Q 6.296875 37.9375 6.296875 49.421875 
Q 6.296875 60.640625 12.9375 67.421875 
Q 19.578125 74.21875 30.609375 74.21875 
Q 43.265625 74.21875 49.921875 64.515625 
Q 56.59375 54.828125 56.59375 36.375 
Q 56.59375 19.140625 48.40625 8.859375 
Q 40.234375 -1.421875 26.421875 -1.421875 
Q 22.703125 -1.421875 18.890625 -0.6875 
Q 15.09375 0.046875 10.984375 1.515625 
z
M 30.609375 32.421875 
Q 37.25 32.421875 41.125 36.953125 
Q 45.015625 41.5 45.015625 49.421875 
Q 45.015625 57.28125 41.125 61.84375 
Q 37.25 66.40625 30.609375 66.40625 
Q 23.96875 66.40625 20.09375 61.84375 
Q 16.21875 57.28125 16.21875 49.421875 
Q 16.21875 41.5 20.09375 36.953125 
Q 23.96875 32.421875 30.609375 32.421875 
z
" id="DejaVuSans-39"/>
      </defs>
      <g transform="translate(67.096875 74.179219)scale(0.1 -0.1)">
       <use xlink:href="#DejaVuSans-30"/>
       <use x="63.623047" xlink:href="#DejaVuSans-2e"/>
       <use x="95.410156" xlink:href="#DejaVuSans-39"/>
      </g>
     </g>
    </g>
    <g id="text_21">
     <!-- accuracy -->
     <defs>
      <path d="M 34.28125 27.484375 
Q 23.390625 27.484375 19.1875 25 
Q 14.984375 22.515625 14.984375 16.5 
Q 14.984375 11.71875 18.140625 8.90625 
Q 21.296875 6.109375 26.703125 6.109375 
Q 34.1875 6.109375 38.703125 11.40625 
Q 43.21875 16.703125 43.21875 25.484375 
L 43.21875 27.484375 
z
M 52.203125 31.203125 
L 52.203125 0 
L 43.21875 0 
L 43.21875 8.296875 
Q 40.140625 3.328125 35.546875 0.953125 
Q 30.953125 -1.421875 24.3125 -1.421875 
Q 15.921875 -1.421875 10.953125 3.296875 
Q 6 8.015625 6 15.921875 
Q 6 25.140625 12.171875 29.828125 
Q 18.359375 34.515625 30.609375 34.515625 
L 43.21875 34.515625 
L 43.21875 35.40625 
Q 43.21875 41.609375 39.140625 45 
Q 35.0625 48.390625 27.6875 48.390625 
Q 23 48.390625 18.546875 47.265625 
Q 14.109375 46.140625 10.015625 43.890625 
L 10.015625 52.203125 
Q 14.9375 54.109375 19.578125 55.046875 
Q 24.21875 56 28.609375 56 
Q 40.484375 56 46.34375 49.84375 
Q 52.203125 43.703125 52.203125 31.203125 
z
" id="DejaVuSans-61"/>
      <path d="M 8.5 21.578125 
L 8.5 54.6875 
L 17.484375 54.6875 
L 17.484375 21.921875 
Q 17.484375 14.15625 20.5 10.265625 
Q 23.53125 6.390625 29.59375 6.390625 
Q 36.859375 6.390625 41.078125 11.03125 
Q 45.3125 15.671875 45.3125 23.6875 
L 45.3125 54.6875 
L 54.296875 54.6875 
L 54.296875 0 
L 45.3125 0 
L 45.3125 8.40625 
Q 42.046875 3.421875 37.71875 1 
Q 33.40625 -1.421875 27.6875 -1.421875 
Q 18.265625 -1.421875 13.375 4.4375 
Q 8.5 10.296875 8.5 21.578125 
z
M 31.109375 56 
z
" id="DejaVuSans-75"/>
      <path d="M 41.109375 46.296875 
Q 39.59375 47.171875 37.8125 47.578125 
Q 36.03125 48 33.890625 48 
Q 26.265625 48 22.1875 43.046875 
Q 18.109375 38.09375 18.109375 28.8125 
L 18.109375 0 
L 9.078125 0 
L 9.078125 54.6875 
L 18.109375 54.6875 
L 18.109375 46.1875 
Q 20.953125 51.171875 25.484375 53.578125 
Q 30.03125 56 36.53125 56 
Q 37.453125 56 38.578125 55.875 
Q 39.703125 55.765625 41.0625 55.515625 
z
" id="DejaVuSans-72"/>
      <path d="M 32.171875 -5.078125 
Q 28.375 -14.84375 24.75 -17.8125 
Q 21.140625 -20.796875 15.09375 -20.796875 
L 7.90625 -20.796875 
L 7.90625 -13.28125 
L 13.1875 -13.28125 
Q 16.890625 -13.28125 18.9375 -11.515625 
Q 21 -9.765625 23.484375 -3.21875 
L 25.09375 0.875 
L 2.984375 54.6875 
L 12.5 54.6875 
L 29.59375 11.921875 
L 46.6875 54.6875 
L 56.203125 54.6875 
z
" id="DejaVuSans-79"/>
     </defs>
     <g transform="translate(61.017187 201.659375)rotate(-90)scale(0.1 -0.1)">
      <use xlink:href="#DejaVuSans-61"/>
      <use x="61.279297" xlink:href="#DejaVuSans-63"/>
      <use x="116.259766" xlink:href="#DejaVuSans-63"/>
      <use x="171.240234" xlink:href="#DejaVuSans-75"/>
      <use x="234.619141" xlink:href="#DejaVuSans-72"/>
      <use x="275.732422" xlink:href="#DejaVuSans-61"/>
      <use x="337.011719" xlink:href="#DejaVuSans-63"/>
      <use x="391.992188" xlink:href="#DejaVuSans-79"/>
     </g>
    </g>
   </g>
   <g id="line2d_39">
    <path clip-path="url(#pa74bcb3110)" d="M 115.363636 135.533971 
L 115.6174 194.055498 
L 115.871163 136.834453 
L 116.124926 196.656463 
L 116.378689 135.533971 
L 116.632453 194.055498 
L 116.886216 135.533971 
L 117.139979 186.252629 
L 117.393742 135.533971 
L 117.647506 183.651672 
L 117.901269 135.533971 
L 118.155032 179.750241 
L 118.408795 134.233489 
L 118.662559 181.050715 
L 118.916322 134.233489 
L 119.170085 175.84881 
L 119.423848 134.233489 
L 119.677612 171.947363 
L 119.931375 134.233489 
L 120.185138 168.045932 
L 120.438901 134.233489 
L 120.692665 168.045932 
L 120.946428 134.233489 
L 121.200191 165.444984 
L 121.453954 135.533971 
L 121.707717 164.144502 
L 121.961481 135.533971 
L 122.215244 160.243055 
L 122.469007 134.233489 
L 122.72277 157.642106 
L 122.976534 134.233489 
L 123.230297 157.642106 
L 123.48406 134.233489 
L 123.737823 157.642106 
L 123.991587 134.233489 
L 124.24535 157.642106 
L 124.499113 134.233489 
L 124.752876 157.642106 
L 125.00664 134.233489 
L 125.260403 156.341624 
L 125.514166 132.933006 
L 125.767929 152.440193 
L 126.021693 132.933006 
L 126.275456 151.139711 
L 126.529219 132.933006 
L 126.782982 149.839228 
L 127.036746 132.933006 
L 127.290509 148.538762 
L 127.544272 132.933006 
L 127.798035 147.23828 
L 128.051799 132.933006 
L 128.305562 144.637315 
L 128.559325 131.63254 
L 128.813088 143.336849 
L 129.066852 131.63254 
L 129.320615 143.336849 
L 129.574378 131.63254 
L 129.828141 142.036367 
L 130.081905 131.63254 
L 130.335668 142.036367 
L 130.589431 130.332058 
L 130.843194 140.735884 
L 131.096958 130.332058 
L 131.350721 139.435402 
L 131.604484 130.332058 
L 131.858247 139.435402 
L 132.112011 130.332058 
L 132.365774 136.834453 
L 132.619537 130.332058 
L 132.8733 136.834453 
L 133.127064 130.332058 
L 133.380827 135.533971 
L 133.63459 129.031576 
L 133.888353 134.233489 
L 134.142117 129.031576 
L 134.39588 134.233489 
L 134.649643 127.731093 
L 134.903406 134.233489 
L 135.157169 127.731093 
L 135.410933 132.933006 
L 135.664696 127.731093 
L 135.918459 131.63254 
L 136.172222 127.731093 
L 136.425986 131.63254 
L 136.679749 126.430627 
L 136.933512 130.332058 
L 137.187275 126.430627 
L 137.441039 130.332058 
L 137.694802 126.430627 
L 137.948565 130.332058 
L 138.202328 126.430627 
L 138.456092 130.332058 
L 138.709855 126.430627 
L 138.963618 130.332058 
L 139.217381 126.430627 
L 139.471145 127.731093 
L 139.978671 125.130145 
L 140.232434 126.430627 
L 140.486198 125.130145 
L 140.739961 126.430627 
L 140.993724 125.130145 
L 141.247487 126.430627 
L 141.501251 122.52918 
L 141.755014 126.430627 
L 142.008777 119.928232 
L 142.26254 126.430627 
L 142.516304 119.928232 
L 142.770067 125.130145 
L 143.02383 119.928232 
L 143.277593 125.130145 
L 143.531357 117.327267 
L 143.78512 125.130145 
L 144.038883 117.327267 
L 144.292646 125.130145 
L 144.54641 114.726318 
L 144.800173 123.829662 
L 145.053936 113.425836 
L 145.307699 123.829662 
L 145.561463 109.524405 
L 145.815226 123.829662 
L 146.068989 109.524405 
L 146.322752 123.829662 
L 146.576516 108.223923 
L 146.830279 123.829662 
L 147.084042 106.92344 
L 147.337805 122.52918 
L 147.591569 106.92344 
L 147.845332 122.52918 
L 148.099095 106.92344 
L 148.352858 122.52918 
L 148.606621 106.92344 
L 148.860385 122.52918 
L 149.114148 108.223923 
L 149.367911 122.52918 
L 149.621674 108.223923 
L 149.875438 122.52918 
L 150.129201 106.92344 
L 150.382964 122.52918 
L 150.636727 103.02201 
L 150.890491 122.52918 
L 151.144254 103.02201 
L 151.398017 122.52918 
L 151.65178 103.02201 
L 151.905544 121.228714 
L 152.159307 101.721527 
L 152.41307 121.228714 
L 152.666833 100.421045 
L 152.920597 119.928232 
L 153.17436 100.421045 
L 153.428123 119.928232 
L 153.681886 100.421045 
L 153.93565 119.928232 
L 154.189413 100.421045 
L 154.443176 118.627749 
L 154.696939 100.421045 
L 154.950703 118.627749 
L 155.204466 96.519614 
L 155.458229 118.627749 
L 155.711992 96.519614 
L 155.965756 118.627749 
L 156.219519 95.219132 
L 156.473282 118.627749 
L 156.727045 95.219132 
L 156.980809 118.627749 
L 157.234572 95.219132 
L 157.488335 118.627749 
L 157.742098 95.219132 
L 157.995862 118.627749 
L 158.249625 95.219132 
L 158.503388 117.327267 
L 158.757151 95.219132 
L 159.010915 116.026801 
L 159.264678 93.918666 
L 159.518441 116.026801 
L 159.772204 93.918666 
L 160.025968 116.026801 
L 160.279731 93.918666 
L 160.533494 114.726318 
L 160.787257 93.918666 
L 161.041021 114.726318 
L 161.294784 93.918666 
L 161.548547 113.425836 
L 161.80231 95.219132 
L 162.056073 112.125354 
L 162.309837 92.618183 
L 162.5636 112.125354 
L 162.817363 91.317701 
L 163.071126 110.824888 
L 163.32489 91.317701 
L 163.578653 110.824888 
L 163.832416 90.017219 
L 164.086179 110.824888 
L 164.339943 88.716752 
L 164.593706 110.824888 
L 164.847469 88.716752 
L 165.101232 110.824888 
L 165.354996 87.41627 
L 165.608759 109.524405 
L 165.862522 86.115788 
L 166.116285 109.524405 
L 166.370049 86.115788 
L 166.623812 109.524405 
L 166.877575 86.115788 
L 167.131338 109.524405 
L 167.385102 87.41627 
L 167.638865 109.524405 
L 167.892628 87.41627 
L 168.146391 109.524405 
L 168.400155 88.716752 
L 168.653918 109.524405 
L 168.907681 88.716752 
L 169.161444 109.524405 
L 169.415208 87.41627 
L 169.668971 108.223923 
L 169.922734 87.41627 
L 170.176497 106.92344 
L 170.430261 86.115788 
L 170.684024 105.622974 
L 170.937787 86.115788 
L 171.19155 105.622974 
L 171.445314 86.115788 
L 171.699077 104.322492 
L 171.95284 84.815305 
L 172.206603 100.421045 
L 172.460367 84.815305 
L 172.71413 99.120579 
L 172.967893 84.815305 
L 173.221656 99.120579 
L 173.47542 82.214357 
L 173.729183 97.820096 
L 173.982946 80.913875 
L 174.236709 97.820096 
L 174.490473 79.613392 
L 174.744236 96.519614 
L 174.997999 79.613392 
L 175.251762 95.219132 
L 175.505525 79.613392 
L 175.759289 95.219132 
L 176.013052 79.613392 
L 176.266815 95.219132 
L 176.520578 78.312926 
L 176.774342 93.918666 
L 177.028105 78.312926 
L 177.281868 93.918666 
L 177.535631 79.613392 
L 177.789395 93.918666 
L 178.043158 79.613392 
L 178.296921 93.918666 
L 178.550684 79.613392 
L 178.804448 93.918666 
L 179.058211 78.312926 
L 179.311974 93.918666 
L 179.565737 78.312926 
L 179.819501 92.618183 
L 180.073264 78.312926 
L 180.327027 88.716752 
L 180.58079 77.012444 
L 180.834554 88.716752 
L 181.088317 77.012444 
L 181.34208 87.41627 
L 181.595843 77.012444 
L 181.849607 84.815305 
L 182.10337 77.012444 
L 182.357133 84.815305 
L 182.610896 75.711961 
L 182.86466 84.815305 
L 183.118423 75.711961 
L 183.372186 82.214357 
L 183.625949 74.411479 
L 183.879713 82.214357 
L 184.133476 74.411479 
L 184.387239 79.613392 
L 184.641002 74.411479 
L 184.894766 79.613392 
L 185.148529 73.110997 
L 185.402292 79.613392 
L 185.656055 73.110997 
L 185.909819 79.613392 
L 186.163582 74.411479 
L 186.417345 79.613392 
L 186.671108 74.411479 
L 186.924872 79.613392 
L 187.178635 74.411479 
L 187.432398 79.613392 
L 187.686161 74.411479 
L 187.939925 79.613392 
L 188.193688 74.411479 
L 188.447451 78.312926 
L 188.701214 74.411479 
L 188.954977 77.012444 
L 189.208741 71.810531 
L 189.462504 77.012444 
L 189.716267 71.810531 
L 189.97003 77.012444 
L 190.223794 71.810531 
L 190.477557 77.012444 
L 190.73132 71.810531 
L 190.985083 73.110997 
L 191.238847 71.810531 
L 191.49261 75.711961 
L 191.746373 71.810531 
L 192.000136 74.411479 
L 192.2539 71.810531 
L 192.507663 73.110997 
L 192.761426 71.810531 
L 193.015189 71.810531 
L 193.268953 70.510048 
L 193.522716 74.411479 
L 193.776479 70.510048 
L 194.030242 73.110997 
L 194.284006 70.510048 
L 194.537769 71.810531 
L 194.791532 70.510048 
L 196.821638 70.510048 
L 197.075401 71.810531 
L 197.582928 69.209566 
L 197.836691 70.510048 
L 198.090454 69.209566 
L 198.344218 70.510048 
L 198.597981 69.209566 
L 198.851744 70.510048 
L 199.105507 69.209566 
L 199.359271 70.510048 
L 199.613034 69.209566 
L 199.866797 70.510048 
L 200.12056 69.209566 
L 200.374324 70.510048 
L 200.628087 69.209566 
L 200.88185 70.510048 
L 201.135613 69.209566 
L 201.389377 70.510048 
L 201.64314 69.209566 
L 201.896903 70.510048 
L 202.150666 69.209566 
L 202.404429 70.510048 
L 202.658193 69.209566 
L 202.911956 70.510048 
L 203.165719 67.909084 
L 203.419482 70.510048 
L 203.673246 67.909084 
L 203.927009 70.510048 
L 204.180772 67.909084 
L 204.434535 70.510048 
L 204.688299 67.909084 
L 204.942062 70.510048 
L 205.195825 67.909084 
L 205.449588 70.510048 
L 205.703352 67.909084 
L 205.957115 70.510048 
L 206.210878 67.909084 
L 206.464641 70.510048 
L 206.718405 67.909084 
L 206.972168 70.510048 
L 207.225931 67.909084 
L 207.479694 70.510048 
L 207.733458 69.209566 
L 207.987221 70.510048 
L 208.240984 69.209566 
L 213.062486 69.209566 
L 213.316249 67.909084 
L 218.137751 67.909084 
L 218.391514 66.608617 
L 243.260312 66.608617 
L 243.514075 65.308135 
L 255.948474 65.308135 
L 256.202237 64.007653 
L 257.471054 64.007653 
L 257.724817 62.70717 
L 277.264587 62.70717 
L 277.51835 61.406704 
L 281.324799 61.406704 
L 281.578562 60.106222 
L 288.176406 60.106222 
L 288.43017 58.80574 
L 289.191459 58.80574 
L 289.445223 57.505257 
L 303.148438 57.505257 
L 303.402201 56.204791 
L 324.46455 56.204791 
L 324.718314 54.904309 
L 325.479603 54.904309 
L 325.733367 53.603826 
L 331.316158 53.603826 
L 331.569921 52.303344 
L 332.584974 52.303344 
L 332.838738 51.002878 
L 382.576334 51.002878 
L 382.830097 49.702396 
L 499.307426 49.702396 
L 499.56119 48.401913 
L 534.834281 48.401913 
L 535.088044 47.101431 
L 596.752513 47.101431 
L 597.006276 45.800965 
L 622.636364 45.800965 
L 622.636364 45.800965 
" style="fill:none;opacity:0.7;stroke:#1976d2;stroke-linecap:square;"/>
   </g>
   <g id="line2d_40">
    <path clip-path="url(#pa74bcb3110)" d="M 115.363636 157.356005 
L 115.6174 222.587999 
L 115.871163 151.919994 
L 116.124926 222.587999 
L 116.378689 135.611993 
L 116.632453 222.587999 
L 116.886216 135.611993 
L 117.139979 222.587999 
L 117.393742 135.611993 
L 117.647506 222.587999 
L 117.901269 130.175998 
L 118.155032 222.587999 
L 118.408795 124.740003 
L 118.662559 222.587999 
L 118.916322 119.303992 
L 119.170085 222.587999 
L 119.423848 124.740003 
L 119.677612 222.587999 
L 119.931375 113.867997 
L 120.185138 222.587999 
L 120.438901 113.867997 
L 120.692665 222.587999 
L 120.946428 113.867997 
L 121.200191 222.587999 
L 121.453954 108.432003 
L 121.707717 222.587999 
L 121.961481 108.432003 
L 122.215244 222.587999 
L 122.469007 102.996008 
L 122.72277 222.587999 
L 122.976534 102.996008 
L 123.230297 222.587999 
L 123.48406 102.996008 
L 123.737823 222.587999 
L 123.991587 97.559997 
L 124.24535 222.587999 
L 124.499113 92.124002 
L 124.752876 222.587999 
L 125.00664 92.124002 
L 125.260403 222.587999 
L 125.514166 92.124002 
L 125.767929 222.587999 
L 126.021693 86.688007 
L 126.275456 222.587999 
L 126.529219 86.688007 
L 126.782982 222.587999 
L 127.036746 86.688007 
L 127.290509 222.587999 
L 127.544272 86.688007 
L 127.798035 222.587999 
L 128.051799 86.688007 
L 128.305562 222.587999 
L 128.559325 92.124002 
L 128.813088 222.587999 
L 129.066852 92.124002 
L 129.320615 222.587999 
L 129.574378 92.124002 
L 129.828141 222.587999 
L 130.081905 92.124002 
L 130.335668 222.587999 
L 130.589431 92.124002 
L 130.843194 222.587999 
L 131.096958 92.124002 
L 131.350721 222.587999 
L 131.604484 92.124002 
L 131.858247 222.587999 
L 132.112011 86.688007 
L 132.365774 222.587999 
L 132.619537 86.688007 
L 132.8733 222.587999 
L 133.127064 86.688007 
L 133.380827 222.587999 
L 133.63459 86.688007 
L 133.888353 222.587999 
L 134.142117 92.124002 
L 134.39588 222.587999 
L 134.649643 92.124002 
L 134.903406 222.587999 
L 135.157169 92.124002 
L 135.410933 222.587999 
L 135.664696 92.124002 
L 135.918459 222.587999 
L 136.172222 86.688007 
L 136.425986 222.587999 
L 136.679749 86.688007 
L 136.933512 222.587999 
L 137.187275 86.688007 
L 137.441039 222.587999 
L 137.694802 92.124002 
L 137.948565 222.587999 
L 138.202328 97.559997 
L 138.456092 222.587999 
L 138.709855 97.559997 
L 138.963618 222.587999 
L 139.217381 97.559997 
L 139.471145 222.587999 
L 139.724908 97.559997 
L 139.978671 222.587999 
L 140.232434 97.559997 
L 140.486198 222.587999 
L 140.739961 97.559997 
L 140.993724 222.587999 
L 141.247487 97.559997 
L 141.501251 222.587999 
L 141.755014 97.559997 
L 142.008777 222.587999 
L 142.26254 97.559997 
L 142.516304 217.151996 
L 142.770067 97.559997 
L 143.02383 217.151996 
L 143.277593 97.559997 
L 143.531357 217.151996 
L 143.78512 97.559997 
L 144.038883 217.151996 
L 144.292646 97.559997 
L 144.54641 217.151996 
L 144.800173 97.559997 
L 145.053936 217.151996 
L 145.307699 102.996008 
L 145.561463 217.151996 
L 145.815226 102.996008 
L 146.068989 217.151996 
L 146.322752 102.996008 
L 146.576516 211.716001 
L 146.830279 108.432003 
L 147.084042 211.716001 
L 147.337805 108.432003 
L 147.591569 211.716001 
L 147.845332 108.432003 
L 148.099095 206.279998 
L 148.352858 108.432003 
L 148.606621 206.279998 
L 148.860385 108.432003 
L 149.114148 206.279998 
L 149.367911 108.432003 
L 149.621674 206.279998 
L 149.875438 108.432003 
L 150.129201 206.279998 
L 150.382964 108.432003 
L 150.636727 206.279998 
L 150.890491 108.432003 
L 151.144254 206.279998 
L 151.398017 108.432003 
L 151.65178 206.279998 
L 151.905544 108.432003 
L 152.159307 206.279998 
L 152.41307 108.432003 
L 152.666833 206.279998 
L 152.920597 108.432003 
L 153.17436 206.279998 
L 153.428123 108.432003 
L 153.681886 206.279998 
L 153.93565 108.432003 
L 154.189413 200.844004 
L 154.443176 108.432003 
L 154.696939 200.844004 
L 154.950703 108.432003 
L 155.204466 195.408001 
L 155.458229 108.432003 
L 155.711992 195.408001 
L 155.965756 108.432003 
L 156.219519 195.408001 
L 156.473282 108.432003 
L 156.727045 195.408001 
L 156.980809 108.432003 
L 157.234572 195.408001 
L 157.488335 108.432003 
L 157.742098 195.408001 
L 157.995862 102.996008 
L 158.249625 195.408001 
L 158.503388 102.996008 
L 158.757151 195.408001 
L 159.010915 102.996008 
L 159.264678 195.408001 
L 159.518441 102.996008 
L 159.772204 195.408001 
L 160.025968 102.996008 
L 160.279731 195.408001 
L 160.533494 102.996008 
L 160.787257 195.408001 
L 161.041021 102.996008 
L 161.294784 189.971998 
L 161.548547 102.996008 
L 161.80231 189.971998 
L 162.056073 102.996008 
L 162.309837 189.971998 
L 162.5636 102.996008 
L 162.817363 189.971998 
L 163.071126 102.996008 
L 163.32489 184.536003 
L 163.578653 102.996008 
L 163.832416 184.536003 
L 164.086179 102.996008 
L 164.339943 184.536003 
L 164.593706 97.559997 
L 164.847469 184.536003 
L 165.101232 102.996008 
L 165.354996 184.536003 
L 165.608759 102.996008 
L 165.862522 184.536003 
L 166.116285 102.996008 
L 166.370049 184.536003 
L 166.623812 102.996008 
L 166.877575 184.536003 
L 167.131338 102.996008 
L 167.385102 173.664005 
L 167.638865 102.996008 
L 167.892628 173.664005 
L 168.146391 102.996008 
L 168.400155 173.664005 
L 168.653918 102.996008 
L 168.907681 173.664005 
L 169.161444 102.996008 
L 169.415208 173.664005 
L 169.668971 102.996008 
L 169.922734 168.227994 
L 170.176497 102.996008 
L 170.430261 168.227994 
L 170.684024 102.996008 
L 170.937787 168.227994 
L 171.19155 102.996008 
L 171.445314 168.227994 
L 171.699077 102.996008 
L 171.95284 168.227994 
L 172.206603 102.996008 
L 172.460367 168.227994 
L 172.71413 102.996008 
L 172.967893 168.227994 
L 173.221656 102.996008 
L 173.47542 168.227994 
L 173.729183 102.996008 
L 173.982946 168.227994 
L 174.236709 102.996008 
L 174.490473 168.227994 
L 174.744236 102.996008 
L 174.997999 168.227994 
L 175.251762 102.996008 
L 175.505525 168.227994 
L 175.759289 102.996008 
L 176.013052 168.227994 
L 176.266815 102.996008 
L 176.520578 168.227994 
L 176.774342 102.996008 
L 177.028105 168.227994 
L 177.281868 102.996008 
L 177.535631 168.227994 
L 177.789395 102.996008 
L 178.043158 168.227994 
L 178.296921 102.996008 
L 178.550684 168.227994 
L 178.804448 102.996008 
L 179.058211 162.791999 
L 179.311974 102.996008 
L 179.565737 151.919994 
L 179.819501 102.996008 
L 180.073264 151.919994 
L 180.327027 102.996008 
L 180.58079 151.919994 
L 180.834554 102.996008 
L 181.088317 151.919994 
L 181.34208 102.996008 
L 181.595843 151.919994 
L 181.849607 102.996008 
L 182.10337 151.919994 
L 182.357133 102.996008 
L 182.610896 151.919994 
L 182.86466 102.996008 
L 183.118423 151.919994 
L 183.372186 108.432003 
L 183.625949 151.919994 
L 183.879713 108.432003 
L 184.133476 151.919994 
L 184.387239 108.432003 
L 184.641002 151.919994 
L 184.894766 108.432003 
L 185.148529 151.919994 
L 185.402292 108.432003 
L 185.656055 151.919994 
L 185.909819 108.432003 
L 186.163582 151.919994 
L 186.417345 108.432003 
L 186.671108 146.483999 
L 186.924872 108.432003 
L 187.178635 135.611993 
L 187.432398 108.432003 
L 187.686161 135.611993 
L 187.939925 108.432003 
L 188.193688 135.611993 
L 188.447451 113.867997 
L 188.701214 135.611993 
L 188.954977 113.867997 
L 189.208741 135.611993 
L 189.462504 113.867997 
L 189.716267 135.611993 
L 189.97003 113.867997 
L 190.223794 135.611993 
L 190.477557 113.867997 
L 190.73132 141.048004 
L 190.985083 113.867997 
L 191.238847 141.048004 
L 191.49261 113.867997 
L 191.746373 141.048004 
L 192.000136 113.867997 
L 192.2539 141.048004 
L 192.507663 113.867997 
L 192.761426 146.483999 
L 193.015189 113.867997 
L 193.268953 141.048004 
L 193.522716 113.867997 
L 193.776479 141.048004 
L 194.030242 119.303992 
L 194.284006 141.048004 
L 194.537769 124.740003 
L 194.791532 141.048004 
L 195.045295 124.740003 
L 195.299059 141.048004 
L 195.552822 124.740003 
L 195.806585 141.048004 
L 196.060348 124.740003 
L 196.314112 141.048004 
L 196.567875 124.740003 
L 196.821638 141.048004 
L 197.075401 124.740003 
L 197.329165 141.048004 
L 197.582928 124.740003 
L 197.836691 141.048004 
L 198.090454 124.740003 
L 198.344218 141.048004 
L 198.597981 124.740003 
L 198.851744 135.611993 
L 199.105507 124.740003 
L 199.359271 135.611993 
L 199.613034 124.740003 
L 199.866797 135.611993 
L 200.12056 124.740003 
L 200.374324 135.611993 
L 200.628087 124.740003 
L 200.88185 135.611993 
L 201.135613 124.740003 
L 201.389377 130.175998 
L 201.64314 124.740003 
L 201.896903 130.175998 
L 202.150666 124.740003 
L 202.404429 135.611993 
L 202.658193 124.740003 
L 202.911956 135.611993 
L 203.165719 124.740003 
L 203.419482 130.175998 
L 227.273228 130.175998 
L 227.526991 124.740003 
L 257.471054 124.740003 
L 257.724817 119.303992 
L 271.174269 119.303992 
L 271.428032 113.867997 
L 296.804357 113.867997 
L 297.05812 119.303992 
L 468.855837 119.303992 
L 469.1096 124.740003 
L 519.862249 124.740003 
L 520.116013 119.303992 
L 622.636364 119.303992 
L 622.636364 119.303992 
" style="fill:none;opacity:0.7;stroke:#ff9800;stroke-linecap:square;"/>
   </g>
   <g id="patch_3">
    <path d="M 90 315 
L 90 43.2 
" style="fill:none;stroke:#000000;stroke-linecap:square;stroke-linejoin:miter;stroke-width:0.8;"/>
   </g>
   <g id="patch_4">
    <path d="M 648 315 
L 648 43.2 
" style="fill:none;stroke:#000000;stroke-linecap:square;stroke-linejoin:miter;stroke-width:0.8;"/>
   </g>
   <g id="patch_5">
    <path d="M 90 315 
L 648 315 
" style="fill:none;stroke:#000000;stroke-linecap:square;stroke-linejoin:miter;stroke-width:0.8;"/>
   </g>
   <g id="patch_6">
    <path d="M 90 43.2 
L 648 43.2 
" style="fill:none;stroke:#000000;stroke-linecap:square;stroke-linejoin:miter;stroke-width:0.8;"/>
   </g>
   <g id="text_22">
    <!-- Model accuracy -->
    <defs>
     <path d="M 9.8125 72.90625 
L 24.515625 72.90625 
L 43.109375 23.296875 
L 61.8125 72.90625 
L 76.515625 72.90625 
L 76.515625 0 
L 66.890625 0 
L 66.890625 64.015625 
L 48.09375 14.015625 
L 38.1875 14.015625 
L 19.390625 64.015625 
L 19.390625 0 
L 9.8125 0 
z
" id="DejaVuSans-4d"/>
     <path d="M 45.40625 46.390625 
L 45.40625 75.984375 
L 54.390625 75.984375 
L 54.390625 0 
L 45.40625 0 
L 45.40625 8.203125 
Q 42.578125 3.328125 38.25 0.953125 
Q 33.9375 -1.421875 27.875 -1.421875 
Q 17.96875 -1.421875 11.734375 6.484375 
Q 5.515625 14.40625 5.515625 27.296875 
Q 5.515625 40.1875 11.734375 48.09375 
Q 17.96875 56 27.875 56 
Q 33.9375 56 38.25 53.625 
Q 42.578125 51.265625 45.40625 46.390625 
z
M 14.796875 27.296875 
Q 14.796875 17.390625 18.875 11.75 
Q 22.953125 6.109375 30.078125 6.109375 
Q 37.203125 6.109375 41.296875 11.75 
Q 45.40625 17.390625 45.40625 27.296875 
Q 45.40625 37.203125 41.296875 42.84375 
Q 37.203125 48.484375 30.078125 48.484375 
Q 22.953125 48.484375 18.875 42.84375 
Q 14.796875 37.203125 14.796875 27.296875 
z
" id="DejaVuSans-64"/>
     <path d="M 9.421875 75.984375 
L 18.40625 75.984375 
L 18.40625 0 
L 9.421875 0 
z
" id="DejaVuSans-6c"/>
     <path id="DejaVuSans-20"/>
    </defs>
    <g transform="translate(322.005938 23.762625)scale(0.12 -0.12)">
     <use xlink:href="#DejaVuSans-4d"/>
     <use x="86.279297" xlink:href="#DejaVuSans-6f"/>
     <use x="147.460938" xlink:href="#DejaVuSans-64"/>
     <use x="210.9375" xlink:href="#DejaVuSans-65"/>
     <use x="272.460938" xlink:href="#DejaVuSans-6c"/>
     <use x="300.244141" xlink:href="#DejaVuSans-20"/>
     <use x="332.03125" xlink:href="#DejaVuSans-61"/>
     <use x="393.310547" xlink:href="#DejaVuSans-63"/>
     <use x="448.291016" xlink:href="#DejaVuSans-63"/>
     <use x="503.271484" xlink:href="#DejaVuSans-75"/>
     <use x="566.650391" xlink:href="#DejaVuSans-72"/>
     <use x="607.763672" xlink:href="#DejaVuSans-61"/>
     <use x="669.042969" xlink:href="#DejaVuSans-63"/>
     <use x="724.023438" xlink:href="#DejaVuSans-79"/>
    </g>
    <!-- Modified course assignment results -->
    <defs>
     <path d="M 9.421875 54.6875 
L 18.40625 54.6875 
L 18.40625 0 
L 9.421875 0 
z
M 9.421875 75.984375 
L 18.40625 75.984375 
L 18.40625 64.59375 
L 9.421875 64.59375 
z
" id="DejaVuSans-69"/>
     <path d="M 37.109375 75.984375 
L 37.109375 68.5 
L 28.515625 68.5 
Q 23.6875 68.5 21.796875 66.546875 
Q 19.921875 64.59375 19.921875 59.515625 
L 19.921875 54.6875 
L 34.71875 54.6875 
L 34.71875 47.703125 
L 19.921875 47.703125 
L 19.921875 0 
L 10.890625 0 
L 10.890625 47.703125 
L 2.296875 47.703125 
L 2.296875 54.6875 
L 10.890625 54.6875 
L 10.890625 58.5 
Q 10.890625 67.625 15.140625 71.796875 
Q 19.390625 75.984375 28.609375 75.984375 
z
" id="DejaVuSans-66"/>
     <path d="M 44.28125 53.078125 
L 44.28125 44.578125 
Q 40.484375 46.53125 36.375 47.5 
Q 32.28125 48.484375 27.875 48.484375 
Q 21.1875 48.484375 17.84375 46.4375 
Q 14.5 44.390625 14.5 40.28125 
Q 14.5 37.15625 16.890625 35.375 
Q 19.28125 33.59375 26.515625 31.984375 
L 29.59375 31.296875 
Q 39.15625 29.25 43.1875 25.515625 
Q 47.21875 21.78125 47.21875 15.09375 
Q 47.21875 7.46875 41.1875 3.015625 
Q 35.15625 -1.421875 24.609375 -1.421875 
Q 20.21875 -1.421875 15.453125 -0.5625 
Q 10.6875 0.296875 5.421875 2 
L 5.421875 11.28125 
Q 10.40625 8.6875 15.234375 7.390625 
Q 20.0625 6.109375 24.8125 6.109375 
Q 31.15625 6.109375 34.5625 8.28125 
Q 37.984375 10.453125 37.984375 14.40625 
Q 37.984375 18.0625 35.515625 20.015625 
Q 33.0625 21.96875 24.703125 23.78125 
L 21.578125 24.515625 
Q 13.234375 26.265625 9.515625 29.90625 
Q 5.8125 33.546875 5.8125 39.890625 
Q 5.8125 47.609375 11.28125 51.796875 
Q 16.75 56 26.8125 56 
Q 31.78125 56 36.171875 55.265625 
Q 40.578125 54.546875 44.28125 53.078125 
z
" id="DejaVuSans-73"/>
     <path d="M 45.40625 27.984375 
Q 45.40625 37.75 41.375 43.109375 
Q 37.359375 48.484375 30.078125 48.484375 
Q 22.859375 48.484375 18.828125 43.109375 
Q 14.796875 37.75 14.796875 27.984375 
Q 14.796875 18.265625 18.828125 12.890625 
Q 22.859375 7.515625 30.078125 7.515625 
Q 37.359375 7.515625 41.375 12.890625 
Q 45.40625 18.265625 45.40625 27.984375 
z
M 54.390625 6.78125 
Q 54.390625 -7.171875 48.1875 -13.984375 
Q 42 -20.796875 29.203125 -20.796875 
Q 24.46875 -20.796875 20.265625 -20.09375 
Q 16.0625 -19.390625 12.109375 -17.921875 
L 12.109375 -9.1875 
Q 16.0625 -11.328125 19.921875 -12.34375 
Q 23.78125 -13.375 27.78125 -13.375 
Q 36.625 -13.375 41.015625 -8.765625 
Q 45.40625 -4.15625 45.40625 5.171875 
L 45.40625 9.625 
Q 42.625 4.78125 38.28125 2.390625 
Q 33.9375 0 27.875 0 
Q 17.828125 0 11.671875 7.65625 
Q 5.515625 15.328125 5.515625 27.984375 
Q 5.515625 40.671875 11.671875 48.328125 
Q 17.828125 56 27.875 56 
Q 33.9375 56 38.28125 53.609375 
Q 42.625 51.21875 45.40625 46.390625 
L 45.40625 54.6875 
L 54.390625 54.6875 
z
" id="DejaVuSans-67"/>
     <path d="M 54.890625 33.015625 
L 54.890625 0 
L 45.90625 0 
L 45.90625 32.71875 
Q 45.90625 40.484375 42.875 44.328125 
Q 39.84375 48.1875 33.796875 48.1875 
Q 26.515625 48.1875 22.3125 43.546875 
Q 18.109375 38.921875 18.109375 30.90625 
L 18.109375 0 
L 9.078125 0 
L 9.078125 54.6875 
L 18.109375 54.6875 
L 18.109375 46.1875 
Q 21.34375 51.125 25.703125 53.5625 
Q 30.078125 56 35.796875 56 
Q 45.21875 56 50.046875 50.171875 
Q 54.890625 44.34375 54.890625 33.015625 
z
" id="DejaVuSans-6e"/>
     <path d="M 52 44.1875 
Q 55.375 50.25 60.0625 53.125 
Q 64.75 56 71.09375 56 
Q 79.640625 56 84.28125 50.015625 
Q 88.921875 44.046875 88.921875 33.015625 
L 88.921875 0 
L 79.890625 0 
L 79.890625 32.71875 
Q 79.890625 40.578125 77.09375 44.375 
Q 74.3125 48.1875 68.609375 48.1875 
Q 61.625 48.1875 57.5625 43.546875 
Q 53.515625 38.921875 53.515625 30.90625 
L 53.515625 0 
L 44.484375 0 
L 44.484375 32.71875 
Q 44.484375 40.625 41.703125 44.40625 
Q 38.921875 48.1875 33.109375 48.1875 
Q 26.21875 48.1875 22.15625 43.53125 
Q 18.109375 38.875 18.109375 30.90625 
L 18.109375 0 
L 9.078125 0 
L 9.078125 54.6875 
L 18.109375 54.6875 
L 18.109375 46.1875 
Q 21.1875 51.21875 25.484375 53.609375 
Q 29.78125 56 35.6875 56 
Q 41.65625 56 45.828125 52.96875 
Q 50 49.953125 52 44.1875 
z
" id="DejaVuSans-6d"/>
     <path d="M 18.3125 70.21875 
L 18.3125 54.6875 
L 36.8125 54.6875 
L 36.8125 47.703125 
L 18.3125 47.703125 
L 18.3125 18.015625 
Q 18.3125 11.328125 20.140625 9.421875 
Q 21.96875 7.515625 27.59375 7.515625 
L 36.8125 7.515625 
L 36.8125 0 
L 27.59375 0 
Q 17.1875 0 13.234375 3.875 
Q 9.28125 7.765625 9.28125 18.015625 
L 9.28125 47.703125 
L 2.6875 47.703125 
L 2.6875 54.6875 
L 9.28125 54.6875 
L 9.28125 70.21875 
z
" id="DejaVuSans-74"/>
    </defs>
    <g transform="translate(262.491562 37.2)scale(0.12 -0.12)">
     <use xlink:href="#DejaVuSans-4d"/>
     <use x="86.279297" xlink:href="#DejaVuSans-6f"/>
     <use x="147.460938" xlink:href="#DejaVuSans-64"/>
     <use x="210.9375" xlink:href="#DejaVuSans-69"/>
     <use x="238.720703" xlink:href="#DejaVuSans-66"/>
     <use x="273.925781" xlink:href="#DejaVuSans-69"/>
     <use x="301.708984" xlink:href="#DejaVuSans-65"/>
     <use x="363.232422" xlink:href="#DejaVuSans-64"/>
     <use x="426.708984" xlink:href="#DejaVuSans-20"/>
     <use x="458.496094" xlink:href="#DejaVuSans-63"/>
     <use x="513.476562" xlink:href="#DejaVuSans-6f"/>
     <use x="574.658203" xlink:href="#DejaVuSans-75"/>
     <use x="638.037109" xlink:href="#DejaVuSans-72"/>
     <use x="679.150391" xlink:href="#DejaVuSans-73"/>
     <use x="731.25" xlink:href="#DejaVuSans-65"/>
     <use x="792.773438" xlink:href="#DejaVuSans-20"/>
     <use x="824.560547" xlink:href="#DejaVuSans-61"/>
     <use x="885.839844" xlink:href="#DejaVuSans-73"/>
     <use x="937.939453" xlink:href="#DejaVuSans-73"/>
     <use x="990.039062" xlink:href="#DejaVuSans-69"/>
     <use x="1017.822266" xlink:href="#DejaVuSans-67"/>
     <use x="1081.298828" xlink:href="#DejaVuSans-6e"/>
     <use x="1144.677734" xlink:href="#DejaVuSans-6d"/>
     <use x="1242.089844" xlink:href="#DejaVuSans-65"/>
     <use x="1303.613281" xlink:href="#DejaVuSans-6e"/>
     <use x="1366.992188" xlink:href="#DejaVuSans-74"/>
     <use x="1406.201172" xlink:href="#DejaVuSans-20"/>
     <use x="1437.988281" xlink:href="#DejaVuSans-72"/>
     <use x="1479.070312" xlink:href="#DejaVuSans-65"/>
     <use x="1540.59375" xlink:href="#DejaVuSans-73"/>
     <use x="1592.693359" xlink:href="#DejaVuSans-75"/>
     <use x="1656.072266" xlink:href="#DejaVuSans-6c"/>
     <use x="1683.855469" xlink:href="#DejaVuSans-74"/>
     <use x="1723.064453" xlink:href="#DejaVuSans-73"/>
    </g>
   </g>
  </g>
 </g>
 <defs>
  <clipPath id="pa74bcb3110">
   <rect height="271.8" width="558" x="90" y="43.2"/>
  </clipPath>
 </defs>
</svg>
