<?xml version="1.0" encoding="utf-8" standalone="no"?>
<!DOCTYPE svg PUBLIC "-//W3C//DTD SVG 1.1//EN"
  "http://www.w3.org/Graphics/SVG/1.1/DTD/svg11.dtd">
<!-- Created with matplotlib (http://matplotlib.org/) -->
<svg height="360pt" version="1.1" viewBox="0 0 720 360" width="720pt" xmlns="http://www.w3.org/2000/svg" xmlns:xlink="http://www.w3.org/1999/xlink">
 <defs>
  <style type="text/css">
*{stroke-linecap:butt;stroke-linejoin:round;}
  </style>
 </defs>
 <g id="figure_1">
  <g id="patch_1">
   <path d="M 0 360 
L 720 360 
L 720 0 
L 0 0 
z
" style="fill:#ffffff;"/>
  </g>
  <g id="axes_1">
   <g id="patch_2">
    <path d="M 90 315 
L 648 315 
L 648 43.2 
L 90 43.2 
z
" style="fill:#ffffff;"/>
   </g>
   <g id="matplotlib.axis_1">
    <g id="xtick_1">
     <g id="line2d_1">
      <path clip-path="url(#p81eb1455a1)" d="M 115.363636 315 
L 115.363636 43.2 
" style="fill:none;stroke:#000000;stroke-dasharray:0.8,1.32;stroke-dashoffset:0;stroke-width:0.8;"/>
     </g>
     <g id="line2d_2">
      <defs>
       <path d="M 0 0 
L 0 3.5 
" id="mc69e86c691" style="stroke:#000000;stroke-width:0.8;"/>
      </defs>
      <g>
       <use style="stroke:#000000;stroke-width:0.8;" x="115.363636" xlink:href="#mc69e86c691" y="315"/>
      </g>
     </g>
     <g id="text_1">
      <!-- 0 -->
      <defs>
       <path d="M 31.78125 66.40625 
Q 24.171875 66.40625 20.328125 58.90625 
Q 16.5 51.421875 16.5 36.375 
Q 16.5 21.390625 20.328125 13.890625 
Q 24.171875 6.390625 31.78125 6.390625 
Q 39.453125 6.390625 43.28125 13.890625 
Q 47.125 21.390625 47.125 36.375 
Q 47.125 51.421875 43.28125 58.90625 
Q 39.453125 66.40625 31.78125 66.40625 
z
M 31.78125 74.21875 
Q 44.046875 74.21875 50.515625 64.515625 
Q 56.984375 54.828125 56.984375 36.375 
Q 56.984375 17.96875 50.515625 8.265625 
Q 44.046875 -1.421875 31.78125 -1.421875 
Q 19.53125 -1.421875 13.0625 8.265625 
Q 6.59375 17.96875 6.59375 36.375 
Q 6.59375 54.828125 13.0625 64.515625 
Q 19.53125 74.21875 31.78125 74.21875 
z
" id="DejaVuSans-30"/>
      </defs>
      <g transform="translate(112.182386 329.598437)scale(0.1 -0.1)">
       <use xlink:href="#DejaVuSans-30"/>
      </g>
     </g>
    </g>
    <g id="xtick_2">
     <g id="line2d_3">
      <path clip-path="url(#p81eb1455a1)" d="M 216.919738 315 
L 216.919738 43.2 
" style="fill:none;stroke:#000000;stroke-dasharray:0.8,1.32;stroke-dashoffset:0;stroke-width:0.8;"/>
     </g>
     <g id="line2d_4">
      <g>
       <use style="stroke:#000000;stroke-width:0.8;" x="216.919738" xlink:href="#mc69e86c691" y="315"/>
      </g>
     </g>
     <g id="text_2">
      <!-- 200 -->
      <defs>
       <path d="M 19.1875 8.296875 
L 53.609375 8.296875 
L 53.609375 0 
L 7.328125 0 
L 7.328125 8.296875 
Q 12.9375 14.109375 22.625 23.890625 
Q 32.328125 33.6875 34.8125 36.53125 
Q 39.546875 41.84375 41.421875 45.53125 
Q 43.3125 49.21875 43.3125 52.78125 
Q 43.3125 58.59375 39.234375 62.25 
Q 35.15625 65.921875 28.609375 65.921875 
Q 23.96875 65.921875 18.8125 64.3125 
Q 13.671875 62.703125 7.8125 59.421875 
L 7.8125 69.390625 
Q 13.765625 71.78125 18.9375 73 
Q 24.125 74.21875 28.421875 74.21875 
Q 39.75 74.21875 46.484375 68.546875 
Q 53.21875 62.890625 53.21875 53.421875 
Q 53.21875 48.921875 51.53125 44.890625 
Q 49.859375 40.875 45.40625 35.40625 
Q 44.1875 33.984375 37.640625 27.21875 
Q 31.109375 20.453125 19.1875 8.296875 
z
" id="DejaVuSans-32"/>
      </defs>
      <g transform="translate(207.375988 329.598437)scale(0.1 -0.1)">
       <use xlink:href="#DejaVuSans-32"/>
       <use x="63.623047" xlink:href="#DejaVuSans-30"/>
       <use x="127.246094" xlink:href="#DejaVuSans-30"/>
      </g>
     </g>
    </g>
    <g id="xtick_3">
     <g id="line2d_5">
      <path clip-path="url(#p81eb1455a1)" d="M 318.475839 315 
L 318.475839 43.2 
" style="fill:none;stroke:#000000;stroke-dasharray:0.8,1.32;stroke-dashoffset:0;stroke-width:0.8;"/>
     </g>
     <g id="line2d_6">
      <g>
       <use style="stroke:#000000;stroke-width:0.8;" x="318.475839" xlink:href="#mc69e86c691" y="315"/>
      </g>
     </g>
     <g id="text_3">
      <!-- 400 -->
      <defs>
       <path d="M 37.796875 64.3125 
L 12.890625 25.390625 
L 37.796875 25.390625 
z
M 35.203125 72.90625 
L 47.609375 72.90625 
L 47.609375 25.390625 
L 58.015625 25.390625 
L 58.015625 17.1875 
L 47.609375 17.1875 
L 47.609375 0 
L 37.796875 0 
L 37.796875 17.1875 
L 4.890625 17.1875 
L 4.890625 26.703125 
z
" id="DejaVuSans-34"/>
      </defs>
      <g transform="translate(308.932089 329.598437)scale(0.1 -0.1)">
       <use xlink:href="#DejaVuSans-34"/>
       <use x="63.623047" xlink:href="#DejaVuSans-30"/>
       <use x="127.246094" xlink:href="#DejaVuSans-30"/>
      </g>
     </g>
    </g>
    <g id="xtick_4">
     <g id="line2d_7">
      <path clip-path="url(#p81eb1455a1)" d="M 420.031941 315 
L 420.031941 43.2 
" style="fill:none;stroke:#000000;stroke-dasharray:0.8,1.32;stroke-dashoffset:0;stroke-width:0.8;"/>
     </g>
     <g id="line2d_8">
      <g>
       <use style="stroke:#000000;stroke-width:0.8;" x="420.031941" xlink:href="#mc69e86c691" y="315"/>
      </g>
     </g>
     <g id="text_4">
      <!-- 600 -->
      <defs>
       <path d="M 33.015625 40.375 
Q 26.375 40.375 22.484375 35.828125 
Q 18.609375 31.296875 18.609375 23.390625 
Q 18.609375 15.53125 22.484375 10.953125 
Q 26.375 6.390625 33.015625 6.390625 
Q 39.65625 6.390625 43.53125 10.953125 
Q 47.40625 15.53125 47.40625 23.390625 
Q 47.40625 31.296875 43.53125 35.828125 
Q 39.65625 40.375 33.015625 40.375 
z
M 52.59375 71.296875 
L 52.59375 62.3125 
Q 48.875 64.0625 45.09375 64.984375 
Q 41.3125 65.921875 37.59375 65.921875 
Q 27.828125 65.921875 22.671875 59.328125 
Q 17.53125 52.734375 16.796875 39.40625 
Q 19.671875 43.65625 24.015625 45.921875 
Q 28.375 48.1875 33.59375 48.1875 
Q 44.578125 48.1875 50.953125 41.515625 
Q 57.328125 34.859375 57.328125 23.390625 
Q 57.328125 12.15625 50.6875 5.359375 
Q 44.046875 -1.421875 33.015625 -1.421875 
Q 20.359375 -1.421875 13.671875 8.265625 
Q 6.984375 17.96875 6.984375 36.375 
Q 6.984375 53.65625 15.1875 63.9375 
Q 23.390625 74.21875 37.203125 74.21875 
Q 40.921875 74.21875 44.703125 73.484375 
Q 48.484375 72.75 52.59375 71.296875 
z
" id="DejaVuSans-36"/>
      </defs>
      <g transform="translate(410.488191 329.598437)scale(0.1 -0.1)">
       <use xlink:href="#DejaVuSans-36"/>
       <use x="63.623047" xlink:href="#DejaVuSans-30"/>
       <use x="127.246094" xlink:href="#DejaVuSans-30"/>
      </g>
     </g>
    </g>
    <g id="xtick_5">
     <g id="line2d_9">
      <path clip-path="url(#p81eb1455a1)" d="M 521.588043 315 
L 521.588043 43.2 
" style="fill:none;stroke:#000000;stroke-dasharray:0.8,1.32;stroke-dashoffset:0;stroke-width:0.8;"/>
     </g>
     <g id="line2d_10">
      <g>
       <use style="stroke:#000000;stroke-width:0.8;" x="521.588043" xlink:href="#mc69e86c691" y="315"/>
      </g>
     </g>
     <g id="text_5">
      <!-- 800 -->
      <defs>
       <path d="M 31.78125 34.625 
Q 24.75 34.625 20.71875 30.859375 
Q 16.703125 27.09375 16.703125 20.515625 
Q 16.703125 13.921875 20.71875 10.15625 
Q 24.75 6.390625 31.78125 6.390625 
Q 38.8125 6.390625 42.859375 10.171875 
Q 46.921875 13.96875 46.921875 20.515625 
Q 46.921875 27.09375 42.890625 30.859375 
Q 38.875 34.625 31.78125 34.625 
z
M 21.921875 38.8125 
Q 15.578125 40.375 12.03125 44.71875 
Q 8.5 49.078125 8.5 55.328125 
Q 8.5 64.0625 14.71875 69.140625 
Q 20.953125 74.21875 31.78125 74.21875 
Q 42.671875 74.21875 48.875 69.140625 
Q 55.078125 64.0625 55.078125 55.328125 
Q 55.078125 49.078125 51.53125 44.71875 
Q 48 40.375 41.703125 38.8125 
Q 48.828125 37.15625 52.796875 32.3125 
Q 56.78125 27.484375 56.78125 20.515625 
Q 56.78125 9.90625 50.3125 4.234375 
Q 43.84375 -1.421875 31.78125 -1.421875 
Q 19.734375 -1.421875 13.25 4.234375 
Q 6.78125 9.90625 6.78125 20.515625 
Q 6.78125 27.484375 10.78125 32.3125 
Q 14.796875 37.15625 21.921875 38.8125 
z
M 18.3125 54.390625 
Q 18.3125 48.734375 21.84375 45.5625 
Q 25.390625 42.390625 31.78125 42.390625 
Q 38.140625 42.390625 41.71875 45.5625 
Q 45.3125 48.734375 45.3125 54.390625 
Q 45.3125 60.0625 41.71875 63.234375 
Q 38.140625 66.40625 31.78125 66.40625 
Q 25.390625 66.40625 21.84375 63.234375 
Q 18.3125 60.0625 18.3125 54.390625 
z
" id="DejaVuSans-38"/>
      </defs>
      <g transform="translate(512.044293 329.598437)scale(0.1 -0.1)">
       <use xlink:href="#DejaVuSans-38"/>
       <use x="63.623047" xlink:href="#DejaVuSans-30"/>
       <use x="127.246094" xlink:href="#DejaVuSans-30"/>
      </g>
     </g>
    </g>
    <g id="xtick_6">
     <g id="line2d_11">
      <path clip-path="url(#p81eb1455a1)" d="M 623.144144 315 
L 623.144144 43.2 
" style="fill:none;stroke:#000000;stroke-dasharray:0.8,1.32;stroke-dashoffset:0;stroke-width:0.8;"/>
     </g>
     <g id="line2d_12">
      <g>
       <use style="stroke:#000000;stroke-width:0.8;" x="623.144144" xlink:href="#mc69e86c691" y="315"/>
      </g>
     </g>
     <g id="text_6">
      <!-- 1000 -->
      <defs>
       <path d="M 12.40625 8.296875 
L 28.515625 8.296875 
L 28.515625 63.921875 
L 10.984375 60.40625 
L 10.984375 69.390625 
L 28.421875 72.90625 
L 38.28125 72.90625 
L 38.28125 8.296875 
L 54.390625 8.296875 
L 54.390625 0 
L 12.40625 0 
z
" id="DejaVuSans-31"/>
      </defs>
      <g transform="translate(610.419144 329.598437)scale(0.1 -0.1)">
       <use xlink:href="#DejaVuSans-31"/>
       <use x="63.623047" xlink:href="#DejaVuSans-30"/>
       <use x="127.246094" xlink:href="#DejaVuSans-30"/>
       <use x="190.869141" xlink:href="#DejaVuSans-30"/>
      </g>
     </g>
    </g>
    <g id="text_7">
     <!-- epoch -->
     <defs>
      <path d="M 56.203125 29.59375 
L 56.203125 25.203125 
L 14.890625 25.203125 
Q 15.484375 15.921875 20.484375 11.0625 
Q 25.484375 6.203125 34.421875 6.203125 
Q 39.59375 6.203125 44.453125 7.46875 
Q 49.3125 8.734375 54.109375 11.28125 
L 54.109375 2.78125 
Q 49.265625 0.734375 44.1875 -0.34375 
Q 39.109375 -1.421875 33.890625 -1.421875 
Q 20.796875 -1.421875 13.15625 6.1875 
Q 5.515625 13.8125 5.515625 26.8125 
Q 5.515625 40.234375 12.765625 48.109375 
Q 20.015625 56 32.328125 56 
Q 43.359375 56 49.78125 48.890625 
Q 56.203125 41.796875 56.203125 29.59375 
z
M 47.21875 32.234375 
Q 47.125 39.59375 43.09375 43.984375 
Q 39.0625 48.390625 32.421875 48.390625 
Q 24.90625 48.390625 20.390625 44.140625 
Q 15.875 39.890625 15.1875 32.171875 
z
" id="DejaVuSans-65"/>
      <path d="M 18.109375 8.203125 
L 18.109375 -20.796875 
L 9.078125 -20.796875 
L 9.078125 54.6875 
L 18.109375 54.6875 
L 18.109375 46.390625 
Q 20.953125 51.265625 25.265625 53.625 
Q 29.59375 56 35.59375 56 
Q 45.5625 56 51.78125 48.09375 
Q 58.015625 40.1875 58.015625 27.296875 
Q 58.015625 14.40625 51.78125 6.484375 
Q 45.5625 -1.421875 35.59375 -1.421875 
Q 29.59375 -1.421875 25.265625 0.953125 
Q 20.953125 3.328125 18.109375 8.203125 
z
M 48.6875 27.296875 
Q 48.6875 37.203125 44.609375 42.84375 
Q 40.53125 48.484375 33.40625 48.484375 
Q 26.265625 48.484375 22.1875 42.84375 
Q 18.109375 37.203125 18.109375 27.296875 
Q 18.109375 17.390625 22.1875 11.75 
Q 26.265625 6.109375 33.40625 6.109375 
Q 40.53125 6.109375 44.609375 11.75 
Q 48.6875 17.390625 48.6875 27.296875 
z
" id="DejaVuSans-70"/>
      <path d="M 30.609375 48.390625 
Q 23.390625 48.390625 19.1875 42.75 
Q 14.984375 37.109375 14.984375 27.296875 
Q 14.984375 17.484375 19.15625 11.84375 
Q 23.34375 6.203125 30.609375 6.203125 
Q 37.796875 6.203125 41.984375 11.859375 
Q 46.1875 17.53125 46.1875 27.296875 
Q 46.1875 37.015625 41.984375 42.703125 
Q 37.796875 48.390625 30.609375 48.390625 
z
M 30.609375 56 
Q 42.328125 56 49.015625 48.375 
Q 55.71875 40.765625 55.71875 27.296875 
Q 55.71875 13.875 49.015625 6.21875 
Q 42.328125 -1.421875 30.609375 -1.421875 
Q 18.84375 -1.421875 12.171875 6.21875 
Q 5.515625 13.875 5.515625 27.296875 
Q 5.515625 40.765625 12.171875 48.375 
Q 18.84375 56 30.609375 56 
z
" id="DejaVuSans-6f"/>
      <path d="M 48.78125 52.59375 
L 48.78125 44.1875 
Q 44.96875 46.296875 41.140625 47.34375 
Q 37.3125 48.390625 33.40625 48.390625 
Q 24.65625 48.390625 19.8125 42.84375 
Q 14.984375 37.3125 14.984375 27.296875 
Q 14.984375 17.28125 19.8125 11.734375 
Q 24.65625 6.203125 33.40625 6.203125 
Q 37.3125 6.203125 41.140625 7.25 
Q 44.96875 8.296875 48.78125 10.40625 
L 48.78125 2.09375 
Q 45.015625 0.34375 40.984375 -0.53125 
Q 36.96875 -1.421875 32.421875 -1.421875 
Q 20.0625 -1.421875 12.78125 6.34375 
Q 5.515625 14.109375 5.515625 27.296875 
Q 5.515625 40.671875 12.859375 48.328125 
Q 20.21875 56 33.015625 56 
Q 37.15625 56 41.109375 55.140625 
Q 45.0625 54.296875 48.78125 52.59375 
z
" id="DejaVuSans-63"/>
      <path d="M 54.890625 33.015625 
L 54.890625 0 
L 45.90625 0 
L 45.90625 32.71875 
Q 45.90625 40.484375 42.875 44.328125 
Q 39.84375 48.1875 33.796875 48.1875 
Q 26.515625 48.1875 22.3125 43.546875 
Q 18.109375 38.921875 18.109375 30.90625 
L 18.109375 0 
L 9.078125 0 
L 9.078125 75.984375 
L 18.109375 75.984375 
L 18.109375 46.1875 
Q 21.34375 51.125 25.703125 53.5625 
Q 30.078125 56 35.796875 56 
Q 45.21875 56 50.046875 50.171875 
Q 54.890625 44.34375 54.890625 33.015625 
z
" id="DejaVuSans-68"/>
     </defs>
     <g transform="translate(353.771875 343.276563)scale(0.1 -0.1)">
      <use xlink:href="#DejaVuSans-65"/>
      <use x="61.523438" xlink:href="#DejaVuSans-70"/>
      <use x="125" xlink:href="#DejaVuSans-6f"/>
      <use x="186.181641" xlink:href="#DejaVuSans-63"/>
      <use x="241.162109" xlink:href="#DejaVuSans-68"/>
     </g>
    </g>
   </g>
   <g id="matplotlib.axis_2">
    <g id="ytick_1">
     <g id="line2d_13">
      <path clip-path="url(#p81eb1455a1)" d="M 90 315 
L 648 315 
" style="fill:none;stroke:#000000;stroke-dasharray:0.8,1.32;stroke-dashoffset:0;stroke-width:0.8;"/>
     </g>
     <g id="line2d_14">
      <defs>
       <path d="M 0 0 
L -3.5 0 
" id="m92c00eae8e" style="stroke:#000000;stroke-width:0.8;"/>
      </defs>
      <g>
       <use style="stroke:#000000;stroke-width:0.8;" x="90" xlink:href="#m92c00eae8e" y="315"/>
      </g>
     </g>
     <g id="text_8">
      <!-- 0.0 -->
      <defs>
       <path d="M 10.6875 12.40625 
L 21 12.40625 
L 21 0 
L 10.6875 0 
z
" id="DejaVuSans-2e"/>
      </defs>
      <g transform="translate(67.096875 318.799219)scale(0.1 -0.1)">
       <use xlink:href="#DejaVuSans-30"/>
       <use x="63.623047" xlink:href="#DejaVuSans-2e"/>
       <use x="95.410156" xlink:href="#DejaVuSans-30"/>
      </g>
     </g>
    </g>
    <g id="ytick_2">
     <g id="line2d_15">
      <path clip-path="url(#p81eb1455a1)" d="M 90 287.82 
L 648 287.82 
" style="fill:none;stroke:#000000;stroke-dasharray:0.8,1.32;stroke-dashoffset:0;stroke-width:0.8;"/>
     </g>
     <g id="line2d_16">
      <g>
       <use style="stroke:#000000;stroke-width:0.8;" x="90" xlink:href="#m92c00eae8e" y="287.82"/>
      </g>
     </g>
     <g id="text_9">
      <!-- 0.1 -->
      <g transform="translate(67.096875 291.619219)scale(0.1 -0.1)">
       <use xlink:href="#DejaVuSans-30"/>
       <use x="63.623047" xlink:href="#DejaVuSans-2e"/>
       <use x="95.410156" xlink:href="#DejaVuSans-31"/>
      </g>
     </g>
    </g>
    <g id="ytick_3">
     <g id="line2d_17">
      <path clip-path="url(#p81eb1455a1)" d="M 90 260.64 
L 648 260.64 
" style="fill:none;stroke:#000000;stroke-dasharray:0.8,1.32;stroke-dashoffset:0;stroke-width:0.8;"/>
     </g>
     <g id="line2d_18">
      <g>
       <use style="stroke:#000000;stroke-width:0.8;" x="90" xlink:href="#m92c00eae8e" y="260.64"/>
      </g>
     </g>
     <g id="text_10">
      <!-- 0.2 -->
      <g transform="translate(67.096875 264.439219)scale(0.1 -0.1)">
       <use xlink:href="#DejaVuSans-30"/>
       <use x="63.623047" xlink:href="#DejaVuSans-2e"/>
       <use x="95.410156" xlink:href="#DejaVuSans-32"/>
      </g>
     </g>
    </g>
    <g id="ytick_4">
     <g id="line2d_19">
      <path clip-path="url(#p81eb1455a1)" d="M 90 233.46 
L 648 233.46 
" style="fill:none;stroke:#000000;stroke-dasharray:0.8,1.32;stroke-dashoffset:0;stroke-width:0.8;"/>
     </g>
     <g id="line2d_20">
      <g>
       <use style="stroke:#000000;stroke-width:0.8;" x="90" xlink:href="#m92c00eae8e" y="233.46"/>
      </g>
     </g>
     <g id="text_11">
      <!-- 0.3 -->
      <defs>
       <path d="M 40.578125 39.3125 
Q 47.65625 37.796875 51.625 33 
Q 55.609375 28.21875 55.609375 21.1875 
Q 55.609375 10.40625 48.1875 4.484375 
Q 40.765625 -1.421875 27.09375 -1.421875 
Q 22.515625 -1.421875 17.65625 -0.515625 
Q 12.796875 0.390625 7.625 2.203125 
L 7.625 11.71875 
Q 11.71875 9.328125 16.59375 8.109375 
Q 21.484375 6.890625 26.8125 6.890625 
Q 36.078125 6.890625 40.9375 10.546875 
Q 45.796875 14.203125 45.796875 21.1875 
Q 45.796875 27.640625 41.28125 31.265625 
Q 36.765625 34.90625 28.71875 34.90625 
L 20.21875 34.90625 
L 20.21875 43.015625 
L 29.109375 43.015625 
Q 36.375 43.015625 40.234375 45.921875 
Q 44.09375 48.828125 44.09375 54.296875 
Q 44.09375 59.90625 40.109375 62.90625 
Q 36.140625 65.921875 28.71875 65.921875 
Q 24.65625 65.921875 20.015625 65.03125 
Q 15.375 64.15625 9.8125 62.3125 
L 9.8125 71.09375 
Q 15.4375 72.65625 20.34375 73.4375 
Q 25.25 74.21875 29.59375 74.21875 
Q 40.828125 74.21875 47.359375 69.109375 
Q 53.90625 64.015625 53.90625 55.328125 
Q 53.90625 49.265625 50.4375 45.09375 
Q 46.96875 40.921875 40.578125 39.3125 
z
" id="DejaVuSans-33"/>
      </defs>
      <g transform="translate(67.096875 237.259219)scale(0.1 -0.1)">
       <use xlink:href="#DejaVuSans-30"/>
       <use x="63.623047" xlink:href="#DejaVuSans-2e"/>
       <use x="95.410156" xlink:href="#DejaVuSans-33"/>
      </g>
     </g>
    </g>
    <g id="ytick_5">
     <g id="line2d_21">
      <path clip-path="url(#p81eb1455a1)" d="M 90 206.28 
L 648 206.28 
" style="fill:none;stroke:#000000;stroke-dasharray:0.8,1.32;stroke-dashoffset:0;stroke-width:0.8;"/>
     </g>
     <g id="line2d_22">
      <g>
       <use style="stroke:#000000;stroke-width:0.8;" x="90" xlink:href="#m92c00eae8e" y="206.28"/>
      </g>
     </g>
     <g id="text_12">
      <!-- 0.4 -->
      <g transform="translate(67.096875 210.079219)scale(0.1 -0.1)">
       <use xlink:href="#DejaVuSans-30"/>
       <use x="63.623047" xlink:href="#DejaVuSans-2e"/>
       <use x="95.410156" xlink:href="#DejaVuSans-34"/>
      </g>
     </g>
    </g>
    <g id="ytick_6">
     <g id="line2d_23">
      <path clip-path="url(#p81eb1455a1)" d="M 90 179.1 
L 648 179.1 
" style="fill:none;stroke:#000000;stroke-dasharray:0.8,1.32;stroke-dashoffset:0;stroke-width:0.8;"/>
     </g>
     <g id="line2d_24">
      <g>
       <use style="stroke:#000000;stroke-width:0.8;" x="90" xlink:href="#m92c00eae8e" y="179.1"/>
      </g>
     </g>
     <g id="text_13">
      <!-- 0.5 -->
      <defs>
       <path d="M 10.796875 72.90625 
L 49.515625 72.90625 
L 49.515625 64.59375 
L 19.828125 64.59375 
L 19.828125 46.734375 
Q 21.96875 47.46875 24.109375 47.828125 
Q 26.265625 48.1875 28.421875 48.1875 
Q 40.625 48.1875 47.75 41.5 
Q 54.890625 34.8125 54.890625 23.390625 
Q 54.890625 11.625 47.5625 5.09375 
Q 40.234375 -1.421875 26.90625 -1.421875 
Q 22.3125 -1.421875 17.546875 -0.640625 
Q 12.796875 0.140625 7.71875 1.703125 
L 7.71875 11.625 
Q 12.109375 9.234375 16.796875 8.0625 
Q 21.484375 6.890625 26.703125 6.890625 
Q 35.15625 6.890625 40.078125 11.328125 
Q 45.015625 15.765625 45.015625 23.390625 
Q 45.015625 31 40.078125 35.4375 
Q 35.15625 39.890625 26.703125 39.890625 
Q 22.75 39.890625 18.8125 39.015625 
Q 14.890625 38.140625 10.796875 36.28125 
z
" id="DejaVuSans-35"/>
      </defs>
      <g transform="translate(67.096875 182.899219)scale(0.1 -0.1)">
       <use xlink:href="#DejaVuSans-30"/>
       <use x="63.623047" xlink:href="#DejaVuSans-2e"/>
       <use x="95.410156" xlink:href="#DejaVuSans-35"/>
      </g>
     </g>
    </g>
    <g id="ytick_7">
     <g id="line2d_25">
      <path clip-path="url(#p81eb1455a1)" d="M 90 151.92 
L 648 151.92 
" style="fill:none;stroke:#000000;stroke-dasharray:0.8,1.32;stroke-dashoffset:0;stroke-width:0.8;"/>
     </g>
     <g id="line2d_26">
      <g>
       <use style="stroke:#000000;stroke-width:0.8;" x="90" xlink:href="#m92c00eae8e" y="151.92"/>
      </g>
     </g>
     <g id="text_14">
      <!-- 0.6 -->
      <g transform="translate(67.096875 155.719219)scale(0.1 -0.1)">
       <use xlink:href="#DejaVuSans-30"/>
       <use x="63.623047" xlink:href="#DejaVuSans-2e"/>
       <use x="95.410156" xlink:href="#DejaVuSans-36"/>
      </g>
     </g>
    </g>
    <g id="ytick_8">
     <g id="line2d_27">
      <path clip-path="url(#p81eb1455a1)" d="M 90 124.74 
L 648 124.74 
" style="fill:none;stroke:#000000;stroke-dasharray:0.8,1.32;stroke-dashoffset:0;stroke-width:0.8;"/>
     </g>
     <g id="line2d_28">
      <g>
       <use style="stroke:#000000;stroke-width:0.8;" x="90" xlink:href="#m92c00eae8e" y="124.74"/>
      </g>
     </g>
     <g id="text_15">
      <!-- 0.7 -->
      <defs>
       <path d="M 8.203125 72.90625 
L 55.078125 72.90625 
L 55.078125 68.703125 
L 28.609375 0 
L 18.3125 0 
L 43.21875 64.59375 
L 8.203125 64.59375 
z
" id="DejaVuSans-37"/>
      </defs>
      <g transform="translate(67.096875 128.539219)scale(0.1 -0.1)">
       <use xlink:href="#DejaVuSans-30"/>
       <use x="63.623047" xlink:href="#DejaVuSans-2e"/>
       <use x="95.410156" xlink:href="#DejaVuSans-37"/>
      </g>
     </g>
    </g>
    <g id="ytick_9">
     <g id="line2d_29">
      <path clip-path="url(#p81eb1455a1)" d="M 90 97.56 
L 648 97.56 
" style="fill:none;stroke:#000000;stroke-dasharray:0.8,1.32;stroke-dashoffset:0;stroke-width:0.8;"/>
     </g>
     <g id="line2d_30">
      <g>
       <use style="stroke:#000000;stroke-width:0.8;" x="90" xlink:href="#m92c00eae8e" y="97.56"/>
      </g>
     </g>
     <g id="text_16">
      <!-- 0.8 -->
      <g transform="translate(67.096875 101.359219)scale(0.1 -0.1)">
       <use xlink:href="#DejaVuSans-30"/>
       <use x="63.623047" xlink:href="#DejaVuSans-2e"/>
       <use x="95.410156" xlink:href="#DejaVuSans-38"/>
      </g>
     </g>
    </g>
    <g id="ytick_10">
     <g id="line2d_31">
      <path clip-path="url(#p81eb1455a1)" d="M 90 70.38 
L 648 70.38 
" style="fill:none;stroke:#000000;stroke-dasharray:0.8,1.32;stroke-dashoffset:0;stroke-width:0.8;"/>
     </g>
     <g id="line2d_32">
      <g>
       <use style="stroke:#000000;stroke-width:0.8;" x="90" xlink:href="#m92c00eae8e" y="70.38"/>
      </g>
     </g>
     <g id="text_17">
      <!-- 0.9 -->
      <defs>
       <path d="M 10.984375 1.515625 
L 10.984375 10.5 
Q 14.703125 8.734375 18.5 7.8125 
Q 22.3125 6.890625 25.984375 6.890625 
Q 35.75 6.890625 40.890625 13.453125 
Q 46.046875 20.015625 46.78125 33.40625 
Q 43.953125 29.203125 39.59375 26.953125 
Q 35.25 24.703125 29.984375 24.703125 
Q 19.046875 24.703125 12.671875 31.3125 
Q 6.296875 37.9375 6.296875 49.421875 
Q 6.296875 60.640625 12.9375 67.421875 
Q 19.578125 74.21875 30.609375 74.21875 
Q 43.265625 74.21875 49.921875 64.515625 
Q 56.59375 54.828125 56.59375 36.375 
Q 56.59375 19.140625 48.40625 8.859375 
Q 40.234375 -1.421875 26.421875 -1.421875 
Q 22.703125 -1.421875 18.890625 -0.6875 
Q 15.09375 0.046875 10.984375 1.515625 
z
M 30.609375 32.421875 
Q 37.25 32.421875 41.125 36.953125 
Q 45.015625 41.5 45.015625 49.421875 
Q 45.015625 57.28125 41.125 61.84375 
Q 37.25 66.40625 30.609375 66.40625 
Q 23.96875 66.40625 20.09375 61.84375 
Q 16.21875 57.28125 16.21875 49.421875 
Q 16.21875 41.5 20.09375 36.953125 
Q 23.96875 32.421875 30.609375 32.421875 
z
" id="DejaVuSans-39"/>
      </defs>
      <g transform="translate(67.096875 74.179219)scale(0.1 -0.1)">
       <use xlink:href="#DejaVuSans-30"/>
       <use x="63.623047" xlink:href="#DejaVuSans-2e"/>
       <use x="95.410156" xlink:href="#DejaVuSans-39"/>
      </g>
     </g>
    </g>
    <g id="text_18">
     <!-- accuracy -->
     <defs>
      <path d="M 34.28125 27.484375 
Q 23.390625 27.484375 19.1875 25 
Q 14.984375 22.515625 14.984375 16.5 
Q 14.984375 11.71875 18.140625 8.90625 
Q 21.296875 6.109375 26.703125 6.109375 
Q 34.1875 6.109375 38.703125 11.40625 
Q 43.21875 16.703125 43.21875 25.484375 
L 43.21875 27.484375 
z
M 52.203125 31.203125 
L 52.203125 0 
L 43.21875 0 
L 43.21875 8.296875 
Q 40.140625 3.328125 35.546875 0.953125 
Q 30.953125 -1.421875 24.3125 -1.421875 
Q 15.921875 -1.421875 10.953125 3.296875 
Q 6 8.015625 6 15.921875 
Q 6 25.140625 12.171875 29.828125 
Q 18.359375 34.515625 30.609375 34.515625 
L 43.21875 34.515625 
L 43.21875 35.40625 
Q 43.21875 41.609375 39.140625 45 
Q 35.0625 48.390625 27.6875 48.390625 
Q 23 48.390625 18.546875 47.265625 
Q 14.109375 46.140625 10.015625 43.890625 
L 10.015625 52.203125 
Q 14.9375 54.109375 19.578125 55.046875 
Q 24.21875 56 28.609375 56 
Q 40.484375 56 46.34375 49.84375 
Q 52.203125 43.703125 52.203125 31.203125 
z
" id="DejaVuSans-61"/>
      <path d="M 8.5 21.578125 
L 8.5 54.6875 
L 17.484375 54.6875 
L 17.484375 21.921875 
Q 17.484375 14.15625 20.5 10.265625 
Q 23.53125 6.390625 29.59375 6.390625 
Q 36.859375 6.390625 41.078125 11.03125 
Q 45.3125 15.671875 45.3125 23.6875 
L 45.3125 54.6875 
L 54.296875 54.6875 
L 54.296875 0 
L 45.3125 0 
L 45.3125 8.40625 
Q 42.046875 3.421875 37.71875 1 
Q 33.40625 -1.421875 27.6875 -1.421875 
Q 18.265625 -1.421875 13.375 4.4375 
Q 8.5 10.296875 8.5 21.578125 
z
M 31.109375 56 
z
" id="DejaVuSans-75"/>
      <path d="M 41.109375 46.296875 
Q 39.59375 47.171875 37.8125 47.578125 
Q 36.03125 48 33.890625 48 
Q 26.265625 48 22.1875 43.046875 
Q 18.109375 38.09375 18.109375 28.8125 
L 18.109375 0 
L 9.078125 0 
L 9.078125 54.6875 
L 18.109375 54.6875 
L 18.109375 46.1875 
Q 20.953125 51.171875 25.484375 53.578125 
Q 30.03125 56 36.53125 56 
Q 37.453125 56 38.578125 55.875 
Q 39.703125 55.765625 41.0625 55.515625 
z
" id="DejaVuSans-72"/>
      <path d="M 32.171875 -5.078125 
Q 28.375 -14.84375 24.75 -17.8125 
Q 21.140625 -20.796875 15.09375 -20.796875 
L 7.90625 -20.796875 
L 7.90625 -13.28125 
L 13.1875 -13.28125 
Q 16.890625 -13.28125 18.9375 -11.515625 
Q 21 -9.765625 23.484375 -3.21875 
L 25.09375 0.875 
L 2.984375 54.6875 
L 12.5 54.6875 
L 29.59375 11.921875 
L 46.6875 54.6875 
L 56.203125 54.6875 
z
" id="DejaVuSans-79"/>
     </defs>
     <g transform="translate(61.017187 201.659375)rotate(-90)scale(0.1 -0.1)">
      <use xlink:href="#DejaVuSans-61"/>
      <use x="61.279297" xlink:href="#DejaVuSans-63"/>
      <use x="116.259766" xlink:href="#DejaVuSans-63"/>
      <use x="171.240234" xlink:href="#DejaVuSans-75"/>
      <use x="234.619141" xlink:href="#DejaVuSans-72"/>
      <use x="275.732422" xlink:href="#DejaVuSans-61"/>
      <use x="337.011719" xlink:href="#DejaVuSans-63"/>
      <use x="391.992188" xlink:href="#DejaVuSans-79"/>
     </g>
    </g>
   </g>
   <g id="line2d_33">
    <path clip-path="url(#p81eb1455a1)" d="M 115.363636 166.74545 
L 119.933661 166.74545 
L 120.441441 168.045932 
L 122.472563 168.045932 
L 122.980344 166.74545 
L 126.534808 166.74545 
L 127.042588 168.045932 
L 127.550369 168.045932 
L 128.058149 166.74545 
L 128.56593 166.74545 
L 129.07371 165.444984 
L 131.104832 165.444984 
L 131.612613 164.144502 
L 134.659296 164.144502 
L 135.167076 162.844019 
L 142.783784 162.844019 
L 143.291564 161.543537 
L 154.462735 161.543537 
L 154.970516 160.243055 
L 179.851761 160.243055 
L 180.359541 158.942588 
L 184.421785 158.942588 
L 184.929566 160.243055 
L 185.437346 160.243055 
L 185.945127 158.942588 
L 194.577396 158.942588 
L 195.592957 161.543537 
L 198.131859 161.543537 
L 198.63964 160.243055 
L 206.256347 160.243055 
L 206.764128 161.543537 
L 216.411957 161.543537 
L 216.919738 162.844019 
L 217.427518 162.844019 
L 217.935299 161.543537 
L 238.246519 161.543537 
L 239.26208 158.942588 
L 240.277641 158.942588 
L 240.785422 157.642106 
L 243.832105 157.642106 
L 244.339885 156.341624 
L 298.164619 156.341624 
L 298.6724 155.041141 
L 383.471744 155.041141 
L 383.979525 156.341624 
L 389.565111 156.341624 
L 390.072891 155.041141 
L 393.627355 155.041141 
L 394.135135 156.341624 
L 410.384111 156.341624 
L 410.891892 155.041141 
L 459.638821 155.041141 
L 460.146601 153.740675 
L 622.636364 153.740675 
L 622.636364 153.740675 
" style="fill:none;opacity:0.7;stroke:#1976d2;stroke-linecap:square;"/>
   </g>
   <g id="line2d_34">
    <path clip-path="url(#p81eb1455a1)" d="M 115.363636 162.791999 
L 185.437346 162.791999 
L 185.945127 168.227994 
L 327.108108 168.227994 
L 327.615889 162.791999 
L 340.310401 162.791999 
L 340.818182 168.227994 
L 361.129402 168.227994 
L 361.637183 173.664005 
L 622.636364 173.664005 
L 622.636364 173.664005 
" style="fill:none;opacity:0.7;stroke:#ff9800;stroke-linecap:square;"/>
   </g>
   <g id="line2d_35">
    <path clip-path="url(#p81eb1455a1)" d="M 115.363636 142.036367 
L 143.799345 142.036367 
L 144.307125 140.735884 
L 325.584767 140.735884 
L 326.092547 139.435402 
L 510.416871 139.435402 
L 510.924652 140.735884 
L 521.080262 140.735884 
L 521.588043 142.036367 
L 612.480753 142.036367 
L 612.988534 143.336849 
L 622.636364 143.336849 
L 622.636364 143.336849 
" style="fill:none;opacity:0.7;stroke:#1976d2;stroke-linecap:square;"/>
   </g>
   <g id="line2d_36">
    <path clip-path="url(#p81eb1455a1)" d="M 115.363636 222.587999 
L 286.485667 222.587999 
L 286.993448 217.151996 
L 622.636364 217.151996 
L 622.636364 217.151996 
" style="fill:none;opacity:0.7;stroke:#ff9800;stroke-linecap:square;"/>
   </g>
   <g id="line2d_37">
    <path clip-path="url(#p81eb1455a1)" d="M 115.363636 216.163633 
L 173.250614 216.163633 
L 173.758395 217.464116 
L 176.805078 217.464116 
L 177.312858 216.163633 
L 192.038493 216.163633 
L 192.546274 214.863159 
L 195.085176 214.863159 
L 195.592957 213.562677 
L 199.655201 213.562677 
L 200.162981 212.262203 
L 224.028665 212.262203 
L 224.536446 210.96172 
L 233.168714 210.96172 
L 233.676495 209.661246 
L 241.293202 209.661246 
L 241.800983 208.360764 
L 271.252252 208.360764 
L 271.760033 207.060289 
L 275.314496 207.060289 
L 275.822277 208.360764 
L 284.454545 208.360764 
L 284.962326 209.661246 
L 298.6724 209.661246 
L 299.18018 208.360764 
L 302.734644 208.360764 
L 303.750205 205.759807 
L 305.781327 205.759807 
L 306.289107 204.459333 
L 317.460278 204.459333 
L 317.968059 203.15885 
L 324.569206 203.15885 
L 325.076986 200.557894 
L 339.29484 200.557894 
L 339.802621 201.858376 
L 342.341523 201.858376 
L 342.849304 200.557894 
L 352.497133 200.557894 
L 353.004914 199.25742 
L 354.020475 199.25742 
L 355.036036 196.656463 
L 355.543817 197.956937 
L 356.051597 197.956937 
L 356.559378 199.25742 
L 358.5905 199.25742 
L 359.09828 200.557894 
L 360.113841 200.557894 
L 360.621622 199.25742 
L 362.652744 199.25742 
L 363.160524 200.557894 
L 367.730549 200.557894 
L 368.238329 199.25742 
L 370.269451 199.25742 
L 370.777232 200.557894 
L 373.316134 200.557894 
L 373.823915 201.858376 
L 382.456183 201.858376 
L 382.963964 200.557894 
L 384.487305 200.557894 
L 384.995086 199.25742 
L 389.05733 199.25742 
L 389.565111 197.956937 
L 390.580672 197.956937 
L 391.088452 196.656463 
L 391.596233 196.656463 
L 392.104013 195.355981 
L 393.119574 195.355981 
L 393.627355 194.055498 
L 394.135135 195.355981 
L 395.658477 195.355981 
L 396.166257 194.055498 
L 397.181818 194.055498 
L 397.689599 192.755024 
L 398.70516 192.755024 
L 399.21294 191.454542 
L 402.259623 191.454542 
L 402.767404 192.755024 
L 404.290745 192.755024 
L 404.798526 194.055498 
L 406.321867 194.055498 
L 406.829648 195.355981 
L 407.337428 195.355981 
L 407.845209 196.656463 
L 409.876331 196.656463 
L 410.384111 197.956937 
L 410.891892 196.656463 
L 411.399672 196.656463 
L 411.907453 197.956937 
L 413.430794 197.956937 
L 413.938575 196.656463 
L 414.446355 196.656463 
L 414.954136 195.355981 
L 415.461916 195.355981 
L 415.969697 196.656463 
L 416.985258 196.656463 
L 417.493038 195.355981 
L 424.601966 195.355981 
L 425.109746 196.656463 
L 432.726454 196.656463 
L 433.234234 195.355981 
L 434.249795 195.355981 
L 434.757576 194.055498 
L 436.280917 194.055498 
L 436.788698 192.755024 
L 438.312039 192.755024 
L 438.81982 191.454542 
L 441.358722 191.454542 
L 441.866503 190.154068 
L 442.882064 190.154068 
L 443.389844 188.853585 
L 445.928747 188.853585 
L 446.436527 187.553111 
L 447.452088 187.553111 
L 447.959869 188.853585 
L 452.022113 188.853585 
L 452.529894 187.553111 
L 454.561016 187.553111 
L 455.068796 186.252629 
L 455.576577 186.252629 
L 456.084357 184.952154 
L 456.592138 184.952154 
L 457.099918 186.252629 
L 461.669943 186.252629 
L 462.177723 183.651672 
L 466.239967 183.651672 
L 466.747748 184.952154 
L 467.763309 184.952154 
L 468.271089 183.651672 
L 469.794431 183.651672 
L 470.302211 182.351198 
L 472.841114 182.351198 
L 473.348894 181.050715 
L 477.918919 181.050715 
L 478.426699 179.750241 
L 480.457821 179.750241 
L 480.965602 178.449759 
L 495.691237 178.449759 
L 496.199017 175.84881 
L 503.815725 175.84881 
L 504.323505 177.149276 
L 504.831286 177.149276 
L 505.339066 175.84881 
L 511.432432 175.84881 
L 511.940213 177.149276 
L 521.588043 177.149276 
L 522.095823 175.84881 
L 539.868141 175.84881 
L 540.375921 177.149276 
L 540.883702 175.84881 
L 545.961507 175.84881 
L 546.469287 177.149276 
L 548.50041 177.149276 
L 549.00819 178.449759 
L 552.054873 178.449759 
L 552.562654 179.750241 
L 555.101556 179.750241 
L 555.609337 181.050715 
L 561.194922 181.050715 
L 561.702703 179.750241 
L 572.366093 179.750241 
L 572.873874 178.449759 
L 580.490581 178.449759 
L 580.998362 177.149276 
L 582.521704 177.149276 
L 584.045045 173.247846 
L 595.723997 173.247846 
L 596.231777 174.548328 
L 599.27846 174.548328 
L 599.786241 175.84881 
L 600.294021 175.84881 
L 600.801802 174.548328 
L 603.848485 174.548328 
L 604.356265 173.247846 
L 604.864046 173.247846 
L 605.371826 174.548328 
L 605.879607 174.548328 
L 606.895168 171.947363 
L 609.43407 171.947363 
L 609.941851 170.646897 
L 612.480753 170.646897 
L 612.988534 169.346415 
L 614.004095 169.346415 
L 614.511876 170.646897 
L 622.636364 170.646897 
L 622.636364 170.646897 
" style="fill:none;opacity:0.7;stroke:#1976d2;stroke-linecap:square;"/>
   </g>
   <g id="line2d_38">
    <path clip-path="url(#p81eb1455a1)" d="M 115.363636 124.740003 
L 129.07371 124.740003 
L 129.581491 130.175998 
L 206.256347 130.175998 
L 206.764128 124.740003 
L 262.619984 124.740003 
L 263.127764 130.175998 
L 281.407862 130.175998 
L 281.915643 124.740003 
L 293.086814 124.740003 
L 293.594595 119.303992 
L 302.226863 119.303992 
L 302.734644 124.740003 
L 336.248157 124.740003 
L 336.755938 130.175998 
L 352.497133 130.175998 
L 353.004914 135.611993 
L 360.621622 135.611993 
L 361.129402 141.048004 
L 362.144963 141.048004 
L 362.652744 146.483999 
L 365.699427 146.483999 
L 366.207207 141.048004 
L 371.792793 141.048004 
L 372.300573 146.483999 
L 376.362817 146.483999 
L 376.870598 151.919994 
L 414.954136 151.919994 
L 415.461916 146.483999 
L 418.000819 146.483999 
L 418.5086 141.048004 
L 426.125307 141.048004 
L 426.633088 135.611993 
L 429.17199 135.611993 
L 429.679771 130.175998 
L 442.882064 130.175998 
L 443.389844 135.611993 
L 455.576577 135.611993 
L 456.084357 141.048004 
L 462.685504 141.048004 
L 463.193284 146.483999 
L 480.965602 146.483999 
L 481.473382 151.919994 
L 510.924652 151.919994 
L 511.432432 157.356005 
L 515.494676 157.356005 
L 516.002457 151.919994 
L 546.469287 151.919994 
L 546.977068 157.356005 
L 595.216216 157.356005 
L 595.723997 162.791999 
L 616.542998 162.791999 
L 617.050778 168.227994 
L 622.636364 168.227994 
L 622.636364 168.227994 
" style="fill:none;opacity:0.7;stroke:#ff9800;stroke-linecap:square;"/>
   </g>
   <g id="line2d_39">
    <path clip-path="url(#p81eb1455a1)" d="M 115.363636 221.365547 
L 622.636364 221.365547 
L 622.636364 221.365547 
" style="fill:none;opacity:0.7;stroke:#1976d2;stroke-linecap:square;"/>
   </g>
   <g id="line2d_40">
    <path clip-path="url(#p81eb1455a1)" d="M 115.363636 135.611993 
L 622.636364 135.611993 
L 622.636364 135.611993 
" style="fill:none;opacity:0.7;stroke:#ff9800;stroke-linecap:square;"/>
   </g>
   <g id="line2d_41">
    <path clip-path="url(#p81eb1455a1)" d="M 115.363636 173.247846 
L 116.379197 173.247846 
L 116.886978 171.947363 
L 117.902539 171.947363 
L 118.410319 170.646897 
L 118.9181 170.646897 
L 119.42588 169.346415 
L 122.472563 169.346415 
L 122.980344 168.045932 
L 123.488124 168.045932 
L 123.995905 170.646897 
L 135.674857 170.646897 
L 136.182637 171.947363 
L 139.22932 171.947363 
L 139.737101 170.646897 
L 143.799345 170.646897 
L 144.307125 169.346415 
L 148.87715 169.346415 
L 149.38493 170.646897 
L 162.079443 170.646897 
L 162.587224 169.346415 
L 174.266175 169.346415 
L 174.773956 170.646897 
L 179.851761 170.646897 
L 180.359541 171.947363 
L 181.375102 169.346415 
L 184.421785 169.346415 
L 184.929566 170.646897 
L 188.484029 170.646897 
L 188.99181 171.947363 
L 200.162981 171.947363 
L 200.670762 170.646897 
L 206.256347 170.646897 
L 206.764128 169.346415 
L 237.230958 169.346415 
L 237.738739 170.646897 
L 248.90991 170.646897 
L 249.41769 171.947363 
L 268.71335 171.947363 
L 269.22113 173.247846 
L 286.993448 173.247846 
L 287.501229 171.947363 
L 297.656839 171.947363 
L 298.164619 170.646897 
L 309.33579 170.646897 
L 309.843571 169.346415 
L 322.538084 169.346415 
L 323.045864 168.045932 
L 331.678133 168.045932 
L 332.185913 166.74545 
L 337.263718 166.74545 
L 337.771499 165.444984 
L 357.067158 165.444984 
L 357.574939 164.144502 
L 359.09828 164.144502 
L 359.606061 162.844019 
L 389.565111 162.844019 
L 390.072891 161.543537 
L 396.166257 161.543537 
L 396.674038 160.243055 
L 406.321867 160.243055 
L 406.829648 161.543537 
L 432.726454 161.543537 
L 433.234234 162.844019 
L 442.374283 162.844019 
L 442.882064 161.543537 
L 489.09009 161.543537 
L 489.597871 160.243055 
L 622.636364 160.243055 
L 622.636364 160.243055 
" style="fill:none;opacity:0.7;stroke:#1976d2;stroke-linecap:square;"/>
   </g>
   <g id="line2d_42">
    <path clip-path="url(#p81eb1455a1)" d="M 115.363636 157.356005 
L 121.457002 157.356005 
L 121.964783 162.791999 
L 223.013104 162.791999 
L 223.520885 168.227994 
L 297.656839 168.227994 
L 298.164619 173.664005 
L 344.372645 173.664005 
L 344.880426 179.1 
L 392.611794 179.1 
L 393.119574 184.536003 
L 398.70516 184.536003 
L 399.21294 189.971998 
L 622.636364 189.971998 
L 622.636364 189.971998 
" style="fill:none;opacity:0.7;stroke:#ff9800;stroke-linecap:square;"/>
   </g>
   <g id="line2d_43">
    <path clip-path="url(#p81eb1455a1)" d="M 115.363636 135.533971 
L 147.353808 135.533971 
L 147.861589 134.233489 
L 152.939394 134.233489 
L 153.447174 135.533971 
L 259.573301 135.533971 
L 260.081081 134.233489 
L 390.580672 134.233489 
L 391.088452 135.533971 
L 441.358722 135.533971 
L 441.866503 136.834453 
L 442.882064 136.834453 
L 443.389844 135.533971 
L 622.636364 135.533971 
L 622.636364 135.533971 
" style="fill:none;opacity:0.7;stroke:#1976d2;stroke-linecap:square;"/>
   </g>
   <g id="line2d_44">
    <path clip-path="url(#p81eb1455a1)" d="M 115.363636 195.408001 
L 155.478296 195.408001 
L 155.986077 189.971998 
L 372.808354 189.971998 
L 373.316134 195.408001 
L 435.265356 195.408001 
L 435.773137 189.971998 
L 622.636364 189.971998 
L 622.636364 189.971998 
" style="fill:none;opacity:0.7;stroke:#ff9800;stroke-linecap:square;"/>
   </g>
   <g id="line2d_45">
    <path clip-path="url(#p81eb1455a1)" d="M 115.363636 138.134936 
L 622.636364 138.134936 
L 622.636364 138.134936 
" style="fill:none;opacity:0.7;stroke:#1976d2;stroke-linecap:square;"/>
   </g>
   <g id="line2d_46">
    <path clip-path="url(#p81eb1455a1)" d="M 115.363636 222.587999 
L 622.636364 222.587999 
L 622.636364 222.587999 
" style="fill:none;opacity:0.7;stroke:#ff9800;stroke-linecap:square;"/>
   </g>
   <g id="line2d_47">
    <path clip-path="url(#p81eb1455a1)" d="M 115.363636 134.233489 
L 487.058968 134.233489 
L 487.566749 135.533971 
L 622.636364 135.533971 
L 622.636364 135.533971 
" style="fill:none;opacity:0.7;stroke:#1976d2;stroke-linecap:square;"/>
   </g>
   <g id="line2d_48">
    <path clip-path="url(#p81eb1455a1)" d="M 115.363636 222.587999 
L 622.636364 222.587999 
L 622.636364 222.587999 
" style="fill:none;opacity:0.7;stroke:#ff9800;stroke-linecap:square;"/>
   </g>
   <g id="line2d_49">
    <path clip-path="url(#p81eb1455a1)" d="M 115.363636 151.139711 
L 120.949222 151.139711 
L 121.457002 149.839228 
L 130.597052 149.839228 
L 131.104832 151.139711 
L 174.266175 151.139711 
L 174.773956 152.440193 
L 177.312858 152.440193 
L 177.820639 153.740675 
L 186.960688 153.740675 
L 187.468468 155.041141 
L 199.14742 155.041141 
L 199.655201 153.740675 
L 209.810811 153.740675 
L 210.318591 152.440193 
L 223.520885 152.440193 
L 224.028665 153.740675 
L 255.003276 153.740675 
L 255.511057 152.440193 
L 257.034398 152.440193 
L 257.542179 153.740675 
L 264.143325 153.740675 
L 264.651106 155.041141 
L 279.884521 155.041141 
L 280.392301 153.740675 
L 321.522523 153.740675 
L 322.030303 155.041141 
L 384.995086 155.041141 
L 385.502867 153.740675 
L 400.736282 153.740675 
L 401.244062 155.041141 
L 405.814087 155.041141 
L 406.321867 153.740675 
L 421.047502 153.740675 
L 421.555283 155.041141 
L 430.695332 155.041141 
L 431.203112 153.740675 
L 438.312039 153.740675 
L 438.81982 155.041141 
L 498.230139 155.041141 
L 498.73792 153.740675 
L 585.060606 153.740675 
L 585.568387 155.041141 
L 617.558559 155.041141 
L 618.066339 156.341624 
L 622.636364 156.341624 
L 622.636364 156.341624 
" style="fill:none;opacity:0.7;stroke:#1976d2;stroke-linecap:square;"/>
   </g>
   <g id="line2d_50">
    <path clip-path="url(#p81eb1455a1)" d="M 115.363636 217.151996 
L 117.902539 217.151996 
L 118.410319 211.716001 
L 161.571663 211.716001 
L 162.079443 206.279998 
L 223.013104 206.279998 
L 223.520885 200.844004 
L 338.78706 200.844004 
L 339.29484 195.408001 
L 472.333333 195.408001 
L 472.841114 189.971998 
L 555.101556 189.971998 
L 555.609337 184.536003 
L 622.636364 184.536003 
L 622.636364 184.536003 
" style="fill:none;opacity:0.7;stroke:#ff9800;stroke-linecap:square;"/>
   </g>
   <g id="line2d_51">
    <path clip-path="url(#p81eb1455a1)" d="M 115.363636 220.065072 
L 397.689599 220.065072 
L 398.197379 218.76459 
L 464.208845 218.76459 
L 464.716626 217.464116 
L 489.597871 217.464116 
L 490.105651 216.163633 
L 513.971335 216.163633 
L 514.479115 214.863159 
L 521.080262 214.863159 
L 521.588043 213.562677 
L 539.36036 213.562677 
L 539.868141 212.262203 
L 563.226044 212.262203 
L 563.733825 210.96172 
L 597.247338 210.96172 
L 597.755119 209.661246 
L 608.92629 209.661246 
L 609.43407 208.360764 
L 622.636364 208.360764 
L 622.636364 208.360764 
" style="fill:none;opacity:0.7;stroke:#1976d2;stroke-linecap:square;"/>
   </g>
   <g id="line2d_52">
    <path clip-path="url(#p81eb1455a1)" d="M 115.363636 130.175998 
L 297.149058 130.175998 
L 297.656839 135.611993 
L 335.740377 135.611993 
L 336.248157 130.175998 
L 425.617527 130.175998 
L 426.125307 135.611993 
L 545.961507 135.611993 
L 546.469287 130.175998 
L 555.609337 130.175998 
L 556.117117 135.611993 
L 611.465192 135.611993 
L 611.972973 141.048004 
L 622.636364 141.048004 
L 622.636364 141.048004 
" style="fill:none;opacity:0.7;stroke:#ff9800;stroke-linecap:square;"/>
   </g>
   <g id="patch_3">
    <path d="M 90 315 
L 90 43.2 
" style="fill:none;stroke:#000000;stroke-linecap:square;stroke-linejoin:miter;stroke-width:0.8;"/>
   </g>
   <g id="patch_4">
    <path d="M 648 315 
L 648 43.2 
" style="fill:none;stroke:#000000;stroke-linecap:square;stroke-linejoin:miter;stroke-width:0.8;"/>
   </g>
   <g id="patch_5">
    <path d="M 90 315 
L 648 315 
" style="fill:none;stroke:#000000;stroke-linecap:square;stroke-linejoin:miter;stroke-width:0.8;"/>
   </g>
   <g id="patch_6">
    <path d="M 90 43.2 
L 648 43.2 
" style="fill:none;stroke:#000000;stroke-linecap:square;stroke-linejoin:miter;stroke-width:0.8;"/>
   </g>
   <g id="text_19">
    <!-- Model accuracy -->
    <defs>
     <path d="M 9.8125 72.90625 
L 24.515625 72.90625 
L 43.109375 23.296875 
L 61.8125 72.90625 
L 76.515625 72.90625 
L 76.515625 0 
L 66.890625 0 
L 66.890625 64.015625 
L 48.09375 14.015625 
L 38.1875 14.015625 
L 19.390625 64.015625 
L 19.390625 0 
L 9.8125 0 
z
" id="DejaVuSans-4d"/>
     <path d="M 45.40625 46.390625 
L 45.40625 75.984375 
L 54.390625 75.984375 
L 54.390625 0 
L 45.40625 0 
L 45.40625 8.203125 
Q 42.578125 3.328125 38.25 0.953125 
Q 33.9375 -1.421875 27.875 -1.421875 
Q 17.96875 -1.421875 11.734375 6.484375 
Q 5.515625 14.40625 5.515625 27.296875 
Q 5.515625 40.1875 11.734375 48.09375 
Q 17.96875 56 27.875 56 
Q 33.9375 56 38.25 53.625 
Q 42.578125 51.265625 45.40625 46.390625 
z
M 14.796875 27.296875 
Q 14.796875 17.390625 18.875 11.75 
Q 22.953125 6.109375 30.078125 6.109375 
Q 37.203125 6.109375 41.296875 11.75 
Q 45.40625 17.390625 45.40625 27.296875 
Q 45.40625 37.203125 41.296875 42.84375 
Q 37.203125 48.484375 30.078125 48.484375 
Q 22.953125 48.484375 18.875 42.84375 
Q 14.796875 37.203125 14.796875 27.296875 
z
" id="DejaVuSans-64"/>
     <path d="M 9.421875 75.984375 
L 18.40625 75.984375 
L 18.40625 0 
L 9.421875 0 
z
" id="DejaVuSans-6c"/>
     <path id="DejaVuSans-20"/>
    </defs>
    <g transform="translate(322.005938 23.762625)scale(0.12 -0.12)">
     <use xlink:href="#DejaVuSans-4d"/>
     <use x="86.279297" xlink:href="#DejaVuSans-6f"/>
     <use x="147.460938" xlink:href="#DejaVuSans-64"/>
     <use x="210.9375" xlink:href="#DejaVuSans-65"/>
     <use x="272.460938" xlink:href="#DejaVuSans-6c"/>
     <use x="300.244141" xlink:href="#DejaVuSans-20"/>
     <use x="332.03125" xlink:href="#DejaVuSans-61"/>
     <use x="393.310547" xlink:href="#DejaVuSans-63"/>
     <use x="448.291016" xlink:href="#DejaVuSans-63"/>
     <use x="503.271484" xlink:href="#DejaVuSans-75"/>
     <use x="566.650391" xlink:href="#DejaVuSans-72"/>
     <use x="607.763672" xlink:href="#DejaVuSans-61"/>
     <use x="669.042969" xlink:href="#DejaVuSans-63"/>
     <use x="724.023438" xlink:href="#DejaVuSans-79"/>
    </g>
    <!-- Learning rate: 0.0001 -->
    <defs>
     <path d="M 9.8125 72.90625 
L 19.671875 72.90625 
L 19.671875 8.296875 
L 55.171875 8.296875 
L 55.171875 0 
L 9.8125 0 
z
" id="DejaVuSans-4c"/>
     <path d="M 54.890625 33.015625 
L 54.890625 0 
L 45.90625 0 
L 45.90625 32.71875 
Q 45.90625 40.484375 42.875 44.328125 
Q 39.84375 48.1875 33.796875 48.1875 
Q 26.515625 48.1875 22.3125 43.546875 
Q 18.109375 38.921875 18.109375 30.90625 
L 18.109375 0 
L 9.078125 0 
L 9.078125 54.6875 
L 18.109375 54.6875 
L 18.109375 46.1875 
Q 21.34375 51.125 25.703125 53.5625 
Q 30.078125 56 35.796875 56 
Q 45.21875 56 50.046875 50.171875 
Q 54.890625 44.34375 54.890625 33.015625 
z
" id="DejaVuSans-6e"/>
     <path d="M 9.421875 54.6875 
L 18.40625 54.6875 
L 18.40625 0 
L 9.421875 0 
z
M 9.421875 75.984375 
L 18.40625 75.984375 
L 18.40625 64.59375 
L 9.421875 64.59375 
z
" id="DejaVuSans-69"/>
     <path d="M 45.40625 27.984375 
Q 45.40625 37.75 41.375 43.109375 
Q 37.359375 48.484375 30.078125 48.484375 
Q 22.859375 48.484375 18.828125 43.109375 
Q 14.796875 37.75 14.796875 27.984375 
Q 14.796875 18.265625 18.828125 12.890625 
Q 22.859375 7.515625 30.078125 7.515625 
Q 37.359375 7.515625 41.375 12.890625 
Q 45.40625 18.265625 45.40625 27.984375 
z
M 54.390625 6.78125 
Q 54.390625 -7.171875 48.1875 -13.984375 
Q 42 -20.796875 29.203125 -20.796875 
Q 24.46875 -20.796875 20.265625 -20.09375 
Q 16.0625 -19.390625 12.109375 -17.921875 
L 12.109375 -9.1875 
Q 16.0625 -11.328125 19.921875 -12.34375 
Q 23.78125 -13.375 27.78125 -13.375 
Q 36.625 -13.375 41.015625 -8.765625 
Q 45.40625 -4.15625 45.40625 5.171875 
L 45.40625 9.625 
Q 42.625 4.78125 38.28125 2.390625 
Q 33.9375 0 27.875 0 
Q 17.828125 0 11.671875 7.65625 
Q 5.515625 15.328125 5.515625 27.984375 
Q 5.515625 40.671875 11.671875 48.328125 
Q 17.828125 56 27.875 56 
Q 33.9375 56 38.28125 53.609375 
Q 42.625 51.21875 45.40625 46.390625 
L 45.40625 54.6875 
L 54.390625 54.6875 
z
" id="DejaVuSans-67"/>
     <path d="M 18.3125 70.21875 
L 18.3125 54.6875 
L 36.8125 54.6875 
L 36.8125 47.703125 
L 18.3125 47.703125 
L 18.3125 18.015625 
Q 18.3125 11.328125 20.140625 9.421875 
Q 21.96875 7.515625 27.59375 7.515625 
L 36.8125 7.515625 
L 36.8125 0 
L 27.59375 0 
Q 17.1875 0 13.234375 3.875 
Q 9.28125 7.765625 9.28125 18.015625 
L 9.28125 47.703125 
L 2.6875 47.703125 
L 2.6875 54.6875 
L 9.28125 54.6875 
L 9.28125 70.21875 
z
" id="DejaVuSans-74"/>
     <path d="M 11.71875 12.40625 
L 22.015625 12.40625 
L 22.015625 0 
L 11.71875 0 
z
M 11.71875 51.703125 
L 22.015625 51.703125 
L 22.015625 39.3125 
L 11.71875 39.3125 
z
" id="DejaVuSans-3a"/>
    </defs>
    <g transform="translate(303.725625 37.2)scale(0.12 -0.12)">
     <use xlink:href="#DejaVuSans-4c"/>
     <use x="55.697266" xlink:href="#DejaVuSans-65"/>
     <use x="117.220703" xlink:href="#DejaVuSans-61"/>
     <use x="178.5" xlink:href="#DejaVuSans-72"/>
     <use x="219.597656" xlink:href="#DejaVuSans-6e"/>
     <use x="282.976562" xlink:href="#DejaVuSans-69"/>
     <use x="310.759766" xlink:href="#DejaVuSans-6e"/>
     <use x="374.138672" xlink:href="#DejaVuSans-67"/>
     <use x="437.615234" xlink:href="#DejaVuSans-20"/>
     <use x="469.402344" xlink:href="#DejaVuSans-72"/>
     <use x="510.515625" xlink:href="#DejaVuSans-61"/>
     <use x="571.794922" xlink:href="#DejaVuSans-74"/>
     <use x="611.003906" xlink:href="#DejaVuSans-65"/>
     <use x="672.527344" xlink:href="#DejaVuSans-3a"/>
     <use x="706.21875" xlink:href="#DejaVuSans-20"/>
     <use x="738.005859" xlink:href="#DejaVuSans-30"/>
     <use x="801.628906" xlink:href="#DejaVuSans-2e"/>
     <use x="833.416016" xlink:href="#DejaVuSans-30"/>
     <use x="897.039062" xlink:href="#DejaVuSans-30"/>
     <use x="960.662109" xlink:href="#DejaVuSans-30"/>
     <use x="1024.285156" xlink:href="#DejaVuSans-31"/>
    </g>
   </g>
  </g>
 </g>
 <defs>
  <clipPath id="p81eb1455a1">
   <rect height="271.8" width="558" x="90" y="43.2"/>
  </clipPath>
 </defs>
</svg>
