<?xml version="1.0" encoding="utf-8" standalone="no"?>
<!DOCTYPE svg PUBLIC "-//W3C//DTD SVG 1.1//EN"
  "http://www.w3.org/Graphics/SVG/1.1/DTD/svg11.dtd">
<!-- Created with matplotlib (http://matplotlib.org/) -->
<svg height="360pt" version="1.1" viewBox="0 0 720 360" width="720pt" xmlns="http://www.w3.org/2000/svg" xmlns:xlink="http://www.w3.org/1999/xlink">
 <defs>
  <style type="text/css">
*{stroke-linecap:butt;stroke-linejoin:round;}
  </style>
 </defs>
 <g id="figure_1">
  <g id="patch_1">
   <path d="M 0 360 
L 720 360 
L 720 0 
L 0 0 
z
" style="fill:#ffffff;"/>
  </g>
  <g id="axes_1">
   <g id="patch_2">
    <path d="M 90 315 
L 648 315 
L 648 43.2 
L 90 43.2 
z
" style="fill:#ffffff;"/>
   </g>
   <g id="matplotlib.axis_1">
    <g id="xtick_1">
     <g id="line2d_1">
      <path clip-path="url(#p6c3c032efe)" d="M 115.363636 315 
L 115.363636 43.2 
" style="fill:none;stroke:#000000;stroke-dasharray:0.8,1.32;stroke-dashoffset:0;stroke-width:0.8;"/>
     </g>
     <g id="line2d_2">
      <defs>
       <path d="M 0 0 
L 0 3.5 
" id="m7e8290891d" style="stroke:#000000;stroke-width:0.8;"/>
      </defs>
      <g>
       <use style="stroke:#000000;stroke-width:0.8;" x="115.363636" xlink:href="#m7e8290891d" y="315"/>
      </g>
     </g>
     <g id="text_1">
      <!-- 0 -->
      <defs>
       <path d="M 31.78125 66.40625 
Q 24.171875 66.40625 20.328125 58.90625 
Q 16.5 51.421875 16.5 36.375 
Q 16.5 21.390625 20.328125 13.890625 
Q 24.171875 6.390625 31.78125 6.390625 
Q 39.453125 6.390625 43.28125 13.890625 
Q 47.125 21.390625 47.125 36.375 
Q 47.125 51.421875 43.28125 58.90625 
Q 39.453125 66.40625 31.78125 66.40625 
z
M 31.78125 74.21875 
Q 44.046875 74.21875 50.515625 64.515625 
Q 56.984375 54.828125 56.984375 36.375 
Q 56.984375 17.96875 50.515625 8.265625 
Q 44.046875 -1.421875 31.78125 -1.421875 
Q 19.53125 -1.421875 13.0625 8.265625 
Q 6.59375 17.96875 6.59375 36.375 
Q 6.59375 54.828125 13.0625 64.515625 
Q 19.53125 74.21875 31.78125 74.21875 
z
" id="DejaVuSans-30"/>
      </defs>
      <g transform="translate(112.182386 329.598437)scale(0.1 -0.1)">
       <use xlink:href="#DejaVuSans-30"/>
      </g>
     </g>
    </g>
    <g id="xtick_2">
     <g id="line2d_3">
      <path clip-path="url(#p6c3c032efe)" d="M 216.919738 315 
L 216.919738 43.2 
" style="fill:none;stroke:#000000;stroke-dasharray:0.8,1.32;stroke-dashoffset:0;stroke-width:0.8;"/>
     </g>
     <g id="line2d_4">
      <g>
       <use style="stroke:#000000;stroke-width:0.8;" x="216.919738" xlink:href="#m7e8290891d" y="315"/>
      </g>
     </g>
     <g id="text_2">
      <!-- 200 -->
      <defs>
       <path d="M 19.1875 8.296875 
L 53.609375 8.296875 
L 53.609375 0 
L 7.328125 0 
L 7.328125 8.296875 
Q 12.9375 14.109375 22.625 23.890625 
Q 32.328125 33.6875 34.8125 36.53125 
Q 39.546875 41.84375 41.421875 45.53125 
Q 43.3125 49.21875 43.3125 52.78125 
Q 43.3125 58.59375 39.234375 62.25 
Q 35.15625 65.921875 28.609375 65.921875 
Q 23.96875 65.921875 18.8125 64.3125 
Q 13.671875 62.703125 7.8125 59.421875 
L 7.8125 69.390625 
Q 13.765625 71.78125 18.9375 73 
Q 24.125 74.21875 28.421875 74.21875 
Q 39.75 74.21875 46.484375 68.546875 
Q 53.21875 62.890625 53.21875 53.421875 
Q 53.21875 48.921875 51.53125 44.890625 
Q 49.859375 40.875 45.40625 35.40625 
Q 44.1875 33.984375 37.640625 27.21875 
Q 31.109375 20.453125 19.1875 8.296875 
z
" id="DejaVuSans-32"/>
      </defs>
      <g transform="translate(207.375988 329.598437)scale(0.1 -0.1)">
       <use xlink:href="#DejaVuSans-32"/>
       <use x="63.623047" xlink:href="#DejaVuSans-30"/>
       <use x="127.246094" xlink:href="#DejaVuSans-30"/>
      </g>
     </g>
    </g>
    <g id="xtick_3">
     <g id="line2d_5">
      <path clip-path="url(#p6c3c032efe)" d="M 318.475839 315 
L 318.475839 43.2 
" style="fill:none;stroke:#000000;stroke-dasharray:0.8,1.32;stroke-dashoffset:0;stroke-width:0.8;"/>
     </g>
     <g id="line2d_6">
      <g>
       <use style="stroke:#000000;stroke-width:0.8;" x="318.475839" xlink:href="#m7e8290891d" y="315"/>
      </g>
     </g>
     <g id="text_3">
      <!-- 400 -->
      <defs>
       <path d="M 37.796875 64.3125 
L 12.890625 25.390625 
L 37.796875 25.390625 
z
M 35.203125 72.90625 
L 47.609375 72.90625 
L 47.609375 25.390625 
L 58.015625 25.390625 
L 58.015625 17.1875 
L 47.609375 17.1875 
L 47.609375 0 
L 37.796875 0 
L 37.796875 17.1875 
L 4.890625 17.1875 
L 4.890625 26.703125 
z
" id="DejaVuSans-34"/>
      </defs>
      <g transform="translate(308.932089 329.598437)scale(0.1 -0.1)">
       <use xlink:href="#DejaVuSans-34"/>
       <use x="63.623047" xlink:href="#DejaVuSans-30"/>
       <use x="127.246094" xlink:href="#DejaVuSans-30"/>
      </g>
     </g>
    </g>
    <g id="xtick_4">
     <g id="line2d_7">
      <path clip-path="url(#p6c3c032efe)" d="M 420.031941 315 
L 420.031941 43.2 
" style="fill:none;stroke:#000000;stroke-dasharray:0.8,1.32;stroke-dashoffset:0;stroke-width:0.8;"/>
     </g>
     <g id="line2d_8">
      <g>
       <use style="stroke:#000000;stroke-width:0.8;" x="420.031941" xlink:href="#m7e8290891d" y="315"/>
      </g>
     </g>
     <g id="text_4">
      <!-- 600 -->
      <defs>
       <path d="M 33.015625 40.375 
Q 26.375 40.375 22.484375 35.828125 
Q 18.609375 31.296875 18.609375 23.390625 
Q 18.609375 15.53125 22.484375 10.953125 
Q 26.375 6.390625 33.015625 6.390625 
Q 39.65625 6.390625 43.53125 10.953125 
Q 47.40625 15.53125 47.40625 23.390625 
Q 47.40625 31.296875 43.53125 35.828125 
Q 39.65625 40.375 33.015625 40.375 
z
M 52.59375 71.296875 
L 52.59375 62.3125 
Q 48.875 64.0625 45.09375 64.984375 
Q 41.3125 65.921875 37.59375 65.921875 
Q 27.828125 65.921875 22.671875 59.328125 
Q 17.53125 52.734375 16.796875 39.40625 
Q 19.671875 43.65625 24.015625 45.921875 
Q 28.375 48.1875 33.59375 48.1875 
Q 44.578125 48.1875 50.953125 41.515625 
Q 57.328125 34.859375 57.328125 23.390625 
Q 57.328125 12.15625 50.6875 5.359375 
Q 44.046875 -1.421875 33.015625 -1.421875 
Q 20.359375 -1.421875 13.671875 8.265625 
Q 6.984375 17.96875 6.984375 36.375 
Q 6.984375 53.65625 15.1875 63.9375 
Q 23.390625 74.21875 37.203125 74.21875 
Q 40.921875 74.21875 44.703125 73.484375 
Q 48.484375 72.75 52.59375 71.296875 
z
" id="DejaVuSans-36"/>
      </defs>
      <g transform="translate(410.488191 329.598437)scale(0.1 -0.1)">
       <use xlink:href="#DejaVuSans-36"/>
       <use x="63.623047" xlink:href="#DejaVuSans-30"/>
       <use x="127.246094" xlink:href="#DejaVuSans-30"/>
      </g>
     </g>
    </g>
    <g id="xtick_5">
     <g id="line2d_9">
      <path clip-path="url(#p6c3c032efe)" d="M 521.588043 315 
L 521.588043 43.2 
" style="fill:none;stroke:#000000;stroke-dasharray:0.8,1.32;stroke-dashoffset:0;stroke-width:0.8;"/>
     </g>
     <g id="line2d_10">
      <g>
       <use style="stroke:#000000;stroke-width:0.8;" x="521.588043" xlink:href="#m7e8290891d" y="315"/>
      </g>
     </g>
     <g id="text_5">
      <!-- 800 -->
      <defs>
       <path d="M 31.78125 34.625 
Q 24.75 34.625 20.71875 30.859375 
Q 16.703125 27.09375 16.703125 20.515625 
Q 16.703125 13.921875 20.71875 10.15625 
Q 24.75 6.390625 31.78125 6.390625 
Q 38.8125 6.390625 42.859375 10.171875 
Q 46.921875 13.96875 46.921875 20.515625 
Q 46.921875 27.09375 42.890625 30.859375 
Q 38.875 34.625 31.78125 34.625 
z
M 21.921875 38.8125 
Q 15.578125 40.375 12.03125 44.71875 
Q 8.5 49.078125 8.5 55.328125 
Q 8.5 64.0625 14.71875 69.140625 
Q 20.953125 74.21875 31.78125 74.21875 
Q 42.671875 74.21875 48.875 69.140625 
Q 55.078125 64.0625 55.078125 55.328125 
Q 55.078125 49.078125 51.53125 44.71875 
Q 48 40.375 41.703125 38.8125 
Q 48.828125 37.15625 52.796875 32.3125 
Q 56.78125 27.484375 56.78125 20.515625 
Q 56.78125 9.90625 50.3125 4.234375 
Q 43.84375 -1.421875 31.78125 -1.421875 
Q 19.734375 -1.421875 13.25 4.234375 
Q 6.78125 9.90625 6.78125 20.515625 
Q 6.78125 27.484375 10.78125 32.3125 
Q 14.796875 37.15625 21.921875 38.8125 
z
M 18.3125 54.390625 
Q 18.3125 48.734375 21.84375 45.5625 
Q 25.390625 42.390625 31.78125 42.390625 
Q 38.140625 42.390625 41.71875 45.5625 
Q 45.3125 48.734375 45.3125 54.390625 
Q 45.3125 60.0625 41.71875 63.234375 
Q 38.140625 66.40625 31.78125 66.40625 
Q 25.390625 66.40625 21.84375 63.234375 
Q 18.3125 60.0625 18.3125 54.390625 
z
" id="DejaVuSans-38"/>
      </defs>
      <g transform="translate(512.044293 329.598437)scale(0.1 -0.1)">
       <use xlink:href="#DejaVuSans-38"/>
       <use x="63.623047" xlink:href="#DejaVuSans-30"/>
       <use x="127.246094" xlink:href="#DejaVuSans-30"/>
      </g>
     </g>
    </g>
    <g id="xtick_6">
     <g id="line2d_11">
      <path clip-path="url(#p6c3c032efe)" d="M 623.144144 315 
L 623.144144 43.2 
" style="fill:none;stroke:#000000;stroke-dasharray:0.8,1.32;stroke-dashoffset:0;stroke-width:0.8;"/>
     </g>
     <g id="line2d_12">
      <g>
       <use style="stroke:#000000;stroke-width:0.8;" x="623.144144" xlink:href="#m7e8290891d" y="315"/>
      </g>
     </g>
     <g id="text_6">
      <!-- 1000 -->
      <defs>
       <path d="M 12.40625 8.296875 
L 28.515625 8.296875 
L 28.515625 63.921875 
L 10.984375 60.40625 
L 10.984375 69.390625 
L 28.421875 72.90625 
L 38.28125 72.90625 
L 38.28125 8.296875 
L 54.390625 8.296875 
L 54.390625 0 
L 12.40625 0 
z
" id="DejaVuSans-31"/>
      </defs>
      <g transform="translate(610.419144 329.598437)scale(0.1 -0.1)">
       <use xlink:href="#DejaVuSans-31"/>
       <use x="63.623047" xlink:href="#DejaVuSans-30"/>
       <use x="127.246094" xlink:href="#DejaVuSans-30"/>
       <use x="190.869141" xlink:href="#DejaVuSans-30"/>
      </g>
     </g>
    </g>
    <g id="text_7">
     <!-- epoch -->
     <defs>
      <path d="M 56.203125 29.59375 
L 56.203125 25.203125 
L 14.890625 25.203125 
Q 15.484375 15.921875 20.484375 11.0625 
Q 25.484375 6.203125 34.421875 6.203125 
Q 39.59375 6.203125 44.453125 7.46875 
Q 49.3125 8.734375 54.109375 11.28125 
L 54.109375 2.78125 
Q 49.265625 0.734375 44.1875 -0.34375 
Q 39.109375 -1.421875 33.890625 -1.421875 
Q 20.796875 -1.421875 13.15625 6.1875 
Q 5.515625 13.8125 5.515625 26.8125 
Q 5.515625 40.234375 12.765625 48.109375 
Q 20.015625 56 32.328125 56 
Q 43.359375 56 49.78125 48.890625 
Q 56.203125 41.796875 56.203125 29.59375 
z
M 47.21875 32.234375 
Q 47.125 39.59375 43.09375 43.984375 
Q 39.0625 48.390625 32.421875 48.390625 
Q 24.90625 48.390625 20.390625 44.140625 
Q 15.875 39.890625 15.1875 32.171875 
z
" id="DejaVuSans-65"/>
      <path d="M 18.109375 8.203125 
L 18.109375 -20.796875 
L 9.078125 -20.796875 
L 9.078125 54.6875 
L 18.109375 54.6875 
L 18.109375 46.390625 
Q 20.953125 51.265625 25.265625 53.625 
Q 29.59375 56 35.59375 56 
Q 45.5625 56 51.78125 48.09375 
Q 58.015625 40.1875 58.015625 27.296875 
Q 58.015625 14.40625 51.78125 6.484375 
Q 45.5625 -1.421875 35.59375 -1.421875 
Q 29.59375 -1.421875 25.265625 0.953125 
Q 20.953125 3.328125 18.109375 8.203125 
z
M 48.6875 27.296875 
Q 48.6875 37.203125 44.609375 42.84375 
Q 40.53125 48.484375 33.40625 48.484375 
Q 26.265625 48.484375 22.1875 42.84375 
Q 18.109375 37.203125 18.109375 27.296875 
Q 18.109375 17.390625 22.1875 11.75 
Q 26.265625 6.109375 33.40625 6.109375 
Q 40.53125 6.109375 44.609375 11.75 
Q 48.6875 17.390625 48.6875 27.296875 
z
" id="DejaVuSans-70"/>
      <path d="M 30.609375 48.390625 
Q 23.390625 48.390625 19.1875 42.75 
Q 14.984375 37.109375 14.984375 27.296875 
Q 14.984375 17.484375 19.15625 11.84375 
Q 23.34375 6.203125 30.609375 6.203125 
Q 37.796875 6.203125 41.984375 11.859375 
Q 46.1875 17.53125 46.1875 27.296875 
Q 46.1875 37.015625 41.984375 42.703125 
Q 37.796875 48.390625 30.609375 48.390625 
z
M 30.609375 56 
Q 42.328125 56 49.015625 48.375 
Q 55.71875 40.765625 55.71875 27.296875 
Q 55.71875 13.875 49.015625 6.21875 
Q 42.328125 -1.421875 30.609375 -1.421875 
Q 18.84375 -1.421875 12.171875 6.21875 
Q 5.515625 13.875 5.515625 27.296875 
Q 5.515625 40.765625 12.171875 48.375 
Q 18.84375 56 30.609375 56 
z
" id="DejaVuSans-6f"/>
      <path d="M 48.78125 52.59375 
L 48.78125 44.1875 
Q 44.96875 46.296875 41.140625 47.34375 
Q 37.3125 48.390625 33.40625 48.390625 
Q 24.65625 48.390625 19.8125 42.84375 
Q 14.984375 37.3125 14.984375 27.296875 
Q 14.984375 17.28125 19.8125 11.734375 
Q 24.65625 6.203125 33.40625 6.203125 
Q 37.3125 6.203125 41.140625 7.25 
Q 44.96875 8.296875 48.78125 10.40625 
L 48.78125 2.09375 
Q 45.015625 0.34375 40.984375 -0.53125 
Q 36.96875 -1.421875 32.421875 -1.421875 
Q 20.0625 -1.421875 12.78125 6.34375 
Q 5.515625 14.109375 5.515625 27.296875 
Q 5.515625 40.671875 12.859375 48.328125 
Q 20.21875 56 33.015625 56 
Q 37.15625 56 41.109375 55.140625 
Q 45.0625 54.296875 48.78125 52.59375 
z
" id="DejaVuSans-63"/>
      <path d="M 54.890625 33.015625 
L 54.890625 0 
L 45.90625 0 
L 45.90625 32.71875 
Q 45.90625 40.484375 42.875 44.328125 
Q 39.84375 48.1875 33.796875 48.1875 
Q 26.515625 48.1875 22.3125 43.546875 
Q 18.109375 38.921875 18.109375 30.90625 
L 18.109375 0 
L 9.078125 0 
L 9.078125 75.984375 
L 18.109375 75.984375 
L 18.109375 46.1875 
Q 21.34375 51.125 25.703125 53.5625 
Q 30.078125 56 35.796875 56 
Q 45.21875 56 50.046875 50.171875 
Q 54.890625 44.34375 54.890625 33.015625 
z
" id="DejaVuSans-68"/>
     </defs>
     <g transform="translate(353.771875 343.276563)scale(0.1 -0.1)">
      <use xlink:href="#DejaVuSans-65"/>
      <use x="61.523438" xlink:href="#DejaVuSans-70"/>
      <use x="125" xlink:href="#DejaVuSans-6f"/>
      <use x="186.181641" xlink:href="#DejaVuSans-63"/>
      <use x="241.162109" xlink:href="#DejaVuSans-68"/>
     </g>
    </g>
   </g>
   <g id="matplotlib.axis_2">
    <g id="ytick_1">
     <g id="line2d_13">
      <path clip-path="url(#p6c3c032efe)" d="M 90 315 
L 648 315 
" style="fill:none;stroke:#000000;stroke-dasharray:0.8,1.32;stroke-dashoffset:0;stroke-width:0.8;"/>
     </g>
     <g id="line2d_14">
      <defs>
       <path d="M 0 0 
L -3.5 0 
" id="m863064c3ae" style="stroke:#000000;stroke-width:0.8;"/>
      </defs>
      <g>
       <use style="stroke:#000000;stroke-width:0.8;" x="90" xlink:href="#m863064c3ae" y="315"/>
      </g>
     </g>
     <g id="text_8">
      <!-- 0.0 -->
      <defs>
       <path d="M 10.6875 12.40625 
L 21 12.40625 
L 21 0 
L 10.6875 0 
z
" id="DejaVuSans-2e"/>
      </defs>
      <g transform="translate(67.096875 318.799219)scale(0.1 -0.1)">
       <use xlink:href="#DejaVuSans-30"/>
       <use x="63.623047" xlink:href="#DejaVuSans-2e"/>
       <use x="95.410156" xlink:href="#DejaVuSans-30"/>
      </g>
     </g>
    </g>
    <g id="ytick_2">
     <g id="line2d_15">
      <path clip-path="url(#p6c3c032efe)" d="M 90 287.82 
L 648 287.82 
" style="fill:none;stroke:#000000;stroke-dasharray:0.8,1.32;stroke-dashoffset:0;stroke-width:0.8;"/>
     </g>
     <g id="line2d_16">
      <g>
       <use style="stroke:#000000;stroke-width:0.8;" x="90" xlink:href="#m863064c3ae" y="287.82"/>
      </g>
     </g>
     <g id="text_9">
      <!-- 0.1 -->
      <g transform="translate(67.096875 291.619219)scale(0.1 -0.1)">
       <use xlink:href="#DejaVuSans-30"/>
       <use x="63.623047" xlink:href="#DejaVuSans-2e"/>
       <use x="95.410156" xlink:href="#DejaVuSans-31"/>
      </g>
     </g>
    </g>
    <g id="ytick_3">
     <g id="line2d_17">
      <path clip-path="url(#p6c3c032efe)" d="M 90 260.64 
L 648 260.64 
" style="fill:none;stroke:#000000;stroke-dasharray:0.8,1.32;stroke-dashoffset:0;stroke-width:0.8;"/>
     </g>
     <g id="line2d_18">
      <g>
       <use style="stroke:#000000;stroke-width:0.8;" x="90" xlink:href="#m863064c3ae" y="260.64"/>
      </g>
     </g>
     <g id="text_10">
      <!-- 0.2 -->
      <g transform="translate(67.096875 264.439219)scale(0.1 -0.1)">
       <use xlink:href="#DejaVuSans-30"/>
       <use x="63.623047" xlink:href="#DejaVuSans-2e"/>
       <use x="95.410156" xlink:href="#DejaVuSans-32"/>
      </g>
     </g>
    </g>
    <g id="ytick_4">
     <g id="line2d_19">
      <path clip-path="url(#p6c3c032efe)" d="M 90 233.46 
L 648 233.46 
" style="fill:none;stroke:#000000;stroke-dasharray:0.8,1.32;stroke-dashoffset:0;stroke-width:0.8;"/>
     </g>
     <g id="line2d_20">
      <g>
       <use style="stroke:#000000;stroke-width:0.8;" x="90" xlink:href="#m863064c3ae" y="233.46"/>
      </g>
     </g>
     <g id="text_11">
      <!-- 0.3 -->
      <defs>
       <path d="M 40.578125 39.3125 
Q 47.65625 37.796875 51.625 33 
Q 55.609375 28.21875 55.609375 21.1875 
Q 55.609375 10.40625 48.1875 4.484375 
Q 40.765625 -1.421875 27.09375 -1.421875 
Q 22.515625 -1.421875 17.65625 -0.515625 
Q 12.796875 0.390625 7.625 2.203125 
L 7.625 11.71875 
Q 11.71875 9.328125 16.59375 8.109375 
Q 21.484375 6.890625 26.8125 6.890625 
Q 36.078125 6.890625 40.9375 10.546875 
Q 45.796875 14.203125 45.796875 21.1875 
Q 45.796875 27.640625 41.28125 31.265625 
Q 36.765625 34.90625 28.71875 34.90625 
L 20.21875 34.90625 
L 20.21875 43.015625 
L 29.109375 43.015625 
Q 36.375 43.015625 40.234375 45.921875 
Q 44.09375 48.828125 44.09375 54.296875 
Q 44.09375 59.90625 40.109375 62.90625 
Q 36.140625 65.921875 28.71875 65.921875 
Q 24.65625 65.921875 20.015625 65.03125 
Q 15.375 64.15625 9.8125 62.3125 
L 9.8125 71.09375 
Q 15.4375 72.65625 20.34375 73.4375 
Q 25.25 74.21875 29.59375 74.21875 
Q 40.828125 74.21875 47.359375 69.109375 
Q 53.90625 64.015625 53.90625 55.328125 
Q 53.90625 49.265625 50.4375 45.09375 
Q 46.96875 40.921875 40.578125 39.3125 
z
" id="DejaVuSans-33"/>
      </defs>
      <g transform="translate(67.096875 237.259219)scale(0.1 -0.1)">
       <use xlink:href="#DejaVuSans-30"/>
       <use x="63.623047" xlink:href="#DejaVuSans-2e"/>
       <use x="95.410156" xlink:href="#DejaVuSans-33"/>
      </g>
     </g>
    </g>
    <g id="ytick_5">
     <g id="line2d_21">
      <path clip-path="url(#p6c3c032efe)" d="M 90 206.28 
L 648 206.28 
" style="fill:none;stroke:#000000;stroke-dasharray:0.8,1.32;stroke-dashoffset:0;stroke-width:0.8;"/>
     </g>
     <g id="line2d_22">
      <g>
       <use style="stroke:#000000;stroke-width:0.8;" x="90" xlink:href="#m863064c3ae" y="206.28"/>
      </g>
     </g>
     <g id="text_12">
      <!-- 0.4 -->
      <g transform="translate(67.096875 210.079219)scale(0.1 -0.1)">
       <use xlink:href="#DejaVuSans-30"/>
       <use x="63.623047" xlink:href="#DejaVuSans-2e"/>
       <use x="95.410156" xlink:href="#DejaVuSans-34"/>
      </g>
     </g>
    </g>
    <g id="ytick_6">
     <g id="line2d_23">
      <path clip-path="url(#p6c3c032efe)" d="M 90 179.1 
L 648 179.1 
" style="fill:none;stroke:#000000;stroke-dasharray:0.8,1.32;stroke-dashoffset:0;stroke-width:0.8;"/>
     </g>
     <g id="line2d_24">
      <g>
       <use style="stroke:#000000;stroke-width:0.8;" x="90" xlink:href="#m863064c3ae" y="179.1"/>
      </g>
     </g>
     <g id="text_13">
      <!-- 0.5 -->
      <defs>
       <path d="M 10.796875 72.90625 
L 49.515625 72.90625 
L 49.515625 64.59375 
L 19.828125 64.59375 
L 19.828125 46.734375 
Q 21.96875 47.46875 24.109375 47.828125 
Q 26.265625 48.1875 28.421875 48.1875 
Q 40.625 48.1875 47.75 41.5 
Q 54.890625 34.8125 54.890625 23.390625 
Q 54.890625 11.625 47.5625 5.09375 
Q 40.234375 -1.421875 26.90625 -1.421875 
Q 22.3125 -1.421875 17.546875 -0.640625 
Q 12.796875 0.140625 7.71875 1.703125 
L 7.71875 11.625 
Q 12.109375 9.234375 16.796875 8.0625 
Q 21.484375 6.890625 26.703125 6.890625 
Q 35.15625 6.890625 40.078125 11.328125 
Q 45.015625 15.765625 45.015625 23.390625 
Q 45.015625 31 40.078125 35.4375 
Q 35.15625 39.890625 26.703125 39.890625 
Q 22.75 39.890625 18.8125 39.015625 
Q 14.890625 38.140625 10.796875 36.28125 
z
" id="DejaVuSans-35"/>
      </defs>
      <g transform="translate(67.096875 182.899219)scale(0.1 -0.1)">
       <use xlink:href="#DejaVuSans-30"/>
       <use x="63.623047" xlink:href="#DejaVuSans-2e"/>
       <use x="95.410156" xlink:href="#DejaVuSans-35"/>
      </g>
     </g>
    </g>
    <g id="ytick_7">
     <g id="line2d_25">
      <path clip-path="url(#p6c3c032efe)" d="M 90 151.92 
L 648 151.92 
" style="fill:none;stroke:#000000;stroke-dasharray:0.8,1.32;stroke-dashoffset:0;stroke-width:0.8;"/>
     </g>
     <g id="line2d_26">
      <g>
       <use style="stroke:#000000;stroke-width:0.8;" x="90" xlink:href="#m863064c3ae" y="151.92"/>
      </g>
     </g>
     <g id="text_14">
      <!-- 0.6 -->
      <g transform="translate(67.096875 155.719219)scale(0.1 -0.1)">
       <use xlink:href="#DejaVuSans-30"/>
       <use x="63.623047" xlink:href="#DejaVuSans-2e"/>
       <use x="95.410156" xlink:href="#DejaVuSans-36"/>
      </g>
     </g>
    </g>
    <g id="ytick_8">
     <g id="line2d_27">
      <path clip-path="url(#p6c3c032efe)" d="M 90 124.74 
L 648 124.74 
" style="fill:none;stroke:#000000;stroke-dasharray:0.8,1.32;stroke-dashoffset:0;stroke-width:0.8;"/>
     </g>
     <g id="line2d_28">
      <g>
       <use style="stroke:#000000;stroke-width:0.8;" x="90" xlink:href="#m863064c3ae" y="124.74"/>
      </g>
     </g>
     <g id="text_15">
      <!-- 0.7 -->
      <defs>
       <path d="M 8.203125 72.90625 
L 55.078125 72.90625 
L 55.078125 68.703125 
L 28.609375 0 
L 18.3125 0 
L 43.21875 64.59375 
L 8.203125 64.59375 
z
" id="DejaVuSans-37"/>
      </defs>
      <g transform="translate(67.096875 128.539219)scale(0.1 -0.1)">
       <use xlink:href="#DejaVuSans-30"/>
       <use x="63.623047" xlink:href="#DejaVuSans-2e"/>
       <use x="95.410156" xlink:href="#DejaVuSans-37"/>
      </g>
     </g>
    </g>
    <g id="ytick_9">
     <g id="line2d_29">
      <path clip-path="url(#p6c3c032efe)" d="M 90 97.56 
L 648 97.56 
" style="fill:none;stroke:#000000;stroke-dasharray:0.8,1.32;stroke-dashoffset:0;stroke-width:0.8;"/>
     </g>
     <g id="line2d_30">
      <g>
       <use style="stroke:#000000;stroke-width:0.8;" x="90" xlink:href="#m863064c3ae" y="97.56"/>
      </g>
     </g>
     <g id="text_16">
      <!-- 0.8 -->
      <g transform="translate(67.096875 101.359219)scale(0.1 -0.1)">
       <use xlink:href="#DejaVuSans-30"/>
       <use x="63.623047" xlink:href="#DejaVuSans-2e"/>
       <use x="95.410156" xlink:href="#DejaVuSans-38"/>
      </g>
     </g>
    </g>
    <g id="ytick_10">
     <g id="line2d_31">
      <path clip-path="url(#p6c3c032efe)" d="M 90 70.38 
L 648 70.38 
" style="fill:none;stroke:#000000;stroke-dasharray:0.8,1.32;stroke-dashoffset:0;stroke-width:0.8;"/>
     </g>
     <g id="line2d_32">
      <g>
       <use style="stroke:#000000;stroke-width:0.8;" x="90" xlink:href="#m863064c3ae" y="70.38"/>
      </g>
     </g>
     <g id="text_17">
      <!-- 0.9 -->
      <defs>
       <path d="M 10.984375 1.515625 
L 10.984375 10.5 
Q 14.703125 8.734375 18.5 7.8125 
Q 22.3125 6.890625 25.984375 6.890625 
Q 35.75 6.890625 40.890625 13.453125 
Q 46.046875 20.015625 46.78125 33.40625 
Q 43.953125 29.203125 39.59375 26.953125 
Q 35.25 24.703125 29.984375 24.703125 
Q 19.046875 24.703125 12.671875 31.3125 
Q 6.296875 37.9375 6.296875 49.421875 
Q 6.296875 60.640625 12.9375 67.421875 
Q 19.578125 74.21875 30.609375 74.21875 
Q 43.265625 74.21875 49.921875 64.515625 
Q 56.59375 54.828125 56.59375 36.375 
Q 56.59375 19.140625 48.40625 8.859375 
Q 40.234375 -1.421875 26.421875 -1.421875 
Q 22.703125 -1.421875 18.890625 -0.6875 
Q 15.09375 0.046875 10.984375 1.515625 
z
M 30.609375 32.421875 
Q 37.25 32.421875 41.125 36.953125 
Q 45.015625 41.5 45.015625 49.421875 
Q 45.015625 57.28125 41.125 61.84375 
Q 37.25 66.40625 30.609375 66.40625 
Q 23.96875 66.40625 20.09375 61.84375 
Q 16.21875 57.28125 16.21875 49.421875 
Q 16.21875 41.5 20.09375 36.953125 
Q 23.96875 32.421875 30.609375 32.421875 
z
" id="DejaVuSans-39"/>
      </defs>
      <g transform="translate(67.096875 74.179219)scale(0.1 -0.1)">
       <use xlink:href="#DejaVuSans-30"/>
       <use x="63.623047" xlink:href="#DejaVuSans-2e"/>
       <use x="95.410156" xlink:href="#DejaVuSans-39"/>
      </g>
     </g>
    </g>
    <g id="text_18">
     <!-- accuracy -->
     <defs>
      <path d="M 34.28125 27.484375 
Q 23.390625 27.484375 19.1875 25 
Q 14.984375 22.515625 14.984375 16.5 
Q 14.984375 11.71875 18.140625 8.90625 
Q 21.296875 6.109375 26.703125 6.109375 
Q 34.1875 6.109375 38.703125 11.40625 
Q 43.21875 16.703125 43.21875 25.484375 
L 43.21875 27.484375 
z
M 52.203125 31.203125 
L 52.203125 0 
L 43.21875 0 
L 43.21875 8.296875 
Q 40.140625 3.328125 35.546875 0.953125 
Q 30.953125 -1.421875 24.3125 -1.421875 
Q 15.921875 -1.421875 10.953125 3.296875 
Q 6 8.015625 6 15.921875 
Q 6 25.140625 12.171875 29.828125 
Q 18.359375 34.515625 30.609375 34.515625 
L 43.21875 34.515625 
L 43.21875 35.40625 
Q 43.21875 41.609375 39.140625 45 
Q 35.0625 48.390625 27.6875 48.390625 
Q 23 48.390625 18.546875 47.265625 
Q 14.109375 46.140625 10.015625 43.890625 
L 10.015625 52.203125 
Q 14.9375 54.109375 19.578125 55.046875 
Q 24.21875 56 28.609375 56 
Q 40.484375 56 46.34375 49.84375 
Q 52.203125 43.703125 52.203125 31.203125 
z
" id="DejaVuSans-61"/>
      <path d="M 8.5 21.578125 
L 8.5 54.6875 
L 17.484375 54.6875 
L 17.484375 21.921875 
Q 17.484375 14.15625 20.5 10.265625 
Q 23.53125 6.390625 29.59375 6.390625 
Q 36.859375 6.390625 41.078125 11.03125 
Q 45.3125 15.671875 45.3125 23.6875 
L 45.3125 54.6875 
L 54.296875 54.6875 
L 54.296875 0 
L 45.3125 0 
L 45.3125 8.40625 
Q 42.046875 3.421875 37.71875 1 
Q 33.40625 -1.421875 27.6875 -1.421875 
Q 18.265625 -1.421875 13.375 4.4375 
Q 8.5 10.296875 8.5 21.578125 
z
M 31.109375 56 
z
" id="DejaVuSans-75"/>
      <path d="M 41.109375 46.296875 
Q 39.59375 47.171875 37.8125 47.578125 
Q 36.03125 48 33.890625 48 
Q 26.265625 48 22.1875 43.046875 
Q 18.109375 38.09375 18.109375 28.8125 
L 18.109375 0 
L 9.078125 0 
L 9.078125 54.6875 
L 18.109375 54.6875 
L 18.109375 46.1875 
Q 20.953125 51.171875 25.484375 53.578125 
Q 30.03125 56 36.53125 56 
Q 37.453125 56 38.578125 55.875 
Q 39.703125 55.765625 41.0625 55.515625 
z
" id="DejaVuSans-72"/>
      <path d="M 32.171875 -5.078125 
Q 28.375 -14.84375 24.75 -17.8125 
Q 21.140625 -20.796875 15.09375 -20.796875 
L 7.90625 -20.796875 
L 7.90625 -13.28125 
L 13.1875 -13.28125 
Q 16.890625 -13.28125 18.9375 -11.515625 
Q 21 -9.765625 23.484375 -3.21875 
L 25.09375 0.875 
L 2.984375 54.6875 
L 12.5 54.6875 
L 29.59375 11.921875 
L 46.6875 54.6875 
L 56.203125 54.6875 
z
" id="DejaVuSans-79"/>
     </defs>
     <g transform="translate(61.017187 201.659375)rotate(-90)scale(0.1 -0.1)">
      <use xlink:href="#DejaVuSans-61"/>
      <use x="61.279297" xlink:href="#DejaVuSans-63"/>
      <use x="116.259766" xlink:href="#DejaVuSans-63"/>
      <use x="171.240234" xlink:href="#DejaVuSans-75"/>
      <use x="234.619141" xlink:href="#DejaVuSans-72"/>
      <use x="275.732422" xlink:href="#DejaVuSans-61"/>
      <use x="337.011719" xlink:href="#DejaVuSans-63"/>
      <use x="391.992188" xlink:href="#DejaVuSans-79"/>
     </g>
    </g>
   </g>
   <g id="line2d_33">
    <path clip-path="url(#p6c3c032efe)" d="M 115.363636 177.149276 
L 115.871417 178.449759 
L 116.379197 177.149276 
L 117.394758 177.149276 
L 118.410319 174.548328 
L 132.120393 174.548328 
L 132.628174 175.84881 
L 134.151515 175.84881 
L 134.659296 174.548328 
L 135.674857 174.548328 
L 136.182637 173.247846 
L 136.690418 174.548328 
L 143.291564 174.548328 
L 143.799345 173.247846 
L 152.939394 173.247846 
L 153.447174 174.548328 
L 178.328419 174.548328 
L 178.8362 173.247846 
L 180.359541 173.247846 
L 180.867322 174.548328 
L 183.406224 174.548328 
L 183.914005 175.84881 
L 185.945127 175.84881 
L 186.452907 174.548328 
L 186.960688 174.548328 
L 187.468468 175.84881 
L 197.624079 175.84881 
L 198.131859 174.548328 
L 221.489762 174.548328 
L 221.997543 173.247846 
L 223.520885 173.247846 
L 224.028665 171.947363 
L 229.614251 171.947363 
L 230.122031 173.247846 
L 232.660934 173.247846 
L 233.168714 171.947363 
L 260.588862 171.947363 
L 261.604423 169.346415 
L 265.158886 169.346415 
L 265.666667 168.045932 
L 267.697789 168.045932 
L 268.205569 166.74545 
L 269.728911 166.74545 
L 270.236691 168.045932 
L 274.806716 168.045932 
L 275.314496 166.74545 
L 277.345618 166.74545 
L 277.853399 165.444984 
L 278.361179 165.444984 
L 278.86896 164.144502 
L 282.931204 164.144502 
L 283.438984 162.844019 
L 290.040131 162.844019 
L 290.547912 164.144502 
L 294.610156 164.144502 
L 295.117936 165.444984 
L 297.656839 165.444984 
L 298.164619 164.144502 
L 306.796888 164.144502 
L 307.304668 165.444984 
L 307.812449 164.144502 
L 323.045864 164.144502 
L 323.553645 165.444984 
L 329.647011 165.444984 
L 330.154791 166.74545 
L 341.325962 166.74545 
L 341.833743 168.045932 
L 344.880426 168.045932 
L 345.388206 166.74545 
L 354.528256 166.74545 
L 355.036036 165.444984 
L 364.176085 165.444984 
L 364.683866 164.144502 
L 377.378378 164.144502 
L 377.886159 162.844019 
L 403.275184 162.844019 
L 403.782965 161.543537 
L 404.290745 162.844019 
L 408.352989 162.844019 
L 408.86077 161.543537 
L 423.078624 161.543537 
L 423.586405 160.243055 
L 424.094185 160.243055 
L 424.601966 158.942588 
L 446.436527 158.942588 
L 446.944308 157.642106 
L 462.177723 157.642106 
L 462.685504 156.341624 
L 464.208845 156.341624 
L 464.716626 155.041141 
L 480.457821 155.041141 
L 480.965602 152.440193 
L 505.339066 152.440193 
L 505.846847 153.740675 
L 528.69697 153.740675 
L 529.20475 152.440193 
L 544.945946 152.440193 
L 545.453726 153.740675 
L 545.961507 153.740675 
L 546.469287 155.041141 
L 546.977068 153.740675 
L 551.547093 153.740675 
L 552.054873 155.041141 
L 554.593776 155.041141 
L 555.101556 156.341624 
L 556.624898 156.341624 
L 557.132678 157.642106 
L 557.640459 157.642106 
L 558.148239 156.341624 
L 590.138411 156.341624 
L 590.646192 155.041141 
L 598.77068 155.041141 
L 599.27846 153.740675 
L 612.988534 153.740675 
L 613.496314 152.440193 
L 620.605242 152.440193 
L 621.113022 151.139711 
L 622.636364 151.139711 
L 622.636364 151.139711 
" style="fill:none;opacity:0.7;stroke:#1976d2;stroke-linecap:square;"/>
   </g>
   <g id="line2d_34">
    <path clip-path="url(#p6c3c032efe)" d="M 115.363636 228.024002 
L 118.410319 228.024002 
L 118.9181 233.459997 
L 131.612613 233.459997 
L 132.120393 228.024002 
L 146.846028 228.024002 
L 147.353808 222.587999 
L 189.49959 222.587999 
L 190.007371 228.024002 
L 202.194103 228.024002 
L 202.701884 222.587999 
L 207.779689 222.587999 
L 208.287469 217.151996 
L 214.380835 217.151996 
L 214.888616 211.716001 
L 262.112203 211.716001 
L 262.619984 206.279998 
L 276.837838 206.279998 
L 277.345618 200.844004 
L 289.532351 200.844004 
L 290.040131 195.408001 
L 300.195741 195.408001 
L 300.703522 189.971998 
L 301.719083 189.971998 
L 302.226863 184.536003 
L 465.224406 184.536003 
L 465.732187 189.971998 
L 497.722359 189.971998 
L 498.230139 184.536003 
L 622.636364 184.536003 
L 622.636364 184.536003 
" style="fill:none;opacity:0.7;stroke:#ff9800;stroke-linecap:square;"/>
   </g>
   <g id="line2d_35">
    <path clip-path="url(#p6c3c032efe)" d="M 115.363636 158.942588 
L 116.379197 158.942588 
L 116.886978 157.642106 
L 117.394758 158.942588 
L 119.933661 158.942588 
L 120.441441 156.341624 
L 120.949222 157.642106 
L 125.011466 157.642106 
L 125.519247 158.942588 
L 126.534808 156.341624 
L 127.042588 156.341624 
L 127.550369 157.642106 
L 128.058149 157.642106 
L 129.07371 155.041141 
L 129.581491 155.041141 
L 130.089271 153.740675 
L 133.643735 153.740675 
L 134.151515 152.440193 
L 136.690418 152.440193 
L 137.198198 153.740675 
L 138.72154 153.740675 
L 139.22932 152.440193 
L 146.846028 152.440193 
L 147.353808 151.139711 
L 152.431613 151.139711 
L 152.939394 152.440193 
L 156.493857 152.440193 
L 157.001638 153.740675 
L 159.03276 153.740675 
L 159.540541 152.440193 
L 160.556102 152.440193 
L 161.063882 153.740675 
L 162.079443 153.740675 
L 162.587224 152.440193 
L 171.727273 152.440193 
L 172.235053 153.740675 
L 172.742834 152.440193 
L 183.914005 152.440193 
L 184.421785 151.139711 
L 230.629812 151.139711 
L 231.137592 149.839228 
L 267.190008 149.839228 
L 267.697789 148.538762 
L 366.714988 148.538762 
L 367.222768 147.23828 
L 383.471744 147.23828 
L 383.979525 148.538762 
L 404.798526 148.538762 
L 405.306306 149.839228 
L 430.695332 149.839228 
L 431.203112 148.538762 
L 437.804259 148.538762 
L 438.312039 149.839228 
L 438.81982 147.23828 
L 441.866503 147.23828 
L 442.374283 148.538762 
L 489.09009 148.538762 
L 489.597871 147.23828 
L 491.121212 147.23828 
L 491.628993 148.538762 
L 496.706798 148.538762 
L 497.214578 147.23828 
L 517.525799 147.23828 
L 518.033579 148.538762 
L 536.313677 148.538762 
L 536.821458 147.23828 
L 546.469287 147.23828 
L 546.977068 145.937797 
L 571.858313 145.937797 
L 572.366093 147.23828 
L 590.646192 147.23828 
L 591.153972 145.937797 
L 611.465192 145.937797 
L 611.972973 147.23828 
L 619.0819 147.23828 
L 619.589681 145.937797 
L 622.636364 145.937797 
L 622.636364 145.937797 
" style="fill:none;opacity:0.7;stroke:#1976d2;stroke-linecap:square;"/>
   </g>
   <g id="line2d_36">
    <path clip-path="url(#p6c3c032efe)" d="M 115.363636 173.664005 
L 120.949222 173.664005 
L 121.457002 179.1 
L 123.488124 179.1 
L 123.995905 184.536003 
L 130.597052 184.536003 
L 131.104832 189.971998 
L 136.690418 189.971998 
L 137.198198 184.536003 
L 140.244881 184.536003 
L 140.752662 189.971998 
L 145.830467 189.971998 
L 146.338247 184.536003 
L 149.892711 184.536003 
L 150.400491 179.1 
L 356.051597 179.1 
L 356.559378 173.664005 
L 404.290745 173.664005 
L 404.798526 179.1 
L 437.804259 179.1 
L 438.312039 173.664005 
L 496.199017 173.664005 
L 496.706798 179.1 
L 497.722359 179.1 
L 498.230139 173.664005 
L 559.671581 173.664005 
L 560.179361 168.227994 
L 622.636364 168.227994 
L 622.636364 168.227994 
" style="fill:none;opacity:0.7;stroke:#ff9800;stroke-linecap:square;"/>
   </g>
   <g id="line2d_37">
    <path clip-path="url(#p6c3c032efe)" d="M 115.363636 148.538762 
L 115.871417 149.839228 
L 117.394758 149.839228 
L 117.902539 151.139711 
L 118.9181 151.139711 
L 119.42588 149.839228 
L 119.933661 151.139711 
L 120.949222 151.139711 
L 121.457002 153.740675 
L 121.964783 153.740675 
L 122.472563 155.041141 
L 122.980344 153.740675 
L 123.995905 153.740675 
L 124.503686 152.440193 
L 125.011466 155.041141 
L 125.519247 153.740675 
L 126.027027 155.041141 
L 126.534808 155.041141 
L 127.042588 153.740675 
L 127.550369 153.740675 
L 128.058149 155.041141 
L 129.581491 155.041141 
L 130.089271 153.740675 
L 131.104832 153.740675 
L 131.612613 152.440193 
L 137.198198 152.440193 
L 137.705979 151.139711 
L 164.110565 151.139711 
L 164.618346 149.839228 
L 170.203931 149.839228 
L 170.711712 148.538762 
L 181.375102 148.538762 
L 181.882883 147.23828 
L 204.733006 147.23828 
L 205.240786 145.937797 
L 228.090909 145.937797 
L 228.59869 147.23828 
L 242.308763 147.23828 
L 242.816544 148.538762 
L 246.878788 148.538762 
L 247.386568 147.23828 
L 252.972154 147.23828 
L 253.479934 145.937797 
L 263.127764 145.937797 
L 263.635545 147.23828 
L 266.682228 147.23828 
L 267.190008 145.937797 
L 340.310401 145.937797 
L 340.818182 144.637315 
L 354.528256 144.637315 
L 355.036036 143.336849 
L 385.502867 143.336849 
L 386.010647 144.637315 
L 410.891892 144.637315 
L 411.399672 143.336849 
L 465.732187 143.336849 
L 466.239967 142.036367 
L 467.763309 142.036367 
L 468.271089 140.735884 
L 480.965602 140.735884 
L 481.473382 139.435402 
L 536.821458 139.435402 
L 537.329238 138.134936 
L 545.453726 138.134936 
L 545.961507 139.435402 
L 550.531532 139.435402 
L 551.039312 138.134936 
L 622.636364 138.134936 
L 622.636364 138.134936 
" style="fill:none;opacity:0.7;stroke:#1976d2;stroke-linecap:square;"/>
   </g>
   <g id="line2d_38">
    <path clip-path="url(#p6c3c032efe)" d="M 115.363636 238.896 
L 116.886978 238.896 
L 117.394758 233.459997 
L 121.457002 233.459997 
L 121.964783 238.896 
L 133.135954 238.896 
L 133.643735 233.459997 
L 136.182637 233.459997 
L 136.690418 228.024002 
L 617.050778 228.024002 
L 617.558559 222.587999 
L 622.636364 222.587999 
L 622.636364 222.587999 
" style="fill:none;opacity:0.7;stroke:#ff9800;stroke-linecap:square;"/>
   </g>
   <g id="line2d_39">
    <path clip-path="url(#p6c3c032efe)" d="M 115.363636 138.134936 
L 427.140868 138.134936 
L 427.648649 139.435402 
L 440.850942 139.435402 
L 441.358722 140.735884 
L 443.897625 140.735884 
L 444.405405 139.435402 
L 453.545455 139.435402 
L 454.053235 138.134936 
L 455.576577 138.134936 
L 456.084357 139.435402 
L 456.592138 139.435402 
L 457.099918 140.735884 
L 459.638821 140.735884 
L 460.146601 142.036367 
L 467.255528 142.036367 
L 467.763309 143.336849 
L 480.965602 143.336849 
L 481.473382 144.637315 
L 486.551188 144.637315 
L 487.058968 145.937797 
L 492.136773 145.937797 
L 492.644554 147.23828 
L 494.675676 147.23828 
L 495.183456 148.538762 
L 495.691237 148.538762 
L 496.199017 149.839228 
L 496.706798 149.839228 
L 497.214578 148.538762 
L 499.753481 148.538762 
L 500.261261 147.23828 
L 503.815725 147.23828 
L 504.323505 149.839228 
L 504.831286 149.839228 
L 505.339066 151.139711 
L 506.862408 151.139711 
L 507.370188 149.839228 
L 511.432432 149.839228 
L 511.940213 151.139711 
L 512.955774 151.139711 
L 513.463554 149.839228 
L 514.986896 149.839228 
L 515.494676 148.538762 
L 518.54136 148.538762 
L 519.556921 151.139711 
L 521.080262 151.139711 
L 521.588043 152.440193 
L 522.095823 155.041141 
L 522.603604 153.740675 
L 523.111384 153.740675 
L 523.619165 152.440193 
L 525.142506 152.440193 
L 525.650287 153.740675 
L 526.665848 153.740675 
L 527.173628 152.440193 
L 528.189189 152.440193 
L 529.20475 149.839228 
L 529.712531 149.839228 
L 530.220311 152.440193 
L 534.790336 152.440193 
L 535.298116 153.740675 
L 536.313677 153.740675 
L 536.821458 152.440193 
L 538.85258 152.440193 
L 539.36036 153.740675 
L 540.375921 153.740675 
L 540.883702 152.440193 
L 541.899263 152.440193 
L 542.407043 153.740675 
L 543.422604 153.740675 
L 543.930385 152.440193 
L 544.945946 152.440193 
L 545.453726 151.139711 
L 545.961507 152.440193 
L 546.469287 151.139711 
L 549.515971 151.139711 
L 550.023751 152.440193 
L 550.531532 151.139711 
L 553.070434 151.139711 
L 554.085995 153.740675 
L 554.593776 156.341624 
L 555.101556 156.341624 
L 555.609337 158.942588 
L 557.132678 158.942588 
L 557.640459 160.243055 
L 558.148239 158.942588 
L 559.671581 158.942588 
L 560.179361 160.243055 
L 560.687142 160.243055 
L 561.194922 161.543537 
L 563.226044 161.543537 
L 563.733825 160.243055 
L 564.241605 157.642106 
L 565.257166 157.642106 
L 565.764947 156.341624 
L 566.780508 156.341624 
L 567.288288 155.041141 
L 567.796069 156.341624 
L 569.827191 156.341624 
L 570.334971 157.642106 
L 587.599509 157.642106 
L 588.107289 158.942588 
L 589.12285 158.942588 
L 589.630631 160.243055 
L 600.294021 160.243055 
L 600.801802 161.543537 
L 602.832924 161.543537 
L 603.340704 160.243055 
L 608.418509 160.243055 
L 608.92629 161.543537 
L 611.465192 161.543537 
L 611.972973 162.844019 
L 618.57412 162.844019 
L 619.0819 164.144502 
L 622.636364 164.144502 
L 622.636364 164.144502 
" style="fill:none;opacity:0.7;stroke:#1976d2;stroke-linecap:square;"/>
   </g>
   <g id="line2d_40">
    <path clip-path="url(#p6c3c032efe)" d="M 115.363636 222.587999 
L 470.809992 222.587999 
L 471.317772 228.024002 
L 479.44226 228.024002 
L 479.950041 233.459997 
L 487.058968 233.459997 
L 487.566749 228.024002 
L 488.074529 233.459997 
L 501.276822 233.459997 
L 501.784603 238.896 
L 504.831286 238.896 
L 505.339066 233.459997 
L 507.877969 233.459997 
L 508.385749 238.896 
L 511.940213 238.896 
L 512.447993 233.459997 
L 515.494676 233.459997 
L 516.002457 228.024002 
L 517.018018 228.024002 
L 517.525799 222.587999 
L 529.20475 222.587999 
L 529.712531 217.151996 
L 544.438165 217.151996 
L 544.945946 211.716001 
L 546.977068 211.716001 
L 547.992629 200.844004 
L 553.578215 200.844004 
L 554.085995 206.279998 
L 555.101556 206.279998 
L 555.609337 200.844004 
L 561.702703 200.844004 
L 562.210483 195.408001 
L 562.718264 184.536003 
L 588.61507 184.536003 
L 589.12285 189.971998 
L 622.636364 189.971998 
L 622.636364 189.971998 
" style="fill:none;opacity:0.7;stroke:#ff9800;stroke-linecap:square;"/>
   </g>
   <g id="line2d_41">
    <path clip-path="url(#p6c3c032efe)" d="M 115.363636 158.942588 
L 116.886978 158.942588 
L 117.394758 157.642106 
L 132.628174 157.642106 
L 133.643735 155.041141 
L 138.213759 155.041141 
L 138.72154 156.341624 
L 139.22932 156.341624 
L 139.737101 157.642106 
L 173.758395 157.642106 
L 174.266175 156.341624 
L 184.929566 156.341624 
L 185.437346 157.642106 
L 214.380835 157.642106 
L 214.888616 158.942588 
L 220.981982 158.942588 
L 221.489762 157.642106 
L 243.324324 157.642106 
L 243.832105 156.341624 
L 269.22113 156.341624 
L 269.728911 155.041141 
L 274.298935 155.041141 
L 274.806716 153.740675 
L 295.625717 153.740675 
L 296.133497 152.440193 
L 298.164619 152.440193 
L 298.6724 151.139711 
L 303.242424 151.139711 
L 303.750205 149.839228 
L 311.874693 149.839228 
L 312.382473 151.139711 
L 326.092547 151.139711 
L 326.600328 149.839228 
L 355.543817 149.839228 
L 356.051597 151.139711 
L 370.777232 151.139711 
L 371.285012 149.839228 
L 374.839476 149.839228 
L 375.347256 148.538762 
L 383.471744 148.538762 
L 383.979525 147.23828 
L 384.487305 147.23828 
L 384.995086 148.538762 
L 391.596233 148.538762 
L 392.104013 147.23828 
L 392.611794 147.23828 
L 393.119574 148.538762 
L 397.689599 148.538762 
L 398.197379 149.839228 
L 406.321867 149.839228 
L 406.829648 151.139711 
L 411.399672 151.139711 
L 411.907453 149.839228 
L 438.81982 149.839228 
L 439.3276 151.139711 
L 442.882064 151.139711 
L 443.389844 152.440193 
L 445.928747 152.440193 
L 446.436527 151.139711 
L 453.545455 151.139711 
L 454.053235 149.839228 
L 457.099918 149.839228 
L 457.607699 152.440193 
L 488.58231 152.440193 
L 489.09009 153.740675 
L 491.628993 153.740675 
L 492.644554 156.341624 
L 494.675676 156.341624 
L 495.183456 155.041141 
L 508.385749 155.041141 
L 508.89353 153.740675 
L 521.080262 153.740675 
L 521.588043 155.041141 
L 555.609337 155.041141 
L 556.117117 153.740675 
L 582.013923 153.740675 
L 582.521704 155.041141 
L 586.076167 155.041141 
L 586.583948 153.740675 
L 618.57412 153.740675 
L 619.0819 152.440193 
L 622.636364 152.440193 
L 622.636364 152.440193 
" style="fill:none;opacity:0.7;stroke:#1976d2;stroke-linecap:square;"/>
   </g>
   <g id="line2d_42">
    <path clip-path="url(#p6c3c032efe)" d="M 115.363636 217.151996 
L 311.366912 217.151996 
L 311.874693 222.587999 
L 323.045864 222.587999 
L 323.553645 217.151996 
L 354.020475 217.151996 
L 355.036036 206.279998 
L 369.761671 206.279998 
L 370.269451 200.844004 
L 408.352989 200.844004 
L 408.86077 206.279998 
L 464.208845 206.279998 
L 464.716626 200.844004 
L 468.271089 200.844004 
L 468.77887 195.408001 
L 491.628993 195.408001 
L 492.136773 189.971998 
L 522.095823 189.971998 
L 522.603604 184.536003 
L 523.111384 184.536003 
L 523.619165 179.1 
L 562.210483 179.1 
L 562.718264 173.664005 
L 583.029484 173.664005 
L 583.537265 168.227994 
L 622.636364 168.227994 
L 622.636364 168.227994 
" style="fill:none;opacity:0.7;stroke:#ff9800;stroke-linecap:square;"/>
   </g>
   <g id="line2d_43">
    <path clip-path="url(#p6c3c032efe)" d="M 115.363636 136.834453 
L 622.636364 136.834453 
L 622.636364 136.834453 
" style="fill:none;opacity:0.7;stroke:#1976d2;stroke-linecap:square;"/>
   </g>
   <g id="line2d_44">
    <path clip-path="url(#p6c3c032efe)" d="M 115.363636 222.587999 
L 622.636364 222.587999 
L 622.636364 222.587999 
" style="fill:none;opacity:0.7;stroke:#ff9800;stroke-linecap:square;"/>
   </g>
   <g id="line2d_45">
    <path clip-path="url(#p6c3c032efe)" d="M 115.363636 217.464116 
L 140.244881 217.464116 
L 140.752662 218.76459 
L 144.307125 218.76459 
L 144.814906 217.464116 
L 158.52498 217.464116 
L 159.03276 218.76459 
L 160.556102 218.76459 
L 161.063882 217.464116 
L 163.095004 217.464116 
L 163.602785 216.163633 
L 167.157248 216.163633 
L 167.665029 214.863159 
L 171.219492 214.863159 
L 171.727273 213.562677 
L 173.758395 213.562677 
L 174.266175 212.262203 
L 175.281736 212.262203 
L 175.789517 210.96172 
L 178.8362 210.96172 
L 179.34398 209.661246 
L 179.851761 210.96172 
L 182.390663 210.96172 
L 183.914005 207.060289 
L 184.929566 207.060289 
L 185.437346 205.759807 
L 185.945127 205.759807 
L 186.452907 203.15885 
L 186.960688 201.858376 
L 187.468468 201.858376 
L 188.484029 199.25742 
L 188.99181 199.25742 
L 189.49959 201.858376 
L 190.007371 200.557894 
L 190.515152 200.557894 
L 191.022932 201.858376 
L 191.530713 201.858376 
L 192.038493 197.956937 
L 193.054054 197.956937 
L 194.577396 194.055498 
L 195.085176 194.055498 
L 196.100737 191.454542 
L 196.608518 191.454542 
L 197.116298 188.853585 
L 197.624079 187.553111 
L 198.131859 188.853585 
L 198.63964 188.853585 
L 199.14742 187.553111 
L 199.655201 184.952154 
L 200.162981 183.651672 
L 200.670762 183.651672 
L 201.178542 178.449759 
L 201.686323 175.84881 
L 202.194103 175.84881 
L 203.209664 168.045932 
L 203.717445 166.74545 
L 204.225225 169.346415 
L 204.733006 166.74545 
L 205.240786 165.444984 
L 205.748567 166.74545 
L 206.256347 162.844019 
L 206.764128 161.543537 
L 207.271908 161.543537 
L 207.779689 162.844019 
L 208.287469 161.543537 
L 208.79525 161.543537 
L 209.30303 158.942588 
L 210.318591 156.341624 
L 211.334152 156.341624 
L 211.841933 153.740675 
L 212.349713 153.740675 
L 212.857494 155.041141 
L 213.873055 152.440193 
L 221.489762 152.440193 
L 221.997543 153.740675 
L 222.505324 153.740675 
L 223.013104 155.041141 
L 223.520885 153.740675 
L 225.044226 153.740675 
L 225.552007 155.041141 
L 239.26208 155.041141 
L 239.769861 153.740675 
L 251.956593 153.740675 
L 252.464373 152.440193 
L 280.900082 152.440193 
L 281.407862 151.139711 
L 286.485667 151.139711 
L 286.993448 149.839228 
L 304.257985 149.839228 
L 304.765766 148.538762 
L 323.553645 148.538762 
L 324.061425 147.23828 
L 328.63145 147.23828 
L 329.13923 145.937797 
L 350.466011 145.937797 
L 350.973792 144.637315 
L 356.559378 144.637315 
L 357.067158 143.336849 
L 381.948403 143.336849 
L 382.456183 142.036367 
L 400.736282 142.036367 
L 401.244062 140.735884 
L 412.415233 140.735884 
L 412.923014 142.036367 
L 419.524161 142.036367 
L 420.031941 143.336849 
L 426.633088 143.336849 
L 427.140868 142.036367 
L 460.654382 142.036367 
L 461.162162 140.735884 
L 470.302211 140.735884 
L 470.809992 139.435402 
L 482.488943 139.435402 
L 482.996724 138.134936 
L 494.675676 138.134936 
L 495.183456 136.834453 
L 511.940213 136.834453 
L 512.447993 138.134936 
L 512.955774 138.134936 
L 513.463554 136.834453 
L 513.971335 136.834453 
L 514.479115 134.233489 
L 555.609337 134.233489 
L 556.117117 135.533971 
L 568.303849 135.533971 
L 568.81163 136.834453 
L 573.381654 136.834453 
L 573.889435 138.134936 
L 593.692875 138.134936 
L 594.200655 136.834453 
L 622.636364 136.834453 
L 622.636364 136.834453 
" style="fill:none;opacity:0.7;stroke:#1976d2;stroke-linecap:square;"/>
   </g>
   <g id="line2d_46">
    <path clip-path="url(#p6c3c032efe)" d="M 115.363636 135.611993 
L 177.820639 135.611993 
L 178.328419 130.175998 
L 186.960688 130.175998 
L 187.468468 124.740003 
L 189.49959 124.740003 
L 190.007371 119.303992 
L 190.515152 119.303992 
L 191.022932 113.867997 
L 194.577396 113.867997 
L 195.085176 124.740003 
L 195.592957 124.740003 
L 196.100737 130.175998 
L 197.116298 130.175998 
L 199.14742 151.919994 
L 200.162981 141.048004 
L 200.670762 151.919994 
L 201.178542 157.356005 
L 202.701884 157.356005 
L 203.717445 168.227994 
L 204.225225 168.227994 
L 204.733006 173.664005 
L 206.764128 173.664005 
L 207.271908 168.227994 
L 210.318591 168.227994 
L 210.826372 173.664005 
L 211.841933 173.664005 
L 212.349713 179.1 
L 230.629812 179.1 
L 231.137592 173.664005 
L 238.7543 173.664005 
L 239.26208 168.227994 
L 331.170352 168.227994 
L 331.678133 173.664005 
L 350.973792 173.664005 
L 351.481572 168.227994 
L 406.829648 168.227994 
L 407.337428 162.791999 
L 446.436527 162.791999 
L 446.944308 157.356005 
L 571.350532 157.356005 
L 571.858313 151.919994 
L 622.636364 151.919994 
L 622.636364 151.919994 
" style="fill:none;opacity:0.7;stroke:#ff9800;stroke-linecap:square;"/>
   </g>
   <g id="line2d_47">
    <path clip-path="url(#p6c3c032efe)" d="M 115.363636 177.149276 
L 115.871417 175.84881 
L 116.379197 173.247846 
L 118.9181 173.247846 
L 119.42588 174.548328 
L 119.933661 171.947363 
L 122.472563 171.947363 
L 122.980344 173.247846 
L 125.011466 168.045932 
L 126.534808 168.045932 
L 127.042588 169.346415 
L 129.07371 169.346415 
L 129.581491 170.646897 
L 131.104832 170.646897 
L 131.612613 169.346415 
L 133.135954 169.346415 
L 133.643735 168.045932 
L 136.182637 168.045932 
L 136.690418 166.74545 
L 146.338247 166.74545 
L 146.846028 165.444984 
L 156.493857 165.444984 
L 157.001638 164.144502 
L 163.602785 164.144502 
L 164.110565 162.844019 
L 173.758395 162.844019 
L 174.266175 161.543537 
L 177.820639 161.543537 
L 178.328419 162.844019 
L 179.851761 162.844019 
L 180.359541 164.144502 
L 206.256347 164.144502 
L 206.764128 165.444984 
L 211.334152 165.444984 
L 211.841933 166.74545 
L 216.411957 166.74545 
L 216.919738 168.045932 
L 218.95086 168.045932 
L 219.45864 166.74545 
L 224.536446 166.74545 
L 225.044226 168.045932 
L 233.168714 168.045932 
L 233.676495 166.74545 
L 235.199836 166.74545 
L 235.707617 168.045932 
L 242.308763 168.045932 
L 242.816544 166.74545 
L 251.448812 166.74545 
L 251.956593 165.444984 
L 279.884521 165.444984 
L 280.392301 164.144502 
L 298.6724 164.144502 
L 299.18018 162.844019 
L 346.911548 162.844019 
L 347.419328 161.543537 
L 353.512695 161.543537 
L 354.020475 160.243055 
L 365.699427 160.243055 
L 366.207207 161.543537 
L 369.25389 161.543537 
L 369.761671 160.243055 
L 372.300573 160.243055 
L 372.808354 158.942588 
L 373.316134 158.942588 
L 373.823915 160.243055 
L 380.425061 160.243055 
L 380.932842 158.942588 
L 393.119574 158.942588 
L 393.627355 157.642106 
L 408.86077 157.642106 
L 409.36855 156.341624 
L 420.031941 156.341624 
L 420.539722 157.642106 
L 453.545455 157.642106 
L 454.053235 156.341624 
L 462.685504 156.341624 
L 463.193284 155.041141 
L 537.837019 155.041141 
L 538.344799 156.341624 
L 557.132678 156.341624 
L 558.148239 153.740675 
L 565.257166 153.740675 
L 565.764947 152.440193 
L 567.796069 152.440193 
L 568.303849 153.740675 
L 581.506143 153.740675 
L 582.013923 152.440193 
L 620.605242 152.440193 
L 621.113022 151.139711 
L 622.636364 151.139711 
L 622.636364 151.139711 
" style="fill:none;opacity:0.7;stroke:#1976d2;stroke-linecap:square;"/>
   </g>
   <g id="line2d_48">
    <path clip-path="url(#p6c3c032efe)" d="M 115.363636 200.844004 
L 117.902539 200.844004 
L 118.410319 206.279998 
L 118.9181 206.279998 
L 119.42588 200.844004 
L 119.933661 206.279998 
L 123.995905 206.279998 
L 124.503686 200.844004 
L 207.779689 200.844004 
L 208.287469 206.279998 
L 308.82801 206.279998 
L 309.33579 200.844004 
L 353.512695 200.844004 
L 354.020475 195.408001 
L 362.144963 195.408001 
L 362.652744 189.971998 
L 422.570844 189.971998 
L 423.078624 184.536003 
L 519.556921 184.536003 
L 520.064701 179.1 
L 532.251433 179.1 
L 532.759214 173.664005 
L 622.636364 173.664005 
L 622.636364 173.664005 
" style="fill:none;opacity:0.7;stroke:#ff9800;stroke-linecap:square;"/>
   </g>
   <g id="line2d_49">
    <path clip-path="url(#p6c3c032efe)" d="M 115.363636 165.444984 
L 116.886978 165.444984 
L 117.394758 164.144502 
L 117.902539 165.444984 
L 118.9181 165.444984 
L 119.42588 164.144502 
L 121.964783 164.144502 
L 122.472563 162.844019 
L 122.980344 162.844019 
L 123.488124 161.543537 
L 123.995905 161.543537 
L 124.503686 160.243055 
L 125.519247 160.243055 
L 126.027027 161.543537 
L 128.56593 161.543537 
L 129.581491 158.942588 
L 131.612613 158.942588 
L 132.120393 157.642106 
L 133.135954 157.642106 
L 133.643735 158.942588 
L 134.659296 158.942588 
L 135.674857 161.543537 
L 142.276003 161.543537 
L 142.783784 160.243055 
L 149.38493 160.243055 
L 149.892711 161.543537 
L 166.141687 161.543537 
L 166.649468 160.243055 
L 180.359541 160.243055 
L 180.867322 158.942588 
L 228.090909 158.942588 
L 228.59869 160.243055 
L 234.692056 160.243055 
L 235.199836 158.942588 
L 300.703522 158.942588 
L 301.211302 157.642106 
L 339.802621 157.642106 
L 340.310401 156.341624 
L 473.856675 156.341624 
L 474.364455 157.642106 
L 489.597871 157.642106 
L 490.105651 158.942588 
L 506.862408 158.942588 
L 507.370188 160.243055 
L 517.018018 160.243055 
L 517.525799 161.543537 
L 525.650287 161.543537 
L 526.158067 160.243055 
L 533.774775 160.243055 
L 534.282555 158.942588 
L 554.085995 158.942588 
L 554.593776 157.642106 
L 622.636364 157.642106 
L 622.636364 157.642106 
" style="fill:none;opacity:0.7;stroke:#1976d2;stroke-linecap:square;"/>
   </g>
   <g id="line2d_50">
    <path clip-path="url(#p6c3c032efe)" d="M 115.363636 249.768001 
L 115.871417 244.332003 
L 221.489762 244.332003 
L 221.997543 249.768001 
L 609.941851 249.768001 
L 610.449631 255.204 
L 622.636364 255.204 
L 622.636364 255.204 
" style="fill:none;opacity:0.7;stroke:#ff9800;stroke-linecap:square;"/>
   </g>
   <g id="line2d_51">
    <path clip-path="url(#p6c3c032efe)" d="M 115.363636 208.360764 
L 115.871417 207.060289 
L 117.902539 207.060289 
L 118.410319 205.759807 
L 123.995905 205.759807 
L 124.503686 204.459333 
L 130.089271 204.459333 
L 130.597052 205.759807 
L 131.104832 204.459333 
L 131.612613 204.459333 
L 132.628174 201.858376 
L 133.135954 197.956937 
L 133.643735 197.956937 
L 134.151515 199.25742 
L 134.659296 197.956937 
L 135.674857 200.557894 
L 136.182637 199.25742 
L 136.690418 200.557894 
L 137.198198 200.557894 
L 137.705979 199.25742 
L 138.213759 201.858376 
L 138.72154 200.557894 
L 139.22932 201.858376 
L 139.737101 197.956937 
L 140.244881 196.656463 
L 140.752662 196.656463 
L 141.260442 197.956937 
L 142.276003 197.956937 
L 142.783784 196.656463 
L 143.291564 194.055498 
L 143.799345 195.355981 
L 144.307125 195.355981 
L 144.814906 192.755024 
L 145.322686 192.755024 
L 145.830467 194.055498 
L 146.338247 191.454542 
L 146.846028 192.755024 
L 148.369369 192.755024 
L 148.87715 190.154068 
L 150.400491 186.252629 
L 152.431613 186.252629 
L 153.447174 188.853585 
L 153.954955 188.853585 
L 154.462735 186.252629 
L 155.478296 186.252629 
L 155.986077 187.553111 
L 156.493857 184.952154 
L 157.001638 187.553111 
L 157.509419 188.853585 
L 158.017199 188.853585 
L 160.048321 183.651672 
L 160.556102 183.651672 
L 161.063882 182.351198 
L 161.571663 182.351198 
L 162.079443 183.651672 
L 163.095004 181.050715 
L 163.602785 181.050715 
L 164.110565 182.351198 
L 164.618346 182.351198 
L 165.126126 179.750241 
L 165.633907 178.449759 
L 166.141687 178.449759 
L 166.649468 179.750241 
L 169.696151 179.750241 
L 170.203931 178.449759 
L 170.711712 178.449759 
L 171.219492 177.149276 
L 172.235053 177.149276 
L 172.742834 175.84881 
L 175.281736 175.84881 
L 175.789517 174.548328 
L 177.312858 174.548328 
L 177.820639 173.247846 
L 178.328419 170.646897 
L 181.375102 170.646897 
L 181.882883 169.346415 
L 190.515152 169.346415 
L 191.022932 170.646897 
L 200.670762 170.646897 
L 201.178542 171.947363 
L 227.075348 171.947363 
L 227.583129 170.646897 
L 235.199836 170.646897 
L 235.707617 169.346415 
L 243.324324 169.346415 
L 243.832105 168.045932 
L 262.112203 168.045932 
L 262.619984 166.74545 
L 284.962326 166.74545 
L 285.470106 168.045932 
L 292.579034 168.045932 
L 293.086814 166.74545 
L 300.703522 166.74545 
L 301.211302 168.045932 
L 302.734644 168.045932 
L 303.242424 169.346415 
L 304.765766 169.346415 
L 305.273546 170.646897 
L 354.528256 170.646897 
L 355.036036 169.346415 
L 380.932842 169.346415 
L 381.440622 168.045932 
L 382.456183 168.045932 
L 382.963964 166.74545 
L 397.181818 166.74545 
L 397.689599 165.444984 
L 442.374283 165.444984 
L 442.882064 166.74545 
L 448.467649 166.74545 
L 448.97543 165.444984 
L 451.006552 165.444984 
L 451.514333 164.144502 
L 537.837019 164.144502 
L 538.344799 162.844019 
L 553.578215 162.844019 
L 554.085995 161.543537 
L 555.609337 161.543537 
L 556.117117 160.243055 
L 577.443898 160.243055 
L 578.459459 157.642106 
L 613.496314 157.642106 
L 614.004095 158.942588 
L 619.0819 158.942588 
L 619.589681 157.642106 
L 622.636364 157.642106 
L 622.636364 157.642106 
" style="fill:none;opacity:0.7;stroke:#1976d2;stroke-linecap:square;"/>
   </g>
   <g id="line2d_52">
    <path clip-path="url(#p6c3c032efe)" d="M 115.363636 124.740003 
L 118.410319 124.740003 
L 118.9181 130.175998 
L 133.643735 130.175998 
L 134.151515 135.611993 
L 135.167076 135.611993 
L 135.674857 141.048004 
L 137.198198 141.048004 
L 137.705979 135.611993 
L 139.737101 135.611993 
L 140.244881 141.048004 
L 143.799345 141.048004 
L 144.307125 146.483999 
L 145.322686 146.483999 
L 145.830467 135.611993 
L 146.846028 135.611993 
L 147.353808 141.048004 
L 147.861589 141.048004 
L 148.369369 146.483999 
L 149.892711 146.483999 
L 150.400491 151.919994 
L 151.923833 151.919994 
L 152.431613 157.356005 
L 153.447174 157.356005 
L 153.954955 162.791999 
L 154.462735 162.791999 
L 154.970516 157.356005 
L 156.493857 157.356005 
L 158.017199 173.664005 
L 159.03276 173.664005 
L 159.540541 179.1 
L 160.048321 179.1 
L 160.556102 184.536003 
L 161.063882 184.536003 
L 161.571663 189.971998 
L 164.110565 189.971998 
L 164.618346 184.536003 
L 176.805078 184.536003 
L 177.312858 189.971998 
L 228.59869 189.971998 
L 229.10647 184.536003 
L 262.112203 184.536003 
L 262.619984 189.971998 
L 321.522523 189.971998 
L 322.030303 184.536003 
L 322.538084 184.536003 
L 323.045864 179.1 
L 420.031941 179.1 
L 420.539722 184.536003 
L 468.271089 184.536003 
L 468.77887 179.1 
L 470.809992 179.1 
L 471.317772 173.664005 
L 576.936118 173.664005 
L 577.443898 168.227994 
L 618.57412 168.227994 
L 619.0819 162.791999 
L 622.636364 162.791999 
L 622.636364 162.791999 
" style="fill:none;opacity:0.7;stroke:#ff9800;stroke-linecap:square;"/>
   </g>
   <g id="patch_3">
    <path d="M 90 315 
L 90 43.2 
" style="fill:none;stroke:#000000;stroke-linecap:square;stroke-linejoin:miter;stroke-width:0.8;"/>
   </g>
   <g id="patch_4">
    <path d="M 648 315 
L 648 43.2 
" style="fill:none;stroke:#000000;stroke-linecap:square;stroke-linejoin:miter;stroke-width:0.8;"/>
   </g>
   <g id="patch_5">
    <path d="M 90 315 
L 648 315 
" style="fill:none;stroke:#000000;stroke-linecap:square;stroke-linejoin:miter;stroke-width:0.8;"/>
   </g>
   <g id="patch_6">
    <path d="M 90 43.2 
L 648 43.2 
" style="fill:none;stroke:#000000;stroke-linecap:square;stroke-linejoin:miter;stroke-width:0.8;"/>
   </g>
   <g id="text_19">
    <!-- Model accuracy -->
    <defs>
     <path d="M 9.8125 72.90625 
L 24.515625 72.90625 
L 43.109375 23.296875 
L 61.8125 72.90625 
L 76.515625 72.90625 
L 76.515625 0 
L 66.890625 0 
L 66.890625 64.015625 
L 48.09375 14.015625 
L 38.1875 14.015625 
L 19.390625 64.015625 
L 19.390625 0 
L 9.8125 0 
z
" id="DejaVuSans-4d"/>
     <path d="M 45.40625 46.390625 
L 45.40625 75.984375 
L 54.390625 75.984375 
L 54.390625 0 
L 45.40625 0 
L 45.40625 8.203125 
Q 42.578125 3.328125 38.25 0.953125 
Q 33.9375 -1.421875 27.875 -1.421875 
Q 17.96875 -1.421875 11.734375 6.484375 
Q 5.515625 14.40625 5.515625 27.296875 
Q 5.515625 40.1875 11.734375 48.09375 
Q 17.96875 56 27.875 56 
Q 33.9375 56 38.25 53.625 
Q 42.578125 51.265625 45.40625 46.390625 
z
M 14.796875 27.296875 
Q 14.796875 17.390625 18.875 11.75 
Q 22.953125 6.109375 30.078125 6.109375 
Q 37.203125 6.109375 41.296875 11.75 
Q 45.40625 17.390625 45.40625 27.296875 
Q 45.40625 37.203125 41.296875 42.84375 
Q 37.203125 48.484375 30.078125 48.484375 
Q 22.953125 48.484375 18.875 42.84375 
Q 14.796875 37.203125 14.796875 27.296875 
z
" id="DejaVuSans-64"/>
     <path d="M 9.421875 75.984375 
L 18.40625 75.984375 
L 18.40625 0 
L 9.421875 0 
z
" id="DejaVuSans-6c"/>
     <path id="DejaVuSans-20"/>
    </defs>
    <g transform="translate(322.005938 23.762625)scale(0.12 -0.12)">
     <use xlink:href="#DejaVuSans-4d"/>
     <use x="86.279297" xlink:href="#DejaVuSans-6f"/>
     <use x="147.460938" xlink:href="#DejaVuSans-64"/>
     <use x="210.9375" xlink:href="#DejaVuSans-65"/>
     <use x="272.460938" xlink:href="#DejaVuSans-6c"/>
     <use x="300.244141" xlink:href="#DejaVuSans-20"/>
     <use x="332.03125" xlink:href="#DejaVuSans-61"/>
     <use x="393.310547" xlink:href="#DejaVuSans-63"/>
     <use x="448.291016" xlink:href="#DejaVuSans-63"/>
     <use x="503.271484" xlink:href="#DejaVuSans-75"/>
     <use x="566.650391" xlink:href="#DejaVuSans-72"/>
     <use x="607.763672" xlink:href="#DejaVuSans-61"/>
     <use x="669.042969" xlink:href="#DejaVuSans-63"/>
     <use x="724.023438" xlink:href="#DejaVuSans-79"/>
    </g>
    <!-- Learning rate: 0.001 -->
    <defs>
     <path d="M 9.8125 72.90625 
L 19.671875 72.90625 
L 19.671875 8.296875 
L 55.171875 8.296875 
L 55.171875 0 
L 9.8125 0 
z
" id="DejaVuSans-4c"/>
     <path d="M 54.890625 33.015625 
L 54.890625 0 
L 45.90625 0 
L 45.90625 32.71875 
Q 45.90625 40.484375 42.875 44.328125 
Q 39.84375 48.1875 33.796875 48.1875 
Q 26.515625 48.1875 22.3125 43.546875 
Q 18.109375 38.921875 18.109375 30.90625 
L 18.109375 0 
L 9.078125 0 
L 9.078125 54.6875 
L 18.109375 54.6875 
L 18.109375 46.1875 
Q 21.34375 51.125 25.703125 53.5625 
Q 30.078125 56 35.796875 56 
Q 45.21875 56 50.046875 50.171875 
Q 54.890625 44.34375 54.890625 33.015625 
z
" id="DejaVuSans-6e"/>
     <path d="M 9.421875 54.6875 
L 18.40625 54.6875 
L 18.40625 0 
L 9.421875 0 
z
M 9.421875 75.984375 
L 18.40625 75.984375 
L 18.40625 64.59375 
L 9.421875 64.59375 
z
" id="DejaVuSans-69"/>
     <path d="M 45.40625 27.984375 
Q 45.40625 37.75 41.375 43.109375 
Q 37.359375 48.484375 30.078125 48.484375 
Q 22.859375 48.484375 18.828125 43.109375 
Q 14.796875 37.75 14.796875 27.984375 
Q 14.796875 18.265625 18.828125 12.890625 
Q 22.859375 7.515625 30.078125 7.515625 
Q 37.359375 7.515625 41.375 12.890625 
Q 45.40625 18.265625 45.40625 27.984375 
z
M 54.390625 6.78125 
Q 54.390625 -7.171875 48.1875 -13.984375 
Q 42 -20.796875 29.203125 -20.796875 
Q 24.46875 -20.796875 20.265625 -20.09375 
Q 16.0625 -19.390625 12.109375 -17.921875 
L 12.109375 -9.1875 
Q 16.0625 -11.328125 19.921875 -12.34375 
Q 23.78125 -13.375 27.78125 -13.375 
Q 36.625 -13.375 41.015625 -8.765625 
Q 45.40625 -4.15625 45.40625 5.171875 
L 45.40625 9.625 
Q 42.625 4.78125 38.28125 2.390625 
Q 33.9375 0 27.875 0 
Q 17.828125 0 11.671875 7.65625 
Q 5.515625 15.328125 5.515625 27.984375 
Q 5.515625 40.671875 11.671875 48.328125 
Q 17.828125 56 27.875 56 
Q 33.9375 56 38.28125 53.609375 
Q 42.625 51.21875 45.40625 46.390625 
L 45.40625 54.6875 
L 54.390625 54.6875 
z
" id="DejaVuSans-67"/>
     <path d="M 18.3125 70.21875 
L 18.3125 54.6875 
L 36.8125 54.6875 
L 36.8125 47.703125 
L 18.3125 47.703125 
L 18.3125 18.015625 
Q 18.3125 11.328125 20.140625 9.421875 
Q 21.96875 7.515625 27.59375 7.515625 
L 36.8125 7.515625 
L 36.8125 0 
L 27.59375 0 
Q 17.1875 0 13.234375 3.875 
Q 9.28125 7.765625 9.28125 18.015625 
L 9.28125 47.703125 
L 2.6875 47.703125 
L 2.6875 54.6875 
L 9.28125 54.6875 
L 9.28125 70.21875 
z
" id="DejaVuSans-74"/>
     <path d="M 11.71875 12.40625 
L 22.015625 12.40625 
L 22.015625 0 
L 11.71875 0 
z
M 11.71875 51.703125 
L 22.015625 51.703125 
L 22.015625 39.3125 
L 11.71875 39.3125 
z
" id="DejaVuSans-3a"/>
    </defs>
    <g transform="translate(307.543125 37.2)scale(0.12 -0.12)">
     <use xlink:href="#DejaVuSans-4c"/>
     <use x="55.697266" xlink:href="#DejaVuSans-65"/>
     <use x="117.220703" xlink:href="#DejaVuSans-61"/>
     <use x="178.5" xlink:href="#DejaVuSans-72"/>
     <use x="219.597656" xlink:href="#DejaVuSans-6e"/>
     <use x="282.976562" xlink:href="#DejaVuSans-69"/>
     <use x="310.759766" xlink:href="#DejaVuSans-6e"/>
     <use x="374.138672" xlink:href="#DejaVuSans-67"/>
     <use x="437.615234" xlink:href="#DejaVuSans-20"/>
     <use x="469.402344" xlink:href="#DejaVuSans-72"/>
     <use x="510.515625" xlink:href="#DejaVuSans-61"/>
     <use x="571.794922" xlink:href="#DejaVuSans-74"/>
     <use x="611.003906" xlink:href="#DejaVuSans-65"/>
     <use x="672.527344" xlink:href="#DejaVuSans-3a"/>
     <use x="706.21875" xlink:href="#DejaVuSans-20"/>
     <use x="738.005859" xlink:href="#DejaVuSans-30"/>
     <use x="801.628906" xlink:href="#DejaVuSans-2e"/>
     <use x="833.416016" xlink:href="#DejaVuSans-30"/>
     <use x="897.039062" xlink:href="#DejaVuSans-30"/>
     <use x="960.662109" xlink:href="#DejaVuSans-31"/>
    </g>
   </g>
  </g>
 </g>
 <defs>
  <clipPath id="p6c3c032efe">
   <rect height="271.8" width="558" x="90" y="43.2"/>
  </clipPath>
 </defs>
</svg>
